<mxfile host="65bd71144e">
    <diagram name="Page-1" id="nZa-REgYqWvI-TkC9kvA">
        <mxGraphModel dx="1350" dy="1522" grid="1" gridSize="10" guides="1" tooltips="1" connect="1" arrows="1" fold="1" page="1" pageScale="1" pageWidth="827" pageHeight="1169" math="0" shadow="0">
            <root>
                <mxCell id="0"/>
                <mxCell id="1" parent="0"/>
                <mxCell id="NkAxZAtzzJqoS2XVmBnt-55" style="edgeStyle=orthogonalEdgeStyle;rounded=0;orthogonalLoop=1;jettySize=auto;html=1;dashed=1;" parent="1" source="NkAxZAtzzJqoS2XVmBnt-43" target="NkAxZAtzzJqoS2XVmBnt-52" edge="1">
                    <mxGeometry relative="1" as="geometry"/>
                </mxCell>
                <mxCell id="NkAxZAtzzJqoS2XVmBnt-43" value="&lt;font style=&quot;font-size: 9px;&quot;&gt;ACTIONS&lt;br&gt;&lt;br&gt;&lt;br&gt;&lt;br&gt;&lt;/font&gt;" style="ellipse;whiteSpace=wrap;html=1;dashed=1;" parent="1" vertex="1">
                    <mxGeometry x="410" y="730.85" width="120" height="80" as="geometry"/>
                </mxCell>
                <mxCell id="NkAxZAtzzJqoS2XVmBnt-54" style="edgeStyle=orthogonalEdgeStyle;rounded=0;orthogonalLoop=1;jettySize=auto;html=1;dashed=1;" parent="1" source="NkAxZAtzzJqoS2XVmBnt-39" target="NkAxZAtzzJqoS2XVmBnt-53" edge="1">
                    <mxGeometry relative="1" as="geometry"/>
                </mxCell>
                <mxCell id="NkAxZAtzzJqoS2XVmBnt-39" value="&lt;font style=&quot;font-size: 9px;&quot;&gt;RESOURCES&lt;br&gt;&lt;br&gt;&lt;br&gt;&lt;br&gt;&lt;br&gt;&lt;/font&gt;" style="ellipse;whiteSpace=wrap;html=1;dashed=1;" parent="1" vertex="1">
                    <mxGeometry x="410" y="630" width="120" height="80" as="geometry"/>
                </mxCell>
                <mxCell id="NkAxZAtzzJqoS2XVmBnt-2" value="" style="shape=image;verticalLabelPosition=bottom;labelBackgroundColor=default;verticalAlign=top;aspect=fixed;imageAspect=0;image=data:image/png,iVBORw0KGgoAAAANSUhEUgAAAb8AAADACAYAAACUEG3SAAABX2lDQ1BJQ0MgUHJvZmlsZQAAKJF1kEFLAlEQx/9bhmAGIRIRHbZDh8DCdI91MI0IPCxuYoWXdd000vW1uxUdAg8d6i59hKhPIFSHPkIQFQRBty7dAi8lr3laqUUzDP8ff2beGwbo8+uMlTwAypZrp5YW5NW1ddn7Aj8CCGIWPt1wWExVk9SCb+2Nxj0kobfT4q35u6P07tZFtqIdbmePDyb+9veEL286BukHlWIw2wWkMLG65zLBVeKgTUsR1wQX2nwmONfmq1bPSipOfEM8bBT1PPEzcSjX5Re6uFzaMb52ENv7TSutkY5SjSOBRSQpZWiIQkGEMoHMPzNKayaOChj2YWMTBRTh0nSMHIYSTOJlWDAwgxBxBGGqqLj17xt2vOoTMBegr5SOpw4B5xYwYna8yVdgjO50WWO6rf9cVmp4nI1opM2DdWDghPO3DOCdApoPnL/XOW+eAv2PwHXjE8TVYsADy/L6AAAAVmVYSWZNTQAqAAAACAABh2kABAAAAAEAAAAaAAAAAAADkoYABwAAABIAAABEoAIABAAAAAEAAAG/oAMABAAAAAEAAADAAAAAAEFTQ0lJAAAAU2NyZWVuc2hvdOnsRdsAAAHWaVRYdFhNTDpjb20uYWRvYmUueG1wAAAAAAA8eDp4bXBtZXRhIHhtbG5zOng9ImFkb2JlOm5zOm1ldGEvIiB4OnhtcHRrPSJYTVAgQ29yZSA2LjAuMCI+CiAgIDxyZGY6UkRGIHhtbG5zOnJkZj0iaHR0cDovL3d3dy53My5vcmcvMTk5OS8wMi8yMi1yZGYtc3ludGF4LW5zIyI+CiAgICAgIDxyZGY6RGVzY3JpcHRpb24gcmRmOmFib3V0PSIiCiAgICAgICAgICAgIHhtbG5zOmV4aWY9Imh0dHA6Ly9ucy5hZG9iZS5jb20vZXhpZi8xLjAvIj4KICAgICAgICAgPGV4aWY6UGl4ZWxZRGltZW5zaW9uPjE5MjwvZXhpZjpQaXhlbFlEaW1lbnNpb24+CiAgICAgICAgIDxleGlmOlBpeGVsWERpbWVuc2lvbj40NDc8L2V4aWY6UGl4ZWxYRGltZW5zaW9uPgogICAgICAgICA8ZXhpZjpVc2VyQ29tbWVudD5TY3JlZW5zaG90PC9leGlmOlVzZXJDb21tZW50PgogICAgICA8L3JkZjpEZXNjcmlwdGlvbj4KICAgPC9yZGY6UkRGPgo8L3g6eG1wbWV0YT4KO7pIewAAQABJREFUeAHtnQd8FUXXhw+BdEISSAgltAQIvddAaAICClIVREFBsL32z/Lqa+9dLNhFRUQUkV6kF+m991BCTYCQEEIafOc/N3PZXG7F3JDknpPfzbbZ2ZlndufMOTO7UyIyMvIKiQgBISAEhIAQ8CACXh6UV8mqEBACQkAICAFFQJSf3AhCQAgIASHgcQRE+XlckUuGhYAQEAJCQJSf3ANCQAgIASHgcQRE+XlckUuGhYAQEAJCQJSf3ANCQAgIASHgcQRE+XlckUuGhYAQEAJCwCXl5+crwISAEBACQkAIFH0CTim/p+8vQTsXlaDNc0tQzWpFP9OSAyEgBISAEPBsAk4pvzt6E+05QNSg2xXaf9izgUnuhYAQEAJCoOgTcEr5+fgQbdlJlJ1d9DMsORACQkAICAEh4JTy8yohik9uFSEgBISAECg+BBwqv3YtiEqVIvpng3z/uvgUu+RECAgBIeDZBFitWZcAf6LV00qQjzfRjAVES1dZDyd7hYAQEAJCQAgUNQI2Lb9Ll4ieePWK6uvr3ZWocoWiljVJrxAQAkJACAgB6wRsKr/L7OVc+A/R0Meu0BVeH9CLO/5EhIAQEAJCQAgUAwI2lZ/OG0Z4ZvEvOEjvkaUQEAJCQAgIgaJNwKHyQ/aysojq1izaGZXUCwEhIASEgBDQBJxSfvOWEjWpT+orL1FV9amyFAJCQAgIASFQNAmUiIyMdOodhjLs9qxaiWg3f+lFXnYvmoUtqRYCQkAICAETAaeVnwATAkJACAgBIVBcCDjl9iwumZV8CAEhIASEgBAAAVF+ch8IASEgBISAxxGwqfy4L9DjYEiGhYAQEAJCwDMI2FR+npF9yaUQEAJCQAh4IgFRfp5Y6pJnISAEhICHE3CL8qtapxnFDbhfoS1ftRZ1HPQQ+fgH3jDU7kpPg6oR1KhahMpXrYrlqFWtyjcsj8YLe5UoQTc1iqJAP56IMR8EcYWVCciHmCSK6yVQkucV69WsFpXOpzK93nRcz3lVwspQh3rV1KnhZQKpY/3q5FOq5PVEJecIgXwj4Bbl177/aOox4nmVyCad+1H3e56l0PKRVD+2B7056zC9MHGzOQNRjWPVvkYdbzPvy+8VW+n5t9cZ3rkx3dOlqYqmf5u6NLo7z/9UCAQVy/DOTahS2bzfpMP+N4d2pYiQ0i6lclinxlSncrhL51gL/Gy/9vTe8O7WDhWpfeD382P9CY2fghJvLrvBcQ2pgotl5yh93ZvUpJ8e7Ud+3jYneHEUhcPjXRpG0X3dmqtwzaIr0siuzSgk0M/heRJACLiTgFuUn60El/AytfYCyoRSs66DVDCvkqaHzsurQJNiK4nFYn8Gf4z1xV8X0aFTyXnyU6qkF6EVHujH81QVsJQt7U/1q5anySt3FPCV8/9yQ1gJnUu7RNuPnMr/yAs4xr6t69DqvQl0CR/wFRECHkTAfc09OxDTU5Op+/BnaOOCP64JNfLt36h6/ZYEpZidmUGLf/uUlkz6nPe1onvf+IWIXXol+Jd07CDBpbp6xk808+tXyC8wiO55fTxF1m7McZagY/u20rfPDlJxXHMRKzu+/fZbCg0Npeeff5727t1rJYRru/q0rEPt61WlUqzU4TI8fT6N3pq8jM5eSFcRNYuqqFrDcGOlXcqiL+etpa2HrlamX4y+hRZsPUhdGtag4AA/ij91jn5YuIleGNgB2SO4NrGvJrtb/1q9k6av26PifaZvO6oRUVatvz1lGR1JPK/WX7/zJrb4TK7nFwZ0oByeqmPTwRP05dx16rijf3DpDmNLF9edtnY3zci9Hs7DNZNS0ym6QlmKLBdEGVk59PgPc+hiBn8UNlfuaN+ALlzKpLX7jqk9CPts//a0/8RZql8lXJ3z6aw1ZoUCC+eJPm2VpZOdc5lmbdhLU1bv0tHZveadHRpRXN1qSslfysym9/5aQftPnlXnwoWLtMDSOcdl8fGMVXTodDJVDQ+m/w3sSOv2H6PYOlUpJT2Dvl+wIU+ZIIIgf19qWqOCKgtzYnjFHoOBsfWpR9OaytV3MvmCSk9SykW1/fqdXVQecU8jPZ/MXK3KFXE35XvkwZtbkq93Sdp9LMl4OZX+h3u1UtYne0Rp25HT9AnnBawgvVvGUIvoSnSK77uWNU3u+I9nrMyTn9a1I5UbddKK7ea4EWfzqEqEhhLY/bp8Ky3Zfkgd/2xUL9p5NFGly3gfhHLD5t27u9GH01fSntx0wrV5e7v69Oh3s81xy4oQKEwE3GJubVw4mdbOmaDyuXvNAlr/9yRKOXPSnO8Vf31LQWXLU0zLLuZ9euVSWgpNH/s/+vaZQXR45zrqNuxpCqscRb4BgVTKx5fm//yeChoQFEpblkyjVr3uUtvDX/uZKkU3pIW/fETzf3qP1+tTlyGPqWOO0oNAwcHB5OPjQ35+zrtjpq3dQ1PXmCrk+VsO5LFqggN9VaV2/FwqfTVvHZUJ8KUhHRqq9KDf4/HebVWl+y5XzIdOn6P/9Gqtjul/UIp9W9VRlQ0qaFR+PlwJ+vmUop8Xb1HBgtl1NH/zfurD4bRMWL6NvpizVlX8vgZX1pdz16rKEeF+XrKF3v5zOf3xj/NWGBQUrrsl/iQNbFsP+tcs5Vi5d2pQna2HLHXtpTsOqQaKDhDg601tuKKduma33qUqdCigSqFB9PnstWxJpdMDN5vcxqhYX7qjE3mXLEljWBnM3bSf+rauS+CmxdY1oVShaP5as5Oe/Xk+TV61Uyl6nAd3JdzBB1jhfj57DXmx1ni2X5yK0rdUKcU2pnKYOpbJltAd7Uzlpa+J5SBWZFDuyziPRrGVHnDpw4ro780H6CNWDj6cp5E3NVOn4vponKAs3vhjqbK+4BrWMrpbC0pkJQk+FZiTUR7s0ZLqRXKZLNmsFDHWodi14H6rERFKMZXKqTATWYldNulFHUTlZQcrTd0gwwE0WMbyvQLPwab4EzSC01ouyNTfW4YVPxSq5X0ApY3zbm1R2xx3r+a16PjZVMrhudFgWernZOfR06qhhsaFiBC4kQTcYvlB4eEHObJ7o/oZM3ny0G5KTDhAt4x+maZ/+aLxEE14YzSFRkRS40796MyJwxTdpD1hwEpayhkVbsWUb6ld3/uUZbdl8VQO11ftrxLTlJJPH2MlaaokLiQnKdfq36wIHaUHEcyfP5/CwsLoxIkTKj5n/q3YddgcbCNbUdbkU668M7NzVEUUG1NFBeneNFotURFUCwumPcfPKJcg3IKojLRgv7bMYKXV4ooMguv2blmbW9ln2FI5TjdzZa/l2JkUOsMVpqWgIkpmVx3k6JnzZusC290aR1/TP4j9B06eU9fC+j+7j6p1uPpashVYo0IoHeTjWpDH139fqja1daePQXFlsUWycOsBvcu8hGUBawtW4X8HxKlBOlWZCZT/Zla0sADT+Bji78kDPlDZa7F3TYQ5k3qRlc5+HZwtOhN/KFS4+dA4GMV9URVCr/aBjueGwZZDJym0tB8N7QAvwlVBn2kcD9yApW3tg7jW0oM0w4K6wJU9FP2BU2eVAkFc2I+GSuVyZaghl/2JcxeoYq6Sg5sY7un3p61QnBH+/tzGAVLUhK3PBC5rf84DJDElTSm/edxQMMpbrFhPsbVpKXVYyZcPDuTGxao8h8axdwH9cU1rVDSfB6sYLCG27gM0/mDhwmJE2SEf2qKENagtwqNJKXQ0yflGV57EyYYQyEcCblF+zqQPrsp72U1ZObpBnuCPfDGPIqrFEJRXxsVUdcyHrT4ovyuYVZclh7+sDZdoVuYlZWGEhFdSS18eUVq3TTcVJvPSRUpPNbn81A4H/+D2zG9B5YYKERLP/W838+ACVA6o0NEibhF9dXQoFIkvV3BGWc+KzVI0A7i3EHdWTk4eK8syvDPb1cuHUBRbCZaCvkMt+06YGh9agQb5+epDarmPFbU1QX67skUyZ+M+lWfLMHB7Qg7kuiVhYcK1CIGywA+SwJVmWkamWtf/rF0T8axhS+Oujo3VD1w/4Qoe6Q5jCwZlovu39PlhQYFszZnyqvN5lt24GGFpFLgSwX/OxrwKRofR8eltLOGyhpncqlakeTfuBVjDuJ3hSoRig+KDexMCZg1YGUJ0v63mg33BbNXBTRro62OONz0jW7lqcVwL8mpN8eE4XMOH2eqEMjLK8+xWh7UINz3c8RDjfan5WN4HC9lFDzdn+7pV1f2Ne9NWg9B4PVkXAjeKwA1Tfvs3LlOu0LiBD5jzXrkmj2arXod+eGEoHdi8gmo168j9eD/zg27fO5tyxtRXdnDrKpr49oPm+FxZ6datG4WEhNC8efMoJSVvheBKPMawcFGiAoWiq8TWBSpdKK1zF0wW2Gu/L6HLuQrdeJ5eT81n15C+VEmLwUXfzt+gL2lzqc+1FQCWmzWBwkdFbewjNIaLZKsHbjdYP5CD3I9ZuaxpfcKyraQrW+M5et3WNWFNfTVvPbVlSxsjC6G0YNGhwjaViReXyWUe/BOsojp/kffnWlC2ygOuWFhxi7fHqwaHToNxaS092Ic4X5m02BhUrePVBSi+0V9OV/fF7e0aKNch92pzvk2NAlilsNo1H5yYmm5iDeVitIQtL5BhY/oVxIUGzztTluc5BdYaLEKkFY2GmuxChvsZ5afF1n2Aexv9gd0a12TL0ZdWsqfAFYmLi6Ny5crRihUrKCkpb/+mK/FIWCHgLAH7WsXZWK4z3Lxx75B/aVMFpKLIfciCy1Vg12cVuvX+V5yK+fLlHDp36ijVbtGJ6rW9WZ0DxRl720inzkegUaNG0d13303Vq1d3+hxnAvZvU08NeIG7bG+udbSc3ZZQimh9wwJAhYx+IX8f947CTM/MUgq4c4MaqrK/WqU5kxPXwyB+KJ6Vu4+YrS3LWG7j0YZws+FVEVgqGAiyKyFRKYOhzAf9dGAFRYZ3KR0JKnW4BKHcNnOfFZaaK9yokDvYQsE1kbYstlCgXBxJZx545M0W2Z/ch+iKwAqFpd+eB+AgH7A+b2lu6htDnx8UC9yE6J9DuWg5wX3FsJ4Gts1Na4sYfUgpU1htYFKX+/ogUFQYqOOMDGnfUHGGsjJK7uOnrFXwGdqxkfGww/WZPCgJo4lhuc/mdVcEz9+IESOoUSPXrunKNSSsEDASKFDL78qVvD3umxf/pRScf1CIShNGaCbs3UwDnvxQbUOhQXDeFbaersoV7nPhP0MP/k8vDaf73v2Dhv7vG3OwLUummtedXdFuRWfD2wsHKw/WAipZrP+VO1oR7jFUoqjwuzeJVlGgolu4LT5PdNekxYAAOBQDwz4M9niZW+paXhzUUa3+sHCjecTe7A376DYeIAP3FAbRYASqM2KZFlzbKHm3TEfacYUP5f6Hndcb0O/06X291Am/LDUN5AELjFx89NY29H7ue4Gwnj+btdp4SYsUmA4hPuPgISjTiTwICAIrEoNxenCZ4Ic8oU8VCtKcP2sZ4XNRVmu5b9I4glVFavhn7dQp3D9YLTyE3wFtrn4IDsWF0asYzYv+Vp1/jDoN9AtR5YpwGN06mEemtqhZSb1agX1axjAfuCjRT6oF/X1oaNgTKLVG1SOUZWwZDo0AjDh+ggdjQZBOiJmNxbo6ZigF9FejAQNrF6NaXRFfX5OrOzExr0J2JQ4JKwRcIWBzPj982DohIcGVuPItbOmQMCrl7UPJidf2eTm6CEaR4oX6k4f3UGZ6mqPgbjt+N78Y3oKHmD/JQ/5hvZzkPh1LlxpcaRX5RfR0HilnHHHntkQVcMSfjOipBtd8OG3lNVeux317z/WPo3s/m8qjOANU/qH0LAWviaAP7HRy2jX8LMPqbYQHcz0KUe/XS7g4MTrzBFf2lmWiwxiXUD6P3tKGnhw3V1lMxmPOrsO9iTShnDGAxyiwBqEwdF+k8RjSilG9tvruYDVicM4p5mONnzEurONDDHjN5oGvZlgeMm/jy0Cl2Co9f9G1EZlo6Hx5/62qsYERus4KRlqPHz9euTth/YkIgYIgUKCWn7MZwmCX65XUs6cJv8IisFhsudVQ8WJ0ZnGVN9mqdKbf0p6VAMvNVYGVbY8rlIy945bXg3vwiR/mmkc8Wh53ZhuK6WiS9QFYSbkjKa3Fg7ResmNFQWni56z8/s92syVs6xxL5WwrnHH/AH79Ba9aZMCDsTXeeMjhemxsrAozduxYh2ElgBDILwKFUvnlV+ZuZDwYLn8+99WCG5mOG3ltDL+3JRhNuHznYX73LK8r3Fb4G7kfrk577s4bmTZXr61Habp6nqPwcHeiPOfz+4wYgeyKzJkzh/ATEQIFSaBQuj0LEoBcSwgIASEgBDyPwA0d7el5uCXHQkAICAEhUBgIiPIrDKUgaRACQkAICIECJSDKr0Bxy8WEgBAQAkKgMBAQ5VcYSkHSIASEgBAQAgVKwC3Kz10zpztDBjNAdBh4fZ84cyZ+Y5iGHXqTnoS3dvNO5hkmjGH+zfo7zT+gyZ2n0di2+f/d0X+TLjlXCAgBIVDUCbhF+Tkzc/qDH09TM7jHDbjfJYaYDf7RsX/bPAfTJGHm+IIQzEqBH6Qbz0/o7OfYnE1boHdp+v3Qb/TI6qvfP3X2XAknBISAEBACtgm4RfnZvtzVIxWjGqjPJjXubJqS6OoR+2tlK1ZTk9jaCoUJcr/5v/62Dhe5/Zev5PB8dK69N1XkMikJFgJCQAgUMIEb8pJ7TMvOVJInD90w/3eec2+gmrVBf/fTy6sk3f7Mp+oD1SVLeatPlI1/bSSdOLiTnhu/jmd4L6nCvzp1n0K1aMLHtPQP05chXpq8Qx3LycqkNwZfnYsNcQ579UeKbhxLJXj9zPF4NVkuviRTjWeNH/HGBDqw5R/1YexLaak0g+cYxES5kMq1GtGQ/46lEP5kGuQoz0/4tZPKNSgoiMaNG0cZGRk0dOhQdb78EwJCQAgIgRtPwC2Wn6OZ01v2HEoZ6Rdo8cRPlbKq366nmUTvB1+jhnG30r4NS+n754fQ1mUzqHRoeYJS+unl4bRx4Z/KYvzppWGEHxSololvPUTbls8kP+NMEXywy9DHeXqkDrRl6XS+5hgqW6EqDX3R1I/m62eaIR5Kbuqnz1E2K87uw6+6Tfs89AZ5+wbQ9/8dTONfHUHH9ps+koxrrpjytfphffXMHwkz1BulJCtqzA5funRp425ZFwJCQAgIgRtMwC2Wn6OZ06MatmULapOahghKsMXNg2n7ilkKBWZmx4zssPYgB7dc/Sgy5uuDksJ8Bli3lH0bl1p1iUKZpl84T5M/fEKdEsUWYJWYZnlOn/PdG4RZJoJ5YtzOQx41HwsMLsvWYgnKyrhE8dtW0551i8zHMKu8lg1/X1XCel96ejqtWrWKsBQRAkJACAiBwkPALZafveyFR0aTb0BpwswNA5/6mC7zdwCr1WthPsXHP4AO71xn3s6PFUyZdO6kaXokxJewZ7Nyuxrj3suWJiQ58ZiyRvWxGV++RF48mS4G6Lw2bT91vespfcjhEu7Ot99+mz755BOHYSWAEBACQkAIFByBAld+bfvco9yWfoFlqEaD1pSTnUU+fgFUMaqeyjUsrErRDWwSMM0t5to0rJjaqExYBXOcEdVjWOlmm7excoUnxLUmsPTQf/j5Iz0pMeEAdRr8CLtB/a0FvWYf3J6DBg2i3r17X3NMdggBISAEhMCNI1Dgyq9Oq67s1kyg9++NNf3uaauUYdve9yoKh7avpTC2DvGuHgaq4F266CbtzYT2rl/MlhnP7N3n3musN3MgixW4KwODy1GL7ndQ9fqt1E9PlGsR9JrNLkMeo+CwinQyfjcd27tVKUk9OOeawBY7MOAFs8Pfd999FkdkUwgIASEgBG4kAbf0+dnKECwm9Kmtnf2LOQgGmKCPr3aLTmrfpPf+Qw98NI1uvvc59YOl99s7D5vDnz6yj44f2KHeqcN7dcunfENzv3+T+j/2PjXvfrs53JuzDqv1d4e1pplfv8IjPdtRv8feU/uyMtJp0ruPqHU9S7Uthdaq1110011PKgUNF+2qGT9SdqZzk3zquM2JkhUhIASEgBAoFAQK7ZRG/jxis3zVWnQifle+zcgeworXNyCITvEs765IaEQkBZQpS8f2bXXltH8ddkzrsVQ1sCqdyzhLI/4Z9q/jkwiEgBAQAkLARKDQKj8pICEgBISAEBAC7iJQ4H1+7sqIxCsEhIAQEAJCwFkCovycJSXhhIAQEAJCoNgQEOVXbIpSMiIEhIAQEALOEsh35RcZafoGprMJkHBCQAgIASEgBAqaQL4rv4LOgFxPCAgBISAEhICrBET5uUpMwgsBISAEhECRJ1DolF/7utWoaniwAtuyZmWqValckYd8vRmoWaEsNaoWcb2nF8h5NSJCqW/ruupXr0p4gVzT3kWqhJWhDvWqqSDhZQKpY/3q5FOqpL1T5JgQEAIeSKBAv/DiDN/R3ZvTku2H6IeFG2kUr8efOkdv/7ncmVOLTJhAPx/68v5b6Ys5a2nN3gSb6e7ZrBZVCA2irYdP2QxjeQAV/ct3dKZPZ62mU8kXzIcHxtanPi1jzNtYybl8he797K88+1zdCAn0o5oVy1LdymG0MT6Idh5NdDWKfA3fpWEU3dQoipbtPEzNoivS0A6NaFdCIp0+n5av15HIhIAQKNoECp3yK9o4nUu9s5/lHr90C5Uq6ZpxjvCwfgL9vPMkBteEsnthwgLz/su8/W9l08EThN/bd3X9t1HJ+UJACAiBAiNQpJTfs/3ak493SapSLph8ebntyGn6ePoqrtQvk593KXq4VytqUDWCpyAideyTGasoO+eygtmbrZ4W0ZXoFFsAcKdCPp6xkrYeOkWta0fSHe0aUFiZABX+95U7aO7GfSpMNLseH+/dhoID/OhSVjZNWLqVlu44pI49dVssf/OTqEZECJXx96UNB07Q57PX0GXsZPH38aYxI3tSemYWPfb9HLXPmX9wdz51WzsVdM/xJEI+tHjzTBFP9GlLMewO9mYr71zaJXqC48Y1X7/zJooICVRBXxjQgXJ4HxTTl3OvThF1/Gyqjsq8RD5qlA+lIH8f2n0siXD98xcz6LXfl1Ayxz+WrdQjiecphq07fK90xvo99NfqXebzba148QfIYcm3qhVJJblQ4k8l0/vT/qG0S5lqfxi7Jd+avMx8+vvDu9OKXUdo2trdVCGktMonlijDWRv20pTcazoqa3OEsiIEhIAQsEGg0Cm/v9bsot0JSSq5f67aSUkpF81JLxvkTxXZDTh93R7KYEU0sG09VlyVaeXuo/Rgj5ZULzKcfl6ymWDRDO/cRLm/5m3ar84vE+DLSiqU4KZDGG+2kFhnKrm3S1PlrvuAK+bKZcsopYIDsJagcKG8Ppu1hro1iaaRXZvRDla6SakXqWzpAGVloVK+mJFJd3VsTNHsAtx3/IyK14srfD+fUub41E4n/iWcSaGPWDFDIaPfyii3ta5DdTmf709dQanpGRRXrzrPcsEhWN9+OXetyt9z/eM4j1voSNJ5SmUlpgUK6BV2iWrBcbiXkY/USxm0Zl8CdWscTd8v2EhDOzai2JgqNJsbAaXZTVuL8/Xjok3cuChP/biPD1wvZmTpqKwuuzaOotg6VWkOx5GYkkZ3xjWi0d2ac6NjlWooPHZrG762P529kK7yFMGKbt3+Y9x4KUEv3dGJLmVm05iZqwkNEPQrLt95RMVjr6xXsxsZXCA7j55W90pK7rbVRMpOISAEPJKAaz61AkAEiwJ9NBBUsBsOHM9z1XNcUU5my2wGK8CT3KfVnK05SJMaFdS2P1uAgb7eqpJE34+lvMX9h4u3xdPfmw/Q9iOnVEXry+dAgcAiQeW7cvcRdVoVHngD5fXr8m1qv7bA2sRcfZcRfUlTWWEjPlTWjatfnTcwMytHXWveJpMVaZkWW9uwMKFAz7PVZSmwarUcO5NKvy7bqtyZ2Aer7tDpZHX46Jnzqr8UStoop85fYOvX9EtihaRl19EkWr/fxBqWbeL5ixTKikkLuGD/WO6nhPXXLMrEXR+3toyN4Y9ycx4mMr8FWw7S5viTSnki7EYu18zsHOrB/ZqQHk1rqoYO8gALEwoXVigsP5QLwqIPFGKvrPfwOdpCPJqUou4VlIuIEBACQsBIoNBZfsbEWVs/ZnDbwXKpXbEcuyR91Rx/gb4+ysWG89IzssmyxY9K0DgIBOHgLpywbAsNbt+QPht1i6qsUcGjEg0LCkAQsyUHSweVsNEaO8pp0HKBK2m4P7Vk8RRI49hayk+Zyw0CKFhYd1BCq/Ycpa/mrXfqEujzM7pAjSdlsxmcxXnT0zDBlWwcJXmQBx5B4NBNTc9kJRbOLsrDap+tf7C2j7EVq+XAybPUoqZJaSIeWOxxPLp30ort1Ijz9Ac3aiCVygaZlmzlV+IfJIEVWRpb186WtTpJ/gkBISAEbBAocsovnPvltEQEl1bWDipjyEbu34JL05ZkZFu3AGCV4Ad34sM9WynX5jM//U3JF02WV5WwYOWagzLAD/1gWnT/nt42LuFmjONh91CYqOjzQ1LYjfnChIU8oMWHbmlem25tUZuWcz8ZXLEQ1odKSnq5aNTrE02nX/Mf7mAtuHZ8roWp92Vxvxz64oySxo2F8sFX3baR5cqY+2ARbib3HXZqUJ2GdWqs+mkXbTuoTteu7gls1e47YXIh63jhEoU4Kmsd3toyLi6OypUrRytWrKCkJJOL3Vo42ScEhEDxJeBiDXnjQaAyhdurDrvGoJQ2HDyurLfDPCCjLfdRQYFBMGgD/U2OBMoM/VwYJbn/xFnlekN/IuRoYopyKfblfjb0Fd7RvoHav/nQSbV09M+PB7yMuKkZjerWwmpQKG+806h/sGocCSwnjOaEK3BT/AkV3J9ds1rQPwm3aecGNZQyMnhJlYLR19JLfZ6jZctalVV/683snoRSX7fvWJ5TtvHrGDGVTGUSwG5nCPahsQLXdLXwEGoaVZGMljJcxnBdd25YQ7k4tXsSbm8McsFrCugHxPVQtrXYykdj43rLWid41KhRNGLECGrUqJHeJUshIAQ8jMDVWrOIZPwiuzOf7BOrUov+P21RjeFBFM8P7ED/HRBnzgn6DHX/nXmnxQpGTN7JlezdbH1A0i5l8SAL0+hKuC2/m79BjUz89L5e6jgsRLx7aBI2s3ItrdwdvHl1h3Yh6mN6qUMMjK1H+GlZxn1q3/Fgk9fv7KKUhd7/82P9CS7Vh76eyS+9V6BOt1Q3uye3s4LRfXU6/OwN++i2VnWofd2qSqlgRCWuWYKtpjd4RKhRRn4+zbyp04UdSLvRqsX2u8O6qbDou8MgFaMs2HpQ9ee9OfQmpXxHj52u+kKbRlUgDGyBwG1s6aIFz7t4cA0GxWiBpYz+1Uf5PIwAhcBl+xm/uwi53rJWJ/M/X19TIyMx0dS3rPfLUggIAc8hkO+T2eLD1gkJCW4hiMoXAzrQj4ZXDyz773BRDJQILY1jacrd6ExCYB2Fs0WJCvaMxQARnA/LAy+bJ7Klgor5RgteocBrGRgcgr45dwuUL17IRz8oFCJcr64ILFoMKrL2ojlGz+JVEyhLa4J8wio/zeVpVMYIez1lHRwcTOPHj1fuTlh/IkJACHgmgSJn+aGY4B67lHn16yXGooOFhJ8rAovHWsWs44BSNA7c0Ptv1BKuTaP7sKDSYezrdOWaeGeQKK/CrMz9f3gdBe5rPdDFWpy6/8/asesp69hYk9dg7Nix1qKUfUJACHgIgSKl/PCKwpnUvO42DymnG5pNcMe7h/kpsFhPc38fPmXnyDWdn9edM2cO4SciBISAZxMoUm5Pzy4qyb0QEAJCQAjkF4EiN9ozvzIu8QgBISAEhIDnEhDl57llLzkXAkJACHgsAVF+Hlv0knEhIASEgOcSEOXnuWUvORcCQkAIeCyBQqf8ZCb3/LsX8YHoZvxVFXeKzOTuTroStxAQAu4iUOhedfCEmdzxyTN80xKCj0nv4RkcfluxTc2Zp3bm07/uPAUTZkXAdzBlJverM1jkE16JRggIgSJMoNApvyLM0qWk40sx/x2/gOeqC6V7eD7B+7o2p5cmLnIpDlcC4ys2eFlfZnJ3hZqEFQJCoLgSKFLKrzjN5I5PdWGCV/yi+CPcmM8Os7Tje6L2ZjHHh6UH8CS+mEEBViMmb8X3R/GVGpyPWdnrRobxZL85akon/ZFufQPLTO6ahCyFgBDwZAKFrs8PM7ljjjoIZnLHJLFaMJM7vuz/95YDNJmPNeRZxTGTO8Q4u/cPCzepWd2Nk9nqmdxjKpVT0x5NXL41z0zu+Gboc+Pnq/nu9LcrYS1B4WJmeMzkjjD4FqWe5w8zoGOGiYVb43lOwK1qrjrM5K5Fz+Rehr9Dakvw3UvEgdnHofj0LOZQZJjFHPP3YRZzPYcgPk6N+e9gwf3GS0yZ1CV30l58yBqKb9I/OwjTAxmnE8L18Y1SzOSuf3C/QvRM7vg4NWbFwCzwpf191EzuOG6cyR2TC2Mmdz1zA47bEj2T+3wur/FLt6jZKzCTO2TDgRPq02aYyR2C61rO5G6Lgb2yRmMAkwtDZCZ3hUH+CQEhYIVA4VN+HjKTOyy3cY/0UxPoYgLcD6atVMXjaBbzuTz7wfKdh3nC1zJqbkFYf9XLh6hzW/J0R0d40tfZG/YqxQiFail6FncsZSZ3SzqyLQSEgKcQKFJuTxRKcZnJHfPVfTZ7jZoGCPMJYqJXTJVkbxZz5H8wzynYs1kt5dI8k5JOXjxpLWZMgFSPCCVMN6QFrAJz59bDPvT5yUzumo4shYAQ8GQCRU75FZeZ3LP5w86beBQmfnD3YYYDzE2oZzGwNos53JZQfDPW76XJK3coF+n3/+lLesJa9OdFhFydOb18mUBKy3Byhgvug7QnxWkmd3v5lGNCQAh4BoFC5/Z0hL04zeSu8/oj91FiRvlbmtcmu7OYs+WWxRYj3KQIPziuoerH0/HglYYa5UOpFvdr4v0+9JEahXWnedZ4T57J3chE1oWAEPBMAkXO8isOM7lb3mpJPIHuzqOJ1KdVDE1ft9vmLOawzaat3U3929RT7wliXkPMaadtNswE37NZTXpxUEd1CcxKrwVhZCZ3TUOWQkAIeDqBIjWlkafN5G5rFvOS3M+HY9ZmsscNDTfquQvp+TbrfHGayd3TH3jJvxAQAiYCRc7yQ7I9ZSZ33f9nebNiIlhbig9h7R2zjMuV7eIwk7sr+ZWwQkAIFF8CRUr5yUzuN+ZGLE4zud8YgnJVISAEChuBIuX2LGzwJD1CQAgIASFQNAkUudGeRROzpFoICAEhIAQKE4F8V34JCQmFKX+SFiEgBISAEBAC1xDId+V3zRVkhxAQAkJACAiBQkZAlF8hKxBJjhAQAkJACLifgNtGe45pPZYqB1Sm+NSD9PT6J9yfE7mCEBACQkAICAEnCbjN8nty7SM08eAvFOhd2smkSDAhIASEgBAQAgVDwG3KL+dKDuEnIgSEgBAQAkKgsBFwm/IrbBmV9AgBISAEhIAQ0ARE+WkSshQCQkAICAGPISDKz2OKWjIqBISAEBACmoAoP01ClkJACAgBIeAxBNz2qoMjgnFxcVSuXDlasWIFJSUlOQoux4WAEBACQkAI5BuBG6b8Ro0aRSEhIZSSkkKLFi3KtwxJREJACAgBISAEHBG4YW5PX19flbbExERHaZTjQkAICAEhIATylYDbLL9vYsdRuF84Hb947JoEBwcHk7+/v3J3btu27ZrjskMICAEhIASEgDsJuE35jV55r810x8bGqmNjx461GUYOCAEhIASEgBBwF4F8n8zWXQmVeIWAEBACQkAI5BeBG9bnl18ZkHiEgBAQAkJACLhKQJSfq8QkvBAQAkJACBR5AqL8inwRSgaEgBAQAkLAVQKi/FwlJuGFgBAQAkKgyBMQ5Vfki1AyIASEgBAQAq4ScIvyq1qnGcUNuF+lpXzVWtRx0EPk4x/oatqKbfgy5SooJsFhFcnb11+tR1SLybf8NgxtTJM7T1O/9hFx+RavRCQEhIAQKC4E3PKeX/v+o6l+u560/M+vqUnnftTx9odp99qFdOrwHrrrxW+pbpvuil9OdjadOrSbZn7zCh3esa64MHWYj2r1W1L3e56llDMnKWHvFrXuHxRCc394y+G5zgTw9vJWwQYvHUA5l2VCYWeYSRghIAQ8i4BbLD+7CEuUoJzsLBrzYFea/d1rFF4lmgY8/oHdU+Tg9RHIvpxNV/hPRAgIASEgBPIScIvll/cS125duXKFTh/Zp35VY5pR4859lfsvKyOdKkbVo2GvjKOgshF0OSeHNsyfRNM+f15FAhfh6PcmU0T1OlSyVClKv3Ce3hrSlC6zdQNX4n3vTKKyFavRFd7eu2Ep/fLafXTlymVlWTVgS/SjUZ1UPP0efZcq12pEnz/SU21HN2lPw17+gVZO/4FibxvJcXvTpoWT6c+P/4+8vErS7c98SvXa3qz2Z6an0fjXRtLBravILzCI7nl9PEXWbszxlKBj+7bSt88OouzMDBXv7f83huq27U4+fgFq3y+vj6J9G5eqY47+Pfvss9SyZUuaOnUq/fLLL46Cy3EhIASEgBBwgYBblN9GVhxpKWdVMnavWUCBIWHKxWeZrpDwShTVOJYy0i8QFB8UDZRbVlYGTfnkaapevxW16jmUVk0fpxTlrQ+8ShWj69HEtx+i1DOnqM2tw6mEVwmiy0R3v/Q9hZSPpIW/fEjlq9WmRh36sLv1IVoy6XNWpOWpdGi4+fLYxk+LL/dHlvLxVYpv8+K/lBILDqugDvd+8DVqGHcrIR//TPueGne8jeMynTv8tZ+pUnRDvuZHSlF3vfsp6jLkMfr7p/eoZrMOSqkv/u1T2rXqb6oXezNbvJkqzuP7t9H6vycpl2fqudNqfdfqv3Vy1LJs2bLk4+NDoaGhefbLhhAQAkJACPx7Am5RflAU+EGO7N6ofsaklvL2oTdmxlOJEl5K6f38iuk7oHVad1UDYw7tXEcYKHMx9Zxykd409ElWeA9yeFZ0uYK+st8/eExvUoUadSh+22pa/Ntnal9Myy7UqGMfpfzMgRysrJrxI839/s08oRp36kvJp48paw8HDm5ZaT5eJaapOuYbEKT2XUhOomZdBynlZw7EK0nH42n+z1ddu2eOH6K/xjxjDmJc1zuXLFlCycnJtHbtWr1LlkJACAgBIZBPBNyi/Byl7XJONlf+z1JMqy7UoP0tVKlmQ+VGrMDuTEjZClXVD+vnTh1l92YyVpWFFdUolu58/it2Z16h/ZuW048v3q2UqFfJUnmU7LlTCRQYXE6d5+y/dXMmXBPUxz+AB+uYFLnxIKxWKGNYjXXbdFOHMi9dpPTU82p9/8ZlSlF2Hvwo4Zd07CCndZjKjzEeW+tz5swh/ESEgBAQAkIg/wncGOV3+TLBNYrfgx9Pp+7Dn6HVbHWdPXlE5XDW169yn92Sa3J7PukEfTCiHZVmN+rN9z6nrCwoz+0rZqm+Pa08cWIw9wFq12vWpXTur/Mxx4d+QWuSwq5US8nKuMSuzQaWu9mNawqLvj9Ypdbk++eHEKzcNr2HU48Rz/Pvv8play2s5b6mTZtSzZo1adOmTbR//37Lw7ItBISAEBAC/4JAwY/2tEjs5A+fUANJeox8gXatmc99Z9l0y/0vsxuzLu8vRW373Eu1m3dSZ7XsMYTwDiHci1B4EP/SZdQy+fRxwsAVHG99y92EVwegmCBwwUIJwa0Kd2hY5RpqvzP/Dm1fS2GR0dRh4IOqT7Jhh97qOhhkA6u0dotOajAM4qrVrKPqN8R6jYZtqGmX/pSdlUlblkxTfYKuvOs4ePBguvvuu6lnT9OgHMQpIgSEgBAQAvlDoOAtP3ZXGiUx4QCdOLhTDWyZ+dXL9MeHT9LAJz+kRz6fq4JhtOaUT0z9Y1BcfR95R7k8cfAYDxxZN3eiCvf7e4/QyLd/o/s//EttQzHN/vZ1tb6PXZDnE4+rQTFwl6adP6P2W/7DtSxl0nv/oQc+mqYsTVibOP+3dx5WwX56aTjd9+4fNPR/35hP27JkqloPr1KTbnv4TRr41Mdq+0LyGeXqNQd0cgXXExECQkAICIH8JVBo5/PDgBdYayfjd6tXGXS2A4JC1buBeK0AVpWlwGJMT00muEgtJZwtOChFa+dZhrXc9i8drAbhnIjfRXjdwSgYORrKI01P8kv8xmMYQVqxRj06c+IwXcwd/Wo8z13rTcs1p5cav6qi/2Tnh7T05GJ3XUriFQJCQAgUSQKFVvkVSZqSaCEgBISAECgSBG54n1+RoCSJFAJCQAgIgWJFQJRfsSpOyYwQEAJCQAg4Q0CUnzOUJIwQEAJCQAgUKwL5rvwiIyOLFSDJjBAQAkJACBQ/Avmu/IofIsmREBACQkAIFDcCovyKW4lKfoSAEBACQsAhgUKn/NrXrUZVw4NVwlvWrEy1Krn2fU6HOXZDgDIBvuRdsuR1xVwuKIDKlvZ3+dxSJb2oUtkg8inl2nURPsDXNNmtyxe1c0JIoJ/LabETXZ5DJXnmjl7NalFpv6ufqMsTwMYGuHZrHE2xdaraCOH8btyLfVvXVb/ywYHOn2gnJPKDfCF/Iu4h4MXf372pURQFunjv/JvU4JnuWL/6v4lCzrUg4A69UPBfeLHIlOXm6O7Nacn2Q/TDwo00itfjT52jt/9cbhmswLa/e/i2PJX6yeQL9MxPpumHqpcPocdvbUtlg/zVl1/iTyXTa78vocv8VRY8dF0bR6nKEpXcSxMX0aHTpg90I/F1I8PpqdtizXFvjj9JH003zRhRIbQ0De3QiBpVi+D8J9Mrk66+pI6K8jG+ZpMapimXENdT4+ZRYkoa9eCK9M64hthllnf/WkE7jpxW2w/3akWta5n6ZI+dTaFXJy2hS5nZNLp7C2pf91oFgXwiv1ra1I6kh3q2oo0HT9AnM0yfjoupHEYjuzajCiGlVbA1+xLoi9mmmSgcpUfH62jpzQp7MOdr7/EztP+kaaosR+e0jalCD/ZoqdJ/ODGZVu4+4ugUu8crhgZRzYplVZmcPp9G+BmlXpVw6sfK8c3Jy4y77a4jTuRr0fZ4yuFyEMl/AmjsDe/chI4knad9fP/kh9zaojaFBPrTL0u3WI2uDj8TI25qSkt3HLJ6XHaaCDzbrz2VKxNgrk/tcXGHXih0ys8egBt1bN6m/bSYKygIlIWWkV2bk3cpL3r4m1nKenv9zi7UsUF1Wrwtnro1iVaKaN+Js1SbrVfjdEyw2p7u205V5F/MXqOiq1zO9I1SbLw2pAtdvJRFFzOyqWTJvFZBvzb1qHH1CPps1hqCwoTyScswfekGZnxWdg69yIpWS+L5i2q1Va3KSvGNmblaKerHe7dVCvb7BRvp12Vbaeb6PfoUVVlUCw/Jo/j8vEvRfd2amz8tpwND2eITbI9+N5vTVUEpwpVRR2kTK0h76dHnu2vZoV412n0sid5yQRnZS8v0dbuJ1hH99Gg/q8HCuLVfs2Lh91JYTXwx3pmRlU0v/rqIjp9NzbdcRlcoS2FlbFv/Gw4ep//9erWhm28XLkYRwStTv2p5+jy3/tNZQz3TmhvZBdFwKFLKDxV2Ire4J3BlDXl+YAfadTSR/lqzi+wdQ9jeLWOoRXQlOsXnw4UF+XjGStp66JRaf/3OmyiC3VmvsuV27EyK2qf/JaddolPJaZTDs1EYJYgtugQOm5qeoX5QPNVZaUA2HDhOy3ce5ockgN7guI3Sjt1wsOBg6eGcnMtX6PzFRHMQVNiwEl+5o/M1yu+mhlG0jONdv/+YCr/9iCn9+mR8CRRWSXZO3rR2blCDzl1IV+mCKxACDlB+Fy5lqh/2IV21uBJfuO0gNs0C6+4gW+ERuRYeDsDVC+t34ortBEa4YYd2bERQPFB+EFvpUQf5ny3uTaMq0oM3tyRf75JKienwWOIBgRXboGoEW9hE29iyhSWKPMON2LdNXfLNdQd/81AfVXYv/rpQudAfu6UNwU0N5oeZ8QfT/lF5rxIWTC/w/QQlnsllAkvukV5t6MGvZxgvfc26n08p+nRkL0KDBuxwPciEpVvND7C/jzeNGdmT0jOz6LHvr52malinJgRLNYXvo+8XbDDfk4jni9G30IKtB6lLwxoUHOCnPCEv/3bVE4AwloKuAlv5RMX9bP/2tJ8bZfU5jxlZOfQpN6RwH9k7pq+BtMJLMHnVTvp78369m4L8fVWDrhp3WYAtLG3cWyh/iL3n7/Z29alns9qqEbU7IZHd+WXo8R9MnFDOzaMqKb5oeP66fKvyDCFOeE7w6dsaESFUhq+/4cAJVZnC8wJ5hhuYNSLKqvW3pyyjI4mm6cawAxXsHe0aqOcT983vK3fQ3I37VFhb12xRs5LykhjvLZzw/PgFlJRqamSivLx4ntLM7Ow8ZQ1PEKyXVux5wX0Cj877fO+l8bOHbp7/DexI6/iZhove2n1gizusJx9+RqqUC1bPCp6Fj6evMtdVA2PrU4+mNZWHCV6c99gTlJRiSmtUhVB6rl8cTeH6s3/uMzNrwz76/Z/tqkvlwR6tqGqYqVG+iRva2ttjr6wdlYkCzP/uaN9APXdr95nqMTw/KAc8m8M6NTY/O3q/Pi8/l4VO+UGR7U5IUnn8kx8wXVDYEc6tLaMCQms7NLe/zN4xnAuoNSJC2V3hRz8v2cwVtxd/MxRHTIK4UJFZ60NDQeGXxtbYl3PX0tbDJoUzg62luzo2VtYOzkdB/b3lgIrQmG59Db2MZCsvnR/k19nCgzI5mpRCE5dvUxUQwhjdo/ocvQzwLaVcjD880o/Tf5n+2X1UuV9QYUOQ/h/+01dVJEjnJzNWK2ZwL+DmR3/fELbWDp48pyoNHa9etqldReVjDj8EWqAMW7CifGrcXHp5cGe9m29Wk+IONPQhQiEa+zBtpUdHYov76G4t2JV7kaby/XAXPwxGgTuzHruNUY6XuaKFWwv9OrDQl+86QrvY4nuY3bNQ9r8yV22tIy3Ldh4iPHDol0E899/cgj6ctlIpVLDxgjZlgYIN9HPcN5rB5fj2lOXUnBtWvdkdpl30Rrco4sS9BfetNYFnAC3gwbjP2jXMo/zgMu/bqg6t3pugfnCpORJ7+URjAnmrxC7Xz9k9PTC2Hj3ADP7z7SxVedo6pq8JFz/ygufJKGBZmfugf1y8WVWcNzepqTwb6MKA2Hr+8Dze2iKGVu05yvf/abq3S1OlHNRJ/O9iRhaN5WcOHoxezWuxO7EZbTt8ms6wsilbOoCqcOU8ZfUuDpepnsVodk1r9+YELvtQdk8+068d5y1vVYfr7OSGMxo/lVnZGsvG1jV3HElU5YsuCaT7izkm9/45bvhpgeJpFl2RbmleW+9SS3SBQLHNYQWLLoo74xrRaPakfMyNNl+evQZM4cWxdR/Y4o79cJ9PX7eHGzLZNLBtPVbslbnxcZQ6sReqDzf6Z67fy10GSXRP56Y0kvmhKwSirwvF9/fmA9w4SFbuXBy7k/OI5xoNLdxPdSqHY7cSe2XtqEwQAZ4zdKFMWLbNFCH/R+NwB5eH9kChX/0Rbqgmp6Wr59OeXjBH4uJK3jvCxZPdEfwvvpG1oDLLb3mL+w9PGfqxdPxzNu5VFeLZ3Bac3j997W7aw30FGFwygF2OqCzh5oTAlQJlDEsHbs19J84oC0ifa2sZzA8ObgD0RY1btImVUSPuS2tJD30909Ypaj+UK66DyvI7blXjpkQr6QD3g8HqQn8YWtvIXxynCb/YOlWUBerPD9cJrqgfYGsq/vQ5Wr0ngdDyQ1WvW+e4CCqYE+dS6SwrDgharI/e2prms1LX+9QB/ofz9rCi6dooWlnLsNbQqvXnvEHspUcF4H/WuEN5QvG8P22FUtLIJ7hrQX8nLG7/3AoNlYlWftoKR0WAFjT6jLWg7xOegjqRYaoBAeWIiu/fCBjgGlW4QcN6OM/1dLyZbF3BFQ7Lz5qMX7KFthw6yQ05P3ZF51X0CI/778u57HNlgUWNhh7KyZrAInMmn7CgYGnA6v/vgLg8A0KsHYOFAoFFd54r++25DUCdBihlxId8QmLZkoWHQys/Hc7y+evO3QOwFHX+0M8NF72WcQs3KUXTtEZF83MLSwnKD4JGBhpIkIFt6yvXu1Z+8OCcybVyVIDcf7inoQx5oSwvpNsotq4J9ihr3GM433hv6fNxzxu9I3p/bExVgpJEIxdSL7K86r7Qx7G0dx/Y4o7zcB9PZssVAqscDTEov57sBUHD7wKnF42dA6fOKu8XnifdWMY5U9fsptkb9mLVLPAyQLLYGkNjHP3tWhyVtb0yQRwYOIZ4F241GQrYByU7ihsDrw7uouqQd+7uxg3Zw8qDguPu0AuFTvkho+4S3AjWFB+uh5aTNdH7UcnjJnuyT6xy9eGGQIsZD9hrvy9VygytF7TeoYDsCR4eyFfz1qs4J3JF9Fz/OFUhGweYWMahXZlo+cKlCkHl0Y5veCg/3KD6JkV/FwbVwMWJsLA0a1cKUy3MJ9il1KFedWUdovLWAisa7r+fuPWuBYNW4FLaz4q9GSs3uHxgNdVk9xkedLT0YUnez0oVygaKExUqxF56dPyar97GsgH3BUAOsWsIAuWuJZgtDjQAAn19lAsJ+9O5bxTXdiSoWOGWgasPnEv7+VI2z8vobsliCxmNHFuCRhPkbCpPupxreRrDrt9/3Lip7jVbFiDKJ9qJfMLtCdFs4QLV5WbtmHZPYanXdaLQgELDTMeF/ce4YRjKjTyjWHv+cI9CmWrBc2VUfujaiOHGHipUeF4g2u2I9aM8kEUL0o971ZHALTph2RZ+VhvSZ6NuUUppLFtxeMYhjq7pKH5rx2H5GrtTwApuVKPYuw+scdfngrUWDOypndv3rBQYFw5crVrgbkXD26j8VrPVbSnj2asC78nbd3VVYSdx1wYawM6Utb0ywX3Slb00sIDR6NECTxnqMHiZiK+COhINJ2M6ddj8WhYp5Yf+sQDuP9EC14MWe8d0mAz2w9sStJaC/H3Ugw23hzXRDx9GNsJVCWWxmAsI1h8KCzdh/Sqmitva+Xof3HkQWCemZa7Lkl1SjgQ3gz4PYTOzL5OPjdcsoPBwo0PQAka6J6/cqazTauWD1YAadTD3H6wJDF5ZtsOkWLEb50Pp3s8jQiFwD6EfYEiHhvQ6K300JnRfAI5/9UBvswLGtlGM6dH7rXHHICEIRr3CujYOBkpNNylWjDiF29MVgfsUlQMGQEDeHHqT2X13KbcsSrNSRSWNRoA1wfMK16Gl4DG2ordUMCg0WOEoO7TILUX3UVnu19u6saS34TH47y8L9OY1y+fYkrOVTx0YrndY8pot+nP1KxzWjunz0C8IVyMaNnoQCfKOiiyS+520oP/83IWrSg37rT1/sGqbsFWnBXFrgTsPSh6jneGmR4PrpTs6qcaPDuOInQ5nuVyw5SDhB+WLSh592hjd7Mw10aUI69EVSeM6RfPFeWCsG7M6Hnt5scZdnxfOXRpaIoJNzwy20RhAnMbR4jqccamfKeM+lC/6p1FnjGA2d3FfPpQRGnKOytpePuAOR+N1hoWx8ebQrtyo9qffWMnewX3AC7mf+6XbO9EiHnsAi9gdggF5RUZ2H0sk+PRhecDiQStCi71jOoy95X1dm6v+BKPLAq5O/Y4Q+gvv4X4CKAdYVVB4sHLg8oQShAsRNzT6LbTgQYa7AYKlfrD1sHuMlFR9Oq3rqApXd8ijlYjK15/79+BewTo6mSFwjzVmtx8GmsD9CUX0T+4wfjDBfigsrON6aK1BlnCrCnIyOVV18sONtOFAXndPR7YGYVXiBtcCd8rIL6aZf3DdoPMbig+CfIMTron+GCzRxwCxlx4VgP9Z4w6uUBRwY6GB05v7hLTgwTrMAxcwQLBx43UAAAigSURBVAQVFwSVojPv8sHCgMsHPwx4QHlpSWCliLLFKF0MUsIAIWsCdyuOocwRj5ZdPFADDzXSZWm9+XGDDWxGcT9mQYi9fOrr38b3HNiivwfK3thHbe8YBq4gL5a8j/OrMxhAhXsOlhv4bD18Ul/O5nIt92WCF/rOYZmjb1mL1i+wYJBWDKbKD0G5wSOC+gNWLvKuG5TOXHMP959V5IYZGg7OKsFt7CaGkkJjDyOp0UVgtJAc5csWd5wHpYquADQUUFdgtClkDbOF8sI7cmCM/nXLvkgV0Mo/1Huoh9C4hRsZCg9/kOstazQXkA/Uf7qxqSLkf5NWbFPdSZvjT6hd8Ag9/v1sc92mw+XnskhZfhjM0LF+Dfp4RA/1wOKh1QVi75gzwHQ8xrBwoWAwBX4Q3AA/cB8ERjZCxi/ZyhVaM9VZi4rzCFuDk1eZfO84jtaMFt1nNWzMFEq5mEF/sFIZxCOxOtSvrlpoxneGsN/4kiwsFLS68O7jz+xmxKsQ+GlFvIK5QHCToxLRgodr0dZ4tYlKBv0B/+nVWm3jgcdgEC0YOYlO99nc92lXOJ9GacjnDeBOdgjSA5epdi3bS4+Owxp3HMMgBriQ4RoyDijAsTE8SACuKfRVaUH/sG5U6H2WSwygepLdnnh3E2nVA4AQDrnCKFr0k+CH9yCJ/HEoj/zGDykGKqgOem7o6MED4Im+NgwGwA8tWN2PgmtZE/N+64fNp5jDmffYX7GXT30mKsxP7+ulNo33HnbYO6bPZ4DmVax8NW8dvTiok/meRwNlxjoH9xKfB+tTvRrEA0K68Q/WpG6AYh2jsZ/gUd4QxAm5yoPTkDcZ5voAltLLbCVqeXFQR7WKZ2gdu5ExoOPu3IFU8OiMmblKHXd8TfR7HlXP2lv8XKLB8zRbjLjn8dyictfy82P91SrGCKBfsmlUBX5Ht43aB+8Suj0g5vxY5EUdtPxnwR2H8UoUumMg6JrR3oUpq3cqRYtRpvhBwHCWRf+etWfwZh4hinoPaYOFiri0pWq/rG2XSTuun9A4Rt1nKXoQIRohuuvmPNeT+LlL8n0yW3zYOiEhwV3pVfHi4dAVrOWF7B2zDOvMNkYvhgcHqGcd17Rm0qNVipvZVf90SS8vZWXYyou99GFQCNyIloMosB8DahCnNfctvnSBEX16wIC9azh7DPlHvMfZKrJ8fh2lx941kE6dF2vhYDVjkAheQ3GFPdypp/kca2UJCxtWvTV21tJQmPdZyyde4UD/8r2fTVWWCJSPZmfvmLP5xPOHexINPFcEFhQq2of41QZYKPgAgxbcW6XYcsnPihBWSDg3ANCgtfYsuOOayA/6rOHNMY4G1vm8nuW7w7qpASnoU4aFbK0ugaWLckFZ64FLzlwLzzWUlXZvW57jall/MqInHT1zXo3etIzrRmwXKctPA7JWwM4c02FcWcIFaKvwdTzaEtTbzi5RydrLi714cCNbE+y3dQzhcfO78gBYu4blPuTfFgNH6bGMy7gN18glVuK2BH0aepCGrTDW9p88ZztOy/41a+cXlX328ok82BtcZe+Yvfxfz/38/vDu6h08KJy6PBLXcsBYft+vSD8aafYUkDuuieuaFLhrDQOc50jgBbuUaf2+RuPGFRervpa95xphXC1rfP2oMD1fRVL56cKRpRAQAq4RQIWP0b94R9RS7B2zDJuf27P5ndJ6VcPV6yvf8Uv+xv7H/LxOcYwLLuMzPEq4KAheSSpMUiTdnoUJoKRFCAgBISAEih6Bq8Mli17aJcVCQAgIASEgBK6LQL4rP3cPdrmuXMpJQkAICAEhIAQMBPJd+RnillUhIASEgBAQAoWSgCi/QlkskighIASEgBBwJwG3jfYc03osVQ6oTPGpB+np9U+4Mw8StxAQAkJACAgBlwi4zfJ7cu0jNPHgLxToXdqlBElgISAEhIAQEALuJuA25ZdzhT+Ayj8RISAEhIAQEAKFjYDblF9hy6ikRwgIASEgBISAJiDKT5OQpRAQAkJACHgMAVF+HlPUklEhIASEgBDQBET5aRKyFAJCQAgIAY8hIMrPY4paMioEhIAQEAKagCg/TUKWQkAICAEh4DEERPl5TFFLRoWAEBACQkATcNsXXr6JHUfhfuF0/OIxfS1ZCgEhIASEgBAoFATyfT6/QpErSYQQEAJCQAgIATsExO1pB44cEgJCQAgIgeJJQJRf8SxXyZUQEAJCQAjYISDKzw4cOSQEhIAQEALFk4BN5SczshfPApdcCQEhIASEAJFN5SdwhIAQEAJCQAgUVwJ2lZ+fb3HNtuRLCAgBISAEPJmA3ff8FkwsQWGhRAePEPUafsWTOUnehYAQEAJCoBgRsGv5te9/hd76/ApFVSWKiSpGuZasCAEhIASEgEcTsKv8QGbeUhOf8mEezUkyLwSEgBAQAsWIgEPll5Vtyq30/xWjUpesCAEhIAQ8nIBD5Xc2mSgri2hAzxLkVcLDaUn2hYAQEAJCoFgQcKj8kMv/fXCFYlsQbZtfgkYNKRb5lkwIASEgBISABxOwO9pTc3n6/hJ0KYPo4++u0IIVeq8shYAQEAJCQAgUTQIOlV/pAKKwskSvf3qFJk4rmpmUVAsBISAEhIAQMBJw6PYMZOUHOSLT8plAyH8hIASEgBAo8gQcKr82zUx5TDpb5PMqGRACQkAICAEhoAjYdXsu+q0EVYogSjpHtOeAEBMCQkAICAEhUDwI2JzJHdmrVYPoQhrRidPFI7OSCyEgBISAEBACIGDX8tsXL5CEgBAQAkJACBQ/Ag77/IpfliVHQkAICAEh4OkERPl5+h0g+RcCQkAIeCABUX4eWOiSZSEgBISApxMQ5efpd4DkXwgIASHggQRE+XlgoUuWhYAQEAKeTkCUn6ffAZJ/ISAEhIAHEhDl54GFLlkWAkJACHg6AVF+nn4HSP6FgBAQAh5I4P8BF4/KH0psI4oAAAAASUVORK5CYII=;" parent="1" vertex="1">
                    <mxGeometry x="100" y="120" width="444.67" height="191" as="geometry"/>
                </mxCell>
                <mxCell id="NkAxZAtzzJqoS2XVmBnt-6" style="edgeStyle=orthogonalEdgeStyle;rounded=0;orthogonalLoop=1;jettySize=auto;html=1;curved=1;dashed=1;" parent="1" source="NkAxZAtzzJqoS2XVmBnt-4" target="NkAxZAtzzJqoS2XVmBnt-5" edge="1">
                    <mxGeometry relative="1" as="geometry"/>
                </mxCell>
                <mxCell id="NkAxZAtzzJqoS2XVmBnt-12" value="label" style="edgeLabel;html=1;align=center;verticalAlign=middle;resizable=0;points=[];" parent="NkAxZAtzzJqoS2XVmBnt-6" connectable="0" vertex="1">
                    <mxGeometry x="-0.0801" y="-1" relative="1" as="geometry">
                        <mxPoint as="offset"/>
                    </mxGeometry>
                </mxCell>
                <mxCell id="NkAxZAtzzJqoS2XVmBnt-14" value="attributes" style="edgeStyle=orthogonalEdgeStyle;rounded=0;orthogonalLoop=1;jettySize=auto;html=1;curved=1;dashed=1;" parent="1" source="NkAxZAtzzJqoS2XVmBnt-4" target="NkAxZAtzzJqoS2XVmBnt-13" edge="1">
                    <mxGeometry relative="1" as="geometry"/>
                </mxCell>
                <mxCell id="NkAxZAtzzJqoS2XVmBnt-4" value="POLICY" style="rounded=0;whiteSpace=wrap;html=1;rotation=-90;fillColor=#647687;fontColor=#ffffff;strokeColor=none;" parent="1" vertex="1">
                    <mxGeometry x="462.21" y="202" width="190.73" height="27.14" as="geometry"/>
                </mxCell>
                <mxCell id="NkAxZAtzzJqoS2XVmBnt-3" value="" style="sketch=0;outlineConnect=0;fontColor=#232F3E;gradientColor=none;fillColor=#FFFFFF;strokeColor=none;dashed=0;verticalLabelPosition=bottom;verticalAlign=top;align=center;html=1;fontSize=12;fontStyle=0;aspect=fixed;pointerEvents=1;shape=mxgraph.aws4.policy;" parent="1" vertex="1">
                    <mxGeometry x="546.67" y="127" width="23.29" height="20" as="geometry"/>
                </mxCell>
                <mxCell id="NkAxZAtzzJqoS2XVmBnt-5" value="" style="sketch=0;outlineConnect=0;fontColor=#232F3E;gradientColor=none;fillColor=#DD344C;strokeColor=none;dashed=0;verticalLabelPosition=bottom;verticalAlign=top;align=center;html=1;fontSize=12;fontStyle=0;aspect=fixed;pointerEvents=1;shape=mxgraph.aws4.waf_labels;" parent="1" vertex="1">
                    <mxGeometry x="620" y="96" width="40" height="40" as="geometry"/>
                </mxCell>
                <mxCell id="NkAxZAtzzJqoS2XVmBnt-10" style="edgeStyle=orthogonalEdgeStyle;rounded=0;orthogonalLoop=1;jettySize=auto;html=1;entryX=0.5;entryY=1;entryDx=0;entryDy=0;endArrow=none;endFill=0;dashed=1;fillColor=#647687;strokeColor=#314354;dashPattern=1 4;" parent="1" source="NkAxZAtzzJqoS2XVmBnt-7" target="NkAxZAtzzJqoS2XVmBnt-9" edge="1">
                    <mxGeometry relative="1" as="geometry">
                        <Array as="points">
                            <mxPoint x="730" y="110"/>
                            <mxPoint x="730" y="110"/>
                        </Array>
                    </mxGeometry>
                </mxCell>
                <mxCell id="NkAxZAtzzJqoS2XVmBnt-7" value="BAD" style="rounded=0;whiteSpace=wrap;html=1;fillColor=#e51400;fontColor=#ffffff;strokeColor=none;" parent="1" vertex="1">
                    <mxGeometry x="670" y="124" width="120" height="23" as="geometry"/>
                </mxCell>
                <mxCell id="NkAxZAtzzJqoS2XVmBnt-9" value="GOOD" style="rounded=0;whiteSpace=wrap;html=1;fillColor=#008a00;fontColor=#ffffff;strokeColor=none;" parent="1" vertex="1">
                    <mxGeometry x="670" y="73" width="120" height="23" as="geometry"/>
                </mxCell>
                <mxCell id="NkAxZAtzzJqoS2XVmBnt-21" style="edgeStyle=orthogonalEdgeStyle;rounded=0;orthogonalLoop=1;jettySize=auto;html=1;entryX=0;entryY=0.5;entryDx=0;entryDy=0;curved=1;" parent="1" source="NkAxZAtzzJqoS2XVmBnt-13" target="NkAxZAtzzJqoS2XVmBnt-17" edge="1">
                    <mxGeometry relative="1" as="geometry"/>
                </mxCell>
                <mxCell id="NkAxZAtzzJqoS2XVmBnt-22" style="edgeStyle=orthogonalEdgeStyle;rounded=0;orthogonalLoop=1;jettySize=auto;html=1;curved=1;entryX=0;entryY=0.5;entryDx=0;entryDy=0;" parent="1" source="NkAxZAtzzJqoS2XVmBnt-13" target="NkAxZAtzzJqoS2XVmBnt-18" edge="1">
                    <mxGeometry relative="1" as="geometry"/>
                </mxCell>
                <mxCell id="NkAxZAtzzJqoS2XVmBnt-23" style="edgeStyle=orthogonalEdgeStyle;rounded=0;orthogonalLoop=1;jettySize=auto;html=1;entryX=0;entryY=0.5;entryDx=0;entryDy=0;curved=1;" parent="1" source="NkAxZAtzzJqoS2XVmBnt-13" target="NkAxZAtzzJqoS2XVmBnt-19" edge="1">
                    <mxGeometry relative="1" as="geometry"/>
                </mxCell>
                <mxCell id="NkAxZAtzzJqoS2XVmBnt-13" value="" style="outlineConnect=0;dashed=0;verticalLabelPosition=bottom;verticalAlign=top;align=center;html=1;shape=mxgraph.aws3.attributes;fillColor=#2E73B8;gradientColor=none;" parent="1" vertex="1">
                    <mxGeometry x="631.82" y="271" width="38.18" height="40" as="geometry"/>
                </mxCell>
                <mxCell id="NkAxZAtzzJqoS2XVmBnt-17" value="EFFECT" style="rounded=0;whiteSpace=wrap;html=1;fillColor=#bac8d3;strokeColor=none;" parent="1" vertex="1">
                    <mxGeometry x="740" y="236" width="120" height="23" as="geometry"/>
                </mxCell>
                <mxCell id="NkAxZAtzzJqoS2XVmBnt-18" value="RESOURCE" style="rounded=0;whiteSpace=wrap;html=1;fillColor=#bac8d3;strokeColor=none;" parent="1" vertex="1">
                    <mxGeometry x="740" y="279.5" width="120" height="23" as="geometry"/>
                </mxCell>
                <mxCell id="NkAxZAtzzJqoS2XVmBnt-19" value="ACTION" style="rounded=0;whiteSpace=wrap;html=1;fillColor=#bac8d3;strokeColor=none;" parent="1" vertex="1">
                    <mxGeometry x="740" y="330" width="120" height="23" as="geometry"/>
                </mxCell>
                <mxCell id="NkAxZAtzzJqoS2XVmBnt-30" style="edgeStyle=orthogonalEdgeStyle;rounded=0;orthogonalLoop=1;jettySize=auto;html=1;entryX=1;entryY=0.5;entryDx=0;entryDy=0;curved=1;dashed=1;" parent="1" source="NkAxZAtzzJqoS2XVmBnt-25" target="NkAxZAtzzJqoS2XVmBnt-18" edge="1">
                    <mxGeometry relative="1" as="geometry"/>
                </mxCell>
                <mxCell id="NkAxZAtzzJqoS2XVmBnt-25" value="OWNERSHIP" style="ellipse;whiteSpace=wrap;html=1;fillColor=#bac8d3;strokeColor=none;" parent="1" vertex="1">
                    <mxGeometry x="1000" y="242" width="120" height="29" as="geometry"/>
                </mxCell>
                <mxCell id="NkAxZAtzzJqoS2XVmBnt-31" style="edgeStyle=orthogonalEdgeStyle;rounded=0;orthogonalLoop=1;jettySize=auto;html=1;entryX=1;entryY=0.5;entryDx=0;entryDy=0;curved=1;dashed=1;" parent="1" source="NkAxZAtzzJqoS2XVmBnt-26" target="NkAxZAtzzJqoS2XVmBnt-18" edge="1">
                    <mxGeometry relative="1" as="geometry"/>
                </mxCell>
                <mxCell id="NkAxZAtzzJqoS2XVmBnt-32" style="edgeStyle=orthogonalEdgeStyle;rounded=0;orthogonalLoop=1;jettySize=auto;html=1;entryX=1;entryY=0.5;entryDx=0;entryDy=0;curved=1;dashed=1;" parent="1" source="NkAxZAtzzJqoS2XVmBnt-26" target="NkAxZAtzzJqoS2XVmBnt-19" edge="1">
                    <mxGeometry relative="1" as="geometry"/>
                </mxCell>
                <mxCell id="NkAxZAtzzJqoS2XVmBnt-33" style="edgeStyle=orthogonalEdgeStyle;rounded=0;orthogonalLoop=1;jettySize=auto;html=1;entryX=1;entryY=0.5;entryDx=0;entryDy=0;curved=1;dashed=1;" parent="1" source="NkAxZAtzzJqoS2XVmBnt-26" target="NkAxZAtzzJqoS2XVmBnt-29" edge="1">
                    <mxGeometry relative="1" as="geometry"/>
                </mxCell>
                <mxCell id="NkAxZAtzzJqoS2XVmBnt-26" value="RISK" style="ellipse;whiteSpace=wrap;html=1;fillColor=#bac8d3;strokeColor=none;" parent="1" vertex="1">
                    <mxGeometry x="1000" y="324" width="120" height="29" as="geometry"/>
                </mxCell>
                <mxCell id="NkAxZAtzzJqoS2XVmBnt-28" value="&lt;b&gt;ROLE&lt;/b&gt;" style="outlineConnect=0;dashed=0;verticalLabelPosition=bottom;verticalAlign=top;align=center;html=1;shape=mxgraph.aws3.role;fillColor=#759C3E;gradientColor=none;" parent="1" vertex="1">
                    <mxGeometry x="730" y="400" width="47.55" height="40" as="geometry"/>
                </mxCell>
                <mxCell id="NkAxZAtzzJqoS2XVmBnt-29" value="TRUST" style="rounded=0;whiteSpace=wrap;html=1;fillColor=#bac8d3;strokeColor=none;" parent="1" vertex="1">
                    <mxGeometry x="790" y="408.5" width="120" height="23" as="geometry"/>
                </mxCell>
                <mxCell id="NkAxZAtzzJqoS2XVmBnt-34" value="&lt;ul&gt;&lt;li&gt;&lt;b&gt;Effect:&lt;/b&gt; Forbid | Permit&lt;/li&gt;&lt;li&gt;&lt;b&gt;Resource Ownership: &lt;/b&gt;Platform | Tenant | User | External&lt;/li&gt;&lt;li&gt;&lt;b&gt;Resource Legal Risk:&lt;/b&gt; 0...1&lt;/li&gt;&lt;li style=&quot;border-color: var(--border-color);&quot;&gt;&lt;b style=&quot;border-color: var(--border-color);&quot;&gt;Resource Revenue Risk:&lt;/b&gt;&amp;nbsp;0...1&lt;/li&gt;&lt;li style=&quot;border-color: var(--border-color);&quot;&gt;&lt;b style=&quot;border-color: var(--border-color);&quot;&gt;Resource Reputational Risk:&lt;/b&gt;&amp;nbsp;0...1&lt;/li&gt;&lt;li style=&quot;border-color: var(--border-color);&quot;&gt;&lt;b style=&quot;border-color: var(--border-color);&quot;&gt;Action Risk:&lt;/b&gt;&amp;nbsp;0...1&lt;/li&gt;&lt;li style=&quot;border-color: var(--border-color);&quot;&gt;&lt;b style=&quot;border-color: var(--border-color);&quot;&gt;Action Operation:&lt;/b&gt;&amp;nbsp;GET | CREATE | UPDATE | DELETE | SOFT DELETE&lt;/li&gt;&lt;li style=&quot;border-color: var(--border-color);&quot;&gt;&lt;b style=&quot;border-color: var(--border-color);&quot;&gt;Identity Trust Risk:&lt;/b&gt;&amp;nbsp;0...1&lt;/li&gt;&lt;/ul&gt;" style="text;html=1;align=left;verticalAlign=middle;whiteSpace=wrap;rounded=0;" parent="1" vertex="1">
                    <mxGeometry x="140" y="330" width="450" height="171.5" as="geometry"/>
                </mxCell>
                <mxCell id="NkAxZAtzzJqoS2XVmBnt-49" style="edgeStyle=orthogonalEdgeStyle;rounded=0;orthogonalLoop=1;jettySize=auto;html=1;dashed=1;curved=1;" parent="1" source="NkAxZAtzzJqoS2XVmBnt-35" target="NkAxZAtzzJqoS2XVmBnt-44" edge="1">
                    <mxGeometry relative="1" as="geometry"/>
                </mxCell>
                <mxCell id="NkAxZAtzzJqoS2XVmBnt-50" style="edgeStyle=orthogonalEdgeStyle;rounded=0;orthogonalLoop=1;jettySize=auto;html=1;entryX=0;entryY=0.75;entryDx=0;entryDy=0;dashed=1;curved=1;" parent="1" source="NkAxZAtzzJqoS2XVmBnt-35" target="NkAxZAtzzJqoS2XVmBnt-41" edge="1">
                    <mxGeometry relative="1" as="geometry"/>
                </mxCell>
                <mxCell id="NkAxZAtzzJqoS2XVmBnt-35" value="POLICY" style="rounded=0;whiteSpace=wrap;html=1;rotation=0;fillColor=#647687;fontColor=#ffffff;strokeColor=none;" parent="1" vertex="1">
                    <mxGeometry x="119.05999999999995" y="744" width="90.92" height="84.85" as="geometry"/>
                </mxCell>
                <mxCell id="NkAxZAtzzJqoS2XVmBnt-36" value="" style="sketch=0;outlineConnect=0;fontColor=#232F3E;gradientColor=none;fillColor=#FFFFFF;strokeColor=none;dashed=0;verticalLabelPosition=bottom;verticalAlign=top;align=center;html=1;fontSize=12;fontStyle=0;aspect=fixed;pointerEvents=1;shape=mxgraph.aws4.policy;" parent="1" vertex="1">
                    <mxGeometry x="183.68999999999983" y="752" width="23.29" height="20" as="geometry"/>
                </mxCell>
                <mxCell id="NkAxZAtzzJqoS2XVmBnt-47" style="edgeStyle=orthogonalEdgeStyle;rounded=0;orthogonalLoop=1;jettySize=auto;html=1;entryX=0;entryY=0.75;entryDx=0;entryDy=0;dashed=1;curved=1;" parent="1" source="NkAxZAtzzJqoS2XVmBnt-37" target="NkAxZAtzzJqoS2XVmBnt-41" edge="1">
                    <mxGeometry relative="1" as="geometry"/>
                </mxCell>
                <mxCell id="NkAxZAtzzJqoS2XVmBnt-48" style="edgeStyle=orthogonalEdgeStyle;rounded=0;orthogonalLoop=1;jettySize=auto;html=1;entryX=0;entryY=0.5;entryDx=0;entryDy=0;dashed=1;curved=1;" parent="1" source="NkAxZAtzzJqoS2XVmBnt-37" target="NkAxZAtzzJqoS2XVmBnt-45" edge="1">
                    <mxGeometry relative="1" as="geometry"/>
                </mxCell>
                <mxCell id="NkAxZAtzzJqoS2XVmBnt-37" value="POLICY" style="rounded=0;whiteSpace=wrap;html=1;rotation=0;fillColor=#647687;fontColor=#ffffff;strokeColor=none;" parent="1" vertex="1">
                    <mxGeometry x="220" y="684" width="90.92" height="84.85" as="geometry"/>
                </mxCell>
                <mxCell id="NkAxZAtzzJqoS2XVmBnt-38" value="" style="sketch=0;outlineConnect=0;fontColor=#232F3E;gradientColor=none;fillColor=#FFFFFF;strokeColor=none;dashed=0;verticalLabelPosition=bottom;verticalAlign=top;align=center;html=1;fontSize=12;fontStyle=0;aspect=fixed;pointerEvents=1;shape=mxgraph.aws4.policy;" parent="1" vertex="1">
                    <mxGeometry x="284.63" y="692" width="23.29" height="20" as="geometry"/>
                </mxCell>
                <mxCell id="NkAxZAtzzJqoS2XVmBnt-40" value="" style="rounded=0;whiteSpace=wrap;html=1;rotation=0;fillColor=#647687;fontColor=#ffffff;strokeColor=none;direction=west;" parent="1" vertex="1">
                    <mxGeometry x="470" y="684" width="15.47" height="16" as="geometry"/>
                </mxCell>
                <mxCell id="NkAxZAtzzJqoS2XVmBnt-41" value="" style="rounded=0;whiteSpace=wrap;html=1;rotation=0;fillColor=#647687;fontColor=#ffffff;strokeColor=none;" parent="1" vertex="1">
                    <mxGeometry x="442.27" y="660" width="15.47" height="16" as="geometry"/>
                </mxCell>
                <mxCell id="NkAxZAtzzJqoS2XVmBnt-42" value="" style="rounded=0;whiteSpace=wrap;html=1;rotation=0;fillColor=#647687;fontColor=#ffffff;strokeColor=none;" parent="1" vertex="1">
                    <mxGeometry x="485.47" y="660" width="15.47" height="16" as="geometry"/>
                </mxCell>
                <mxCell id="NkAxZAtzzJqoS2XVmBnt-44" value="" style="rounded=0;whiteSpace=wrap;html=1;rotation=0;fillColor=#647687;fontColor=#ffffff;strokeColor=none;direction=west;" parent="1" vertex="1">
                    <mxGeometry x="470" y="784.85" width="15.47" height="16" as="geometry"/>
                </mxCell>
                <mxCell id="NkAxZAtzzJqoS2XVmBnt-45" value="" style="rounded=0;whiteSpace=wrap;html=1;rotation=0;fillColor=#647687;fontColor=#ffffff;strokeColor=none;" parent="1" vertex="1">
                    <mxGeometry x="442.27" y="760.85" width="15.47" height="16" as="geometry"/>
                </mxCell>
                <mxCell id="NkAxZAtzzJqoS2XVmBnt-46" value="" style="rounded=0;whiteSpace=wrap;html=1;rotation=0;fillColor=#647687;fontColor=#ffffff;strokeColor=none;" parent="1" vertex="1">
                    <mxGeometry x="485.47" y="760.85" width="15.47" height="16" as="geometry"/>
                </mxCell>
                <mxCell id="NkAxZAtzzJqoS2XVmBnt-52" value="&lt;font style=&quot;font-size: 9px;&quot;&gt;ONTOLOGY&lt;br&gt;&lt;/font&gt;" style="ellipse;whiteSpace=wrap;html=1;" parent="1" vertex="1">
                    <mxGeometry x="600" y="749.27" width="70" height="43.15" as="geometry"/>
                </mxCell>
                <mxCell id="NkAxZAtzzJqoS2XVmBnt-56" style="edgeStyle=orthogonalEdgeStyle;rounded=0;orthogonalLoop=1;jettySize=auto;html=1;dashed=1;startArrow=block;startFill=1;endArrow=blockThin;endFill=1;" parent="1" source="NkAxZAtzzJqoS2XVmBnt-53" target="NkAxZAtzzJqoS2XVmBnt-52" edge="1">
                    <mxGeometry relative="1" as="geometry"/>
                </mxCell>
                <mxCell id="NkAxZAtzzJqoS2XVmBnt-53" value="&lt;font style=&quot;font-size: 9px;&quot;&gt;ONTOLOGY&lt;br&gt;&lt;/font&gt;" style="ellipse;whiteSpace=wrap;html=1;" parent="1" vertex="1">
                    <mxGeometry x="600" y="648.85" width="70" height="43.15" as="geometry"/>
                </mxCell>
                <mxCell id="NkAxZAtzzJqoS2XVmBnt-57" value="" style="outlineConnect=0;dashed=0;verticalLabelPosition=bottom;verticalAlign=top;align=center;html=1;shape=mxgraph.aws3.data_encryption_key;fillColor=#7D7C7C;gradientColor=none;" parent="1" vertex="1">
                    <mxGeometry x="570" y="280" width="46.5" height="60" as="geometry"/>
                </mxCell>
                <mxCell id="NkAxZAtzzJqoS2XVmBnt-59" value="&lt;b&gt;IDENTITY&lt;/b&gt;" style="verticalLabelPosition=bottom;html=1;verticalAlign=top;align=center;strokeColor=none;fillColor=#00BEF2;shape=mxgraph.azure.user;" parent="1" vertex="1">
                    <mxGeometry x="650" y="380" width="32.94" height="28.5" as="geometry"/>
                </mxCell>
                <mxCell id="NkAxZAtzzJqoS2XVmBnt-60" style="edgeStyle=orthogonalEdgeStyle;rounded=0;orthogonalLoop=1;jettySize=auto;html=1;entryX=0.125;entryY=0.5;entryDx=0;entryDy=0;entryPerimeter=0;curved=1;" parent="1" source="NkAxZAtzzJqoS2XVmBnt-59" target="NkAxZAtzzJqoS2XVmBnt-28" edge="1">
                    <mxGeometry relative="1" as="geometry"/>
                </mxCell>
                <mxCell id="NkAxZAtzzJqoS2XVmBnt-68" style="edgeStyle=orthogonalEdgeStyle;rounded=0;orthogonalLoop=1;jettySize=auto;html=1;entryX=0;entryY=0.5;entryDx=0;entryDy=0;" parent="1" source="NkAxZAtzzJqoS2XVmBnt-61" target="NkAxZAtzzJqoS2XVmBnt-66" edge="1">
                    <mxGeometry relative="1" as="geometry"/>
                </mxCell>
                <mxCell id="NkAxZAtzzJqoS2XVmBnt-61" value="IDENTITY&lt;br&gt;MANAGEMENT" style="ellipse;whiteSpace=wrap;html=1;" parent="1" vertex="1">
                    <mxGeometry x="131.26" y="-360" width="120" height="80" as="geometry"/>
                </mxCell>
                <mxCell id="NkAxZAtzzJqoS2XVmBnt-65" value="OPEN ID" style="rounded=1;whiteSpace=wrap;html=1;" parent="1" vertex="1">
                    <mxGeometry x="162.24" y="-290" width="60" height="20" as="geometry"/>
                </mxCell>
                <mxCell id="NkAxZAtzzJqoS2XVmBnt-71" style="edgeStyle=orthogonalEdgeStyle;rounded=0;orthogonalLoop=1;jettySize=auto;html=1;entryX=0;entryY=0.5;entryDx=0;entryDy=0;" parent="1" source="NkAxZAtzzJqoS2XVmBnt-66" target="NkAxZAtzzJqoS2XVmBnt-69" edge="1">
                    <mxGeometry relative="1" as="geometry"/>
                </mxCell>
                <mxCell id="NkAxZAtzzJqoS2XVmBnt-66" value="AUTHORIZATION" style="ellipse;whiteSpace=wrap;html=1;" parent="1" vertex="1">
                    <mxGeometry x="296.89" y="-360" width="120" height="80" as="geometry"/>
                </mxCell>
                <mxCell id="NkAxZAtzzJqoS2XVmBnt-67" value="OAUTH" style="rounded=1;whiteSpace=wrap;html=1;" parent="1" vertex="1">
                    <mxGeometry x="327.87" y="-290" width="60" height="20" as="geometry"/>
                </mxCell>
                <mxCell id="NkAxZAtzzJqoS2XVmBnt-69" value="ACCESS MANAGEMENT" style="ellipse;whiteSpace=wrap;html=1;" parent="1" vertex="1">
                    <mxGeometry x="470" y="-360" width="120" height="80" as="geometry"/>
                </mxCell>
                <mxCell id="NkAxZAtzzJqoS2XVmBnt-70" value="?" style="rounded=1;whiteSpace=wrap;html=1;" parent="1" vertex="1">
                    <mxGeometry x="500.98" y="-290" width="60" height="20" as="geometry"/>
                </mxCell>
                <mxCell id="NkAxZAtzzJqoS2XVmBnt-73" value="&lt;b&gt;OKTA:&amp;nbsp; &lt;/b&gt;Enterprise Identity Access Management&lt;br&gt;&lt;br&gt;&lt;b style=&quot;border-color: var(--border-color);&quot;&gt;AUTH0:&amp;nbsp;&amp;nbsp;&lt;/b&gt;Consumer Identity Access Management&lt;br&gt;&lt;br&gt;&lt;b style=&quot;border-color: var(--border-color);&quot;&gt;SPID:&amp;nbsp; &lt;/b&gt;Italy Public Sector Identity Access Management" style="text;html=1;strokeColor=none;fillColor=none;align=left;verticalAlign=middle;whiteSpace=wrap;rounded=0;" parent="1" vertex="1">
                    <mxGeometry x="214.67000000000002" y="-260" width="330" height="120" as="geometry"/>
                </mxCell>
                <mxCell id="NkAxZAtzzJqoS2XVmBnt-79" style="edgeStyle=orthogonalEdgeStyle;rounded=0;orthogonalLoop=1;jettySize=auto;html=1;entryX=0;entryY=0.5;entryDx=0;entryDy=0;dashed=1;" parent="1" source="NkAxZAtzzJqoS2XVmBnt-77" target="NkAxZAtzzJqoS2XVmBnt-78" edge="1">
                    <mxGeometry relative="1" as="geometry"/>
                </mxCell>
                <mxCell id="NkAxZAtzzJqoS2XVmBnt-84" value="JWT" style="edgeLabel;html=1;align=center;verticalAlign=middle;resizable=0;points=[];" parent="NkAxZAtzzJqoS2XVmBnt-79" connectable="0" vertex="1">
                    <mxGeometry x="-0.1768" relative="1" as="geometry">
                        <mxPoint as="offset"/>
                    </mxGeometry>
                </mxCell>
                <mxCell id="NkAxZAtzzJqoS2XVmBnt-86" style="edgeStyle=orthogonalEdgeStyle;rounded=0;orthogonalLoop=1;jettySize=auto;html=1;entryX=0;entryY=0.5;entryDx=0;entryDy=0;curved=1;dashed=1;" parent="1" source="NkAxZAtzzJqoS2XVmBnt-77" target="NkAxZAtzzJqoS2XVmBnt-85" edge="1">
                    <mxGeometry relative="1" as="geometry">
                        <Array as="points">
                            <mxPoint x="950" y="-599"/>
                        </Array>
                    </mxGeometry>
                </mxCell>
                <mxCell id="NkAxZAtzzJqoS2XVmBnt-77" value="&lt;b&gt;CLIENT&lt;/b&gt;" style="outlineConnect=0;dashed=0;verticalLabelPosition=bottom;verticalAlign=top;align=center;html=1;shape=mxgraph.aws3.management_console;fillColor=#D2D3D3;gradientColor=none;" parent="1" vertex="1">
                    <mxGeometry x="910" y="-550" width="63" height="63" as="geometry"/>
                </mxCell>
                <mxCell id="NkAxZAtzzJqoS2XVmBnt-81" style="edgeStyle=orthogonalEdgeStyle;rounded=0;orthogonalLoop=1;jettySize=auto;html=1;curved=1;" parent="1" source="NkAxZAtzzJqoS2XVmBnt-78" target="NkAxZAtzzJqoS2XVmBnt-80" edge="1">
                    <mxGeometry relative="1" as="geometry">
                        <Array as="points">
                            <mxPoint x="1110" y="-519"/>
                            <mxPoint x="1110" y="-587"/>
                        </Array>
                    </mxGeometry>
                </mxCell>
                <mxCell id="NkAxZAtzzJqoS2XVmBnt-83" style="edgeStyle=orthogonalEdgeStyle;rounded=0;orthogonalLoop=1;jettySize=auto;html=1;entryX=0;entryY=0.5;entryDx=0;entryDy=0;curved=1;" parent="1" source="NkAxZAtzzJqoS2XVmBnt-78" target="NkAxZAtzzJqoS2XVmBnt-82" edge="1">
                    <mxGeometry relative="1" as="geometry"/>
                </mxCell>
                <mxCell id="NkAxZAtzzJqoS2XVmBnt-104" value="JWT ?" style="edgeLabel;html=1;align=center;verticalAlign=middle;resizable=0;points=[];" parent="NkAxZAtzzJqoS2XVmBnt-83" connectable="0" vertex="1">
                    <mxGeometry x="0.0106" relative="1" as="geometry">
                        <mxPoint as="offset"/>
                    </mxGeometry>
                </mxCell>
                <mxCell id="NkAxZAtzzJqoS2XVmBnt-78" value="&lt;b&gt;API&lt;/b&gt;" style="ellipse;whiteSpace=wrap;html=1;aspect=fixed;" parent="1" vertex="1">
                    <mxGeometry x="1060" y="-540" width="43" height="43" as="geometry"/>
                </mxCell>
                <mxCell id="NkAxZAtzzJqoS2XVmBnt-80" value="" style="image;html=1;image=img/lib/clip_art/computers/Database_128x128.png" parent="1" vertex="1">
                    <mxGeometry x="1151.5" y="-607" width="40" height="40" as="geometry"/>
                </mxCell>
                <mxCell id="NkAxZAtzzJqoS2XVmBnt-82" value="&lt;b&gt;API&lt;/b&gt;" style="ellipse;whiteSpace=wrap;html=1;aspect=fixed;" parent="1" vertex="1">
                    <mxGeometry x="1148.5" y="-457" width="43" height="43" as="geometry"/>
                </mxCell>
                <mxCell id="NkAxZAtzzJqoS2XVmBnt-85" value="&lt;b&gt;IAM&lt;/b&gt;" style="ellipse;whiteSpace=wrap;html=1;aspect=fixed;" parent="1" vertex="1">
                    <mxGeometry x="1060" y="-620" width="43" height="43" as="geometry"/>
                </mxCell>
                <mxCell id="NkAxZAtzzJqoS2XVmBnt-91" style="edgeStyle=orthogonalEdgeStyle;rounded=0;orthogonalLoop=1;jettySize=auto;html=1;" parent="1" source="NkAxZAtzzJqoS2XVmBnt-87" target="NkAxZAtzzJqoS2XVmBnt-90" edge="1">
                    <mxGeometry relative="1" as="geometry"/>
                </mxCell>
                <mxCell id="NkAxZAtzzJqoS2XVmBnt-87" value="" style="sketch=0;aspect=fixed;pointerEvents=1;shadow=0;dashed=0;html=1;strokeColor=none;labelPosition=center;verticalLabelPosition=bottom;verticalAlign=top;align=center;fillColor=#00188D;shape=mxgraph.azure.queue_generic" parent="1" vertex="1">
                    <mxGeometry x="1160" y="-532" width="90" height="27" as="geometry"/>
                </mxCell>
                <mxCell id="NkAxZAtzzJqoS2XVmBnt-88" style="edgeStyle=orthogonalEdgeStyle;rounded=0;orthogonalLoop=1;jettySize=auto;html=1;entryX=0;entryY=0.5;entryDx=0;entryDy=0;entryPerimeter=0;" parent="1" source="NkAxZAtzzJqoS2XVmBnt-78" target="NkAxZAtzzJqoS2XVmBnt-87" edge="1">
                    <mxGeometry relative="1" as="geometry"/>
                </mxCell>
                <mxCell id="NkAxZAtzzJqoS2XVmBnt-92" style="edgeStyle=orthogonalEdgeStyle;rounded=0;orthogonalLoop=1;jettySize=auto;html=1;entryX=1;entryY=0.5;entryDx=0;entryDy=0;curved=1;" parent="1" source="NkAxZAtzzJqoS2XVmBnt-90" target="NkAxZAtzzJqoS2XVmBnt-82" edge="1">
                    <mxGeometry relative="1" as="geometry">
                        <Array as="points">
                            <mxPoint x="1340" y="-435"/>
                        </Array>
                    </mxGeometry>
                </mxCell>
                <mxCell id="NkAxZAtzzJqoS2XVmBnt-93" value="JWT ?" style="edgeLabel;html=1;align=center;verticalAlign=middle;resizable=0;points=[];" parent="NkAxZAtzzJqoS2XVmBnt-92" connectable="0" vertex="1">
                    <mxGeometry x="-0.0189" y="-13" relative="1" as="geometry">
                        <mxPoint as="offset"/>
                    </mxGeometry>
                </mxCell>
                <mxCell id="NkAxZAtzzJqoS2XVmBnt-95" style="edgeStyle=orthogonalEdgeStyle;rounded=0;orthogonalLoop=1;jettySize=auto;html=1;" parent="1" source="NkAxZAtzzJqoS2XVmBnt-90" target="NkAxZAtzzJqoS2XVmBnt-94" edge="1">
                    <mxGeometry relative="1" as="geometry"/>
                </mxCell>
                <mxCell id="NkAxZAtzzJqoS2XVmBnt-90" value="WORKER" style="shape=hexagon;perimeter=hexagonPerimeter2;whiteSpace=wrap;html=1;fixedSize=1;" parent="1" vertex="1">
                    <mxGeometry x="1300" y="-538.5" width="80" height="40" as="geometry"/>
                </mxCell>
                <mxCell id="NkAxZAtzzJqoS2XVmBnt-94" value="" style="image;html=1;image=img/lib/clip_art/computers/Database_128x128.png" parent="1" vertex="1">
                    <mxGeometry x="1320" y="-607" width="40" height="40" as="geometry"/>
                </mxCell>
                <mxCell id="NkAxZAtzzJqoS2XVmBnt-96" value="" style="sketch=0;aspect=fixed;pointerEvents=1;shadow=0;dashed=0;html=1;strokeColor=none;labelPosition=center;verticalLabelPosition=bottom;verticalAlign=top;align=center;fillColor=#00188D;shape=mxgraph.azure.queue_generic" parent="1" vertex="1">
                    <mxGeometry x="1420" y="-532" width="90" height="27" as="geometry"/>
                </mxCell>
                <mxCell id="NkAxZAtzzJqoS2XVmBnt-97" style="edgeStyle=orthogonalEdgeStyle;rounded=0;orthogonalLoop=1;jettySize=auto;html=1;entryX=0;entryY=0.5;entryDx=0;entryDy=0;entryPerimeter=0;" parent="1" source="NkAxZAtzzJqoS2XVmBnt-90" target="NkAxZAtzzJqoS2XVmBnt-96" edge="1">
                    <mxGeometry relative="1" as="geometry"/>
                </mxCell>
                <mxCell id="NkAxZAtzzJqoS2XVmBnt-99" style="edgeStyle=orthogonalEdgeStyle;rounded=0;orthogonalLoop=1;jettySize=auto;html=1;entryX=0.5;entryY=1;entryDx=0;entryDy=0;curved=1;" parent="1" source="NkAxZAtzzJqoS2XVmBnt-98" target="NkAxZAtzzJqoS2XVmBnt-82" edge="1">
                    <mxGeometry relative="1" as="geometry"/>
                </mxCell>
                <mxCell id="NkAxZAtzzJqoS2XVmBnt-102" value="JWT ?" style="edgeLabel;html=1;align=center;verticalAlign=middle;resizable=0;points=[];" parent="NkAxZAtzzJqoS2XVmBnt-99" connectable="0" vertex="1">
                    <mxGeometry x="-0.1391" y="-7" relative="1" as="geometry">
                        <mxPoint x="4" as="offset"/>
                    </mxGeometry>
                </mxCell>
                <mxCell id="NkAxZAtzzJqoS2XVmBnt-98" value="" style="outlineConnect=0;dashed=0;verticalLabelPosition=bottom;verticalAlign=top;align=center;html=1;shape=mxgraph.aws3.lambda_function;fillColor=#5294CF;gradientColor=none;" parent="1" vertex="1">
                    <mxGeometry x="1340" y="-387" width="40" height="43" as="geometry"/>
                </mxCell>
                <mxCell id="NkAxZAtzzJqoS2XVmBnt-103" style="edgeStyle=orthogonalEdgeStyle;rounded=0;orthogonalLoop=1;jettySize=auto;html=1;entryX=1;entryY=0.5;entryDx=0;entryDy=0;entryPerimeter=0;curved=1;exitX=1;exitY=0.51;exitDx=0;exitDy=0;exitPerimeter=0;" parent="1" source="NkAxZAtzzJqoS2XVmBnt-96" target="NkAxZAtzzJqoS2XVmBnt-98" edge="1">
                    <mxGeometry relative="1" as="geometry"/>
                </mxCell>
                <mxCell id="NkAxZAtzzJqoS2XVmBnt-114" value="" style="shape=image;verticalLabelPosition=bottom;labelBackgroundColor=default;verticalAlign=top;aspect=fixed;imageAspect=0;image=data:image/png,iVBORw0KGgoAAAANSUhEUgAAAQ8AAAEGCAYAAAB7IBD2AAABX2lDQ1BJQ0MgUHJvZmlsZQAAKJF1kEFLAlEQx/9bhmAGIRIRHbZDh8DCdI91MI0IPCxuYoWXdd000vW1uxUdAg8d6i59hKhPIFSHPkIQFQRBty7dAi8lr3laqUUzDP8ff2beGwbo8+uMlTwAypZrp5YW5NW1ddn7Aj8CCGIWPt1wWExVk9SCb+2Nxj0kobfT4q35u6P07tZFtqIdbmePDyb+9veEL286BukHlWIw2wWkMLG65zLBVeKgTUsR1wQX2nwmONfmq1bPSipOfEM8bBT1PPEzcSjX5Re6uFzaMb52ENv7TSutkY5SjSOBRSQpZWiIQkGEMoHMPzNKayaOChj2YWMTBRTh0nSMHIYSTOJlWDAwgxBxBGGqqLj17xt2vOoTMBegr5SOpw4B5xYwYna8yVdgjO50WWO6rf9cVmp4nI1opM2DdWDghPO3DOCdApoPnL/XOW+eAv2PwHXjE8TVYsADy/L6AAAAVmVYSWZNTQAqAAAACAABh2kABAAAAAEAAAAaAAAAAAADkoYABwAAABIAAABEoAIABAAAAAEAAAEPoAMABAAAAAEAAAEGAAAAAEFTQ0lJAAAAU2NyZWVuc2hvdEkSnZAAAAHWaVRYdFhNTDpjb20uYWRvYmUueG1wAAAAAAA8eDp4bXBtZXRhIHhtbG5zOng9ImFkb2JlOm5zOm1ldGEvIiB4OnhtcHRrPSJYTVAgQ29yZSA2LjAuMCI+CiAgIDxyZGY6UkRGIHhtbG5zOnJkZj0iaHR0cDovL3d3dy53My5vcmcvMTk5OS8wMi8yMi1yZGYtc3ludGF4LW5zIyI+CiAgICAgIDxyZGY6RGVzY3JpcHRpb24gcmRmOmFib3V0PSIiCiAgICAgICAgICAgIHhtbG5zOmV4aWY9Imh0dHA6Ly9ucy5hZG9iZS5jb20vZXhpZi8xLjAvIj4KICAgICAgICAgPGV4aWY6UGl4ZWxZRGltZW5zaW9uPjI2MjwvZXhpZjpQaXhlbFlEaW1lbnNpb24+CiAgICAgICAgIDxleGlmOlBpeGVsWERpbWVuc2lvbj4yNzE8L2V4aWY6UGl4ZWxYRGltZW5zaW9uPgogICAgICAgICA8ZXhpZjpVc2VyQ29tbWVudD5TY3JlZW5zaG90PC9leGlmOlVzZXJDb21tZW50PgogICAgICA8L3JkZjpEZXNjcmlwdGlvbj4KICAgPC9yZGY6UkRGPgo8L3g6eG1wbWV0YT4KeUOESgAAQABJREFUeAHsvQmYZNlV33nixZpbZVZVVmXtS++buqVuSa19scQqhAR8LDbY+PMYf/bYnmE3fJ/BHrDBIBDYxgwG4wFZLDMSCNQCJCHQ1lqQ1C11S63eu7q61qy9co3tvZjf/7x4WVnVmVmRkZFLRL5bFRkv3nLfvefec+7Zb6ZBsbSkEEghkEJgmRAIlnl/ensKgRQCKQQcAinxSCdCCoEUAm1BINfWU+lDXQeBBaVTBNYG/5KSyWSSw5a/59ebMZ5foIp26m25AemN6waBlHisG+gXfrGQcT6yCbX9HN+OnDoBgvoX35HfHzVPCnP5JNcTusDlKNA9ZgEEIgoja9SzVqlFfBo2y3ctbFhYb/AdWhgFVtc9nLu2ZLIZy2UDy1KfvnO5wPKc68sHVsxn+ASWyYUWcE1tUwnCLH/imhpx85od0HW1K6SPeW+bHlEv4g7qKyZvgomf16VmvbptPqz0Oy1rB4EMA/HiGbJ270/fdD0INEIwJAuK1fnUwLM+y4KLDZviDAga9luRW4RZkRATJM04IYgs5Lkyj5y9cMkePx7ayWOzfCI7c7pu56cvWrVet0aUd8Rt8HC2UeXhjAW5AtVlLaPf15RGpsC7Q4vqXGPqhPzOBCJ4Nb5rVsjlbPvAVtu5O2d79gW2Z3+f3b4vazu2jVgpb7wjtGwuaw31AbrBo+qMVURfsjOWo5cZGzRoGDfP0kOICmehZLSNm9KyYSCQEo8NMxQLNyS0MggHwtahClqki/qKTIxEphFwHnqSm7EXzkT2+HN1++rjl+3IyapNTlSsNlW1bFSwXJC3WqYKjmb46EGzHNxAIwJrRWwgGOIIQogTX5zzk1zn+5qS0Yu13kRwJnxnRTz46WuQqg4yVs+C6JyDDPkb87S/HtUsDKqWHyzY0JaiHdqdt5fcvtXuuDFrB8agE7VBOBYey9A7XhuoYRW1hXpyIoT0xUrXtCb9uZ4QSInHekJ/kXfPZwajUOw6PEauYVUwKeT3sWNT9tUnZ+yJ56ft+Pglmzw/YJWKiAMFDIQsiIGIERGS4McRdYgtCUFoUQrEChV/xu8X9Yh/+QWREdUx75Tq8dI8KYEiQz1xe6+IFcg9vJsHsxAC2ItMkPN6EHZiggeRiSBQDQiKyFmxBEHZNmP7xkbstkMD9pJb+23//kE4rIYVRCrruisHZ3KlMam40hyLdfxKiccaAT+W3bX2CyeFDPqwsIJIxmqrs/otBI3qcBaw6GLrZ8KqHXlhxp56PrJHvnbZjh6fsakpxA2IQDabc51DyBKteht6wPErxnKt/GIpHK2pGJTmBbEOwQ/9nfE56ULi1qker4SratfVpSECpEd0P/fBaMS6jeZ7vHbOeQs4J95DlCM+r7/NOvUKySzqMEVcRZ1+h4hSmXxkgwM5O7iv3+65a9huORTY4QP91p+Fy0FyiaJYp6Iq4qc5gl2JuKbf6knzjRw3+6+XpKWjEEiJR0fBuURlwhl94tnuiBPCS2QaRXQPkWULUjBCFKoZm5is2RPj0/bJL5y1Jx+q2OwsjwWIH3lxEaDfi3F6iRd35yVJTg2IT70mIlq1vj6zW+8r2htfucNuGxuwLUN5yxREvHIWViN0LXAymQpEqACcm0B2AkX/YyarOwGxgVudEo81Gpx6o8Kc1trf53MZMd4qyPElKSxh86fRQXz0E+fsbz42acdOz1p+uGr9jSGrROMuYmTgMqzOyiuORBxGj5cMHE5DStIc4lgoxU5kxWDMZjKTVrtcsP27+uwtbx2yb3zTqA2gY5H4NIvCtiT9CsQiptMoXNEL5TIoitLScQikxKPjIL26wkQEkDXDLQsoDZ16MKnPno/sw5+9aJ/+0jm7fAELBux4FCHba6XMTqIy6LewVgIxZGngA4GR1BCjxtXv6b1f0onQK1e+QjDpezZfRmUzAxyGnPsKAvQ4QdaGt2Xt9S8ftW9+7VasOgBIYqCeRVkcW6DEgnC6KSL5j/TPiiGQEo8Vg3DpChLiIZ5DSsTpabNPfvGCPfjFi/YCptM6Ignzn4/8L6R1QEvg+gdZLHL8lg8EcnsszLssDxos/dKeuCpY0E/wXioYiWvYdjhAJ8K34Cr9SQI36K7lEG0OYBp+3Su22htfsc0GBrg90bsAk5R4dHZipMSjDXgmBCGZjFrXZPYMmKiO14gjdTiFbFTifMbKrILPHp20T33+rH0GojE7W7CCnDNYTdPSYQjAqVRxGunrq9lrXzlib7x/h91wcMhKYkhg/cKgbDl3MkE3wsBFECWZlxNyfO3Ydrh1PVVdSjw6MZyahA05SeHMhTgi94kczlkTtZo99Ny4vf//nbCzp5C7sSIEBZSkLJNZBPO6yzGdaEBaRwKBHMQ6RKHU0FhUIRC1wHbsrth3f98Wu+/wmA3l81bHWU1WokA6KFlu8INJy/IhkBKP5cPsxU+I9WAyVmuXcNneYuVK3X7/Q2fsbz98xuqlMh6gWyAYEI0sBIRVr4bfRoi8ntcKmJaOQqDmHF8Ov1QUzBw3wgqEpIAH64TlyyV787fstB98204rFXO44E9YIT/iHMgc69HR1vR2ZSnxaHN8E/ZWj0smNxShR0/W7U8+MGEPP3naYDoQW6AoxGw08rIATOApKqUpqyGOXjhzQEdc+9lmC9LHFoJABqsMHnUAH40I4mOIWJKLIN41ud7Ly7VhMB9232277DvfucUO7uFeFKvzdamJOLpQ/em5KxBIiccVWCx8JMLAfGwwGfXPnZ5EFCha5RpwD0ePT9ufffSsPfTwJZw0cdyCSERcI4TMfQ+0tAX1flZAJrSsLZKzuS+mOl5V+qdTEJCyGaUqf3DAgygwVhHu+2IN5VODvZvvLDopudbX7b57R+w7vnGHHdg3AAEJr3CDGivGTdqQjIi96Hw87J1qadfXkxKPFoZQ8SUNZGfFcUjBFhHAZbWcnT4V2p/89Tn71OfOWU4OS40+TIiyAEBmRHTSsiEhIC5Dbv8BNvEog8ULx7w3vGbUvuuto7ZrN6JkHhMwAYdSgIcEB8rjNY2refFQpsTjxTC5+oyIgHyU8sgheIRmEUMmLhbsd/78Ofv0g5es0I/hMBxkjUK2hkPxianVTWbFtGxICCgqWJG6bgKWFYZowzA7ZdWZhr3+dSP2Q++4wbZslcijMS8QtIecA6OYch5XD2dKPK6Gx1W/pNdQBKtlyhbMDlgdP4L3/Nk5e+AvT1lfMIt1ZSvKz0nPV9GAajjB8DiVq6pJf2xUCCgqWYGDGmeC+PKkAmg0MKWT9uDbv3W3/cN3jloOP5yoD+ecRgmCE/vgbNTurHW7UuKxCMQThahoAZoN+0t8ND745xfs0kSVGJMGrC4OXJgElTsjyOQhMXLqcs0pNWo543daNiYE3MrFwPrCILc8mdhr6LXQl2BCzxXqxNRkbGRLwb79Hdvsba/aIbKBziruTqpQbcIBJNm00rk6DhlAmYmI4YZ/TSfUZGSiUVRryGx5+uhl+4M/PWlPPFG3LJ5GSoKjYKy09DYEFKSYzRWtXm7Y7bfn7O9/xy679dAwRETLRIgUAyWRa7DTIDgXsqdJQb6ZdKqbm/MQ9WDwG3glimgoriRHhGallLWZyVl74K9P2wMfmXAtfQOvryAzhfa+n4eaS1Bv48/m7h1raoNMZo0GVrK69CNle/u3bbO3v2WnDQ+QzY3UjfWclK4sPvzLyFtY02ITUY/NTTycZNQgGkV8MmTeC/E+LNqzJybt5372OQsHUZTNYtYLLlkpO8Ik4rp0GzIFpqXHIUD6Q0XzkvNReq1sg/HHOzg/Hdq//bkb7Za9gxbUSHUmDhW/kiCoQDvkqbp5FpZNTjykz4BmMEdy2PXHyxn777/9nD32xCUUaJoKBasRuZZBWaagNkRitPJMEvwH0tLbEIhQiOeivji5Ghyq/HMKSliUZbLg0v7SG0fsf/sXN9hYCcEXXxJJspvNvrapiIeS72TJiUESLhYI9BpkDleejIhgqc89VLf/531H7NIlFKAKlPL8nZJjieB0BzGOFRKv3ynn0duUg97JiU/6sIZ0GYpuxi9E2o4MVKLBahPBgY4Mm/3j7z5sr7kPziNUECTnySCvlGYYb4ixUd7V3l1oNhXxwHIP+4mFRElm4CaU0m6yNmW///6yfeoTx0gaI8/QzbZ+9DwdWLUOBswjca6vf9M++8HvKhF0h6lXJzDtNyTOkHwFL5FVe/96V7ypiId2EqixEEhjnkOSfW48snf96lE7fx6FaZEs5drTQJaXtKQQaAECntUdvUimUrLR0az9+I8dtBt2Ei2NwIufseUVidC7jAeL8CYy1ZZRfJWQYxthzT76GbPffe/TCKpY+fvxBJrdhvhyEY4kTVnXAt6ktwCBhm+LsQ0m9ryFM3gQkovhh/7hzfYNr5EeNW9lxOESjme9WjYV8SCNKMaTmr37d47bVx6dRrehDxsMEXFJ+hjYTDxJe5jN7NVJvF790h4zAeJv2JghRWIRq90knwF72T0D9iP/dJ/1hSRp7uG1qKeJhxK9SAeuYLUMQVBHT9bs1//n19k1DdMsfhshhCRggDdNke8CViP3hHV3erlbS3uMkxOh7Erpp8jhhBnVplJX+S3oUT3PPbGXJfcDYj2noufi5Mzco/oJLNP3ZikR8ynLfArJNrT3QMV++J/cYQfY3KqhYElPTIvCVY5lPVJ6mniIdsh/Nosjz4Nfm7Tf/G9HSCxVZAAZRN8bZQQF6WSPDGUL3RDeg8y++ROHQnRlKBchEHGNmqkGhO66FUqhv04//LeOIR4iEnpGhEY2CN+T1s/hLiWFM9e02dNcpKDX0vt/ArLdR41LWGiImcEyRwoi+xf/8rC97s4hkr9jsQGcPUQ7elPnkayc2FvZq7VuH/v0lP3ue47a4HC/VWZrvkFzpMQwTP6s8mpsmgKRcHoA2mOKjglATED8AiboLHvN5vwDy00Mjzas5iknFL5BNjEf9TqwY3OmEDd+35ISyiIOxreFgGaIOPPXCXeTDG0KCIeCH/0OiLzWRuHFvrxNXZ6xf/qDB+0trxtkr17mWjNAJubcuhssvcd5MJG1IqqUSUH3W793gcTDKEKjaSsOIJdWhSBsaeA2NfKObhLiIQIQKnsZViaJGfm+ImHnIzbMp9RfIiEzvgoJR91kPZqMx1Uz3KUWnYmZEvlLWY20i+WZil1iQ+3Jy5etOj3LeXElebg++UskfMtVVfXcj9j/hz7LTFufIV9tzirTKNqCAXvDq7baP//H2/BUjpUgGo8Eht0KiJ4hHh48D7XPYoSVtTULsfi37z5jTz13CXkz3iPV9331jZo1XD58vTGxk9UML1kRB2Qx5wLUxzhmx6y0JWNbd2xnj5MtEIsihAKYOBvCM5LtmgTjqokcsylXnYq5OhGGJvVIntO9UBsXhZDxRUwuX5i0i+fOW/mSkgyrTfEzzsfQ1thbLz6v8ev2IpjEZFLw5Jhx8MRQcMDak+eWG0bsP/zYThTzA2w0Lu9m4mKcs+tOl/aeIR4hrDSx8gwek/ZMYD/9fx+xiycvMjj9DBzEP9YLdvv8XLD9sR4iRt6ECihPRYkd6bftGmYT6WHrGyAzFkQ1wpwoRbJ0HIlOY8FKOZkg+/zrcyLh/JPzj6UTkYIaMUaIIc6kOlO2C+dIZ3BmgpUYL0zOiYzEog5ik9IX9GoyaDqazL8onLFte7baL/zvh214BzAiCRGx/3DC3am07xni4a7DsMpHxqv287920iqTZc9TGdWV8BYZtIYZFlm+F0uDfktYC/LoHVjhB7b2256De21wpGDlatkKfbjgs5fJHLPgXMLqQsKtLlp94WqCHOISOhaJMJMXyjZ+fNym4Eok2oRVkEdbaTp1X902rUftEbqhXL5EQmzERaJwld+2OFSyn/mRPXZ4rADNhDvpUveAriceyUqouIIj43X72Z97gcxxZZueYN/SwX5XYNWqREMWyGCuKMkeKknffdUmYG/ngVHbfXCPkYYCpaZWeBLb4KwkjqNOCLkIjK/2yl0S89erBo3YkhNXn2MT75reD8sR5OI2SLY8feyUnT46Tn5Y3DCVdYmyELcT19Kdf3MQxmT+SUFfnpqxgS1wGtUSkdsHICBYYZTtndJtfe8Z4vHUM1X79//1y6xweJCSDUq2lL4iuSkhHCxrQhu+VxljNAPWsCTEY/cNo7Zz/y66KXEEBSV4GIsFcWN0rI2oVGK3DulGdI+udLaoZq+1qd9ovgjEAPpqFy/Wu5VJ3jdcgryPHzttJ5855w3pNgS6PvQSTQj6ODjgWS1kWtKUhY7I3X//r19mt9wU+7B3W9+7mHigbkJOzpBT4dGjDfuV//I0q9s1E/f6I9sld8Dawi2IzZeaTTuchQjSI7uGbN+Nuyxf7LYAioR4CfwxAatVKnb82dN2aZzcGVC4SPlVhGRSzUhpkBAjPdILBXFOo5knCvcn/s9b7O4DjC/7++Q8fSWsYheUriUeeBmwz1LDHn6mbL/0n59nbqF001raa5PMV3I4J9lNpYxk0hX6c3bw1v22ZTtJmdmJTrGb3VochYRI+EjkIIoT56ft6JPHULLCRfGPS64OkQJYHGQvlZhz1Jhm7ad++JC97EZc3Qtu4O6KbnYd8UhY9Wi2YY8cP2+/+J9OWXYL2x5UZD+PV7GugHyLjdTK6xwH3xnSJY7u3W77b9iHGELCXlZm9+hssa6NcltCMKR/mV+UN1RZ2gKsEMeeO25nGV/fDByZS8pGmT57r8AtFysWTpbsp39ql93D+AZ9cT83+kJ49eh10cg8Nzlj7/ov5/G/mbXKORRQ10zELurKkk2NSH2oVAEySNxw52Hbe3iPW1gz7L+qnc9CF2WWrGLDXRRHcS3hUD9kd8hk4qxtew/vtRvvOuwK1iBHfBLhBD1ZmLeavwGR3b/86+fs2Qm2eeiS0h2cB5o2LTqNCrJwcdIuHB+yn/iVrxliMqsvfC0iixCp20vCotdDonyxkjhxQPU7vH0IwnEDKgD1VYCIexqvT/oRH3Vj/338vAfqhxTbcVE3FdBIngR79mvPIM5MoQ9gxz7goXicLJ6aIigyTXd9QdHdIPuYiCo6fvuVn7zLRvZMW642gFIErkt0cwP2syuIhxj0HGngMkQtnoFK/8gvf9bqk0NdP2eu7YAQJsRLNp8jV2aobFR1G9u3G6XobnwR47iTxJJy7bO99tuJiHQ82gYDr+Hjz5y0M8dPg0NyeSe3LH47WTgSEdxeK8WRWfvVH3ul7Rhl5hOlK4/pjehG1hXEI7QZ3/Lg3MUJ+9lfPm58UaRA67Wi0G0sKfIwz5bt4C37bMfeHZBOnLc9FkdsPZ9e6/ZC/aGTsX5Lnpjqc8bOnjhrR5867vlCYcywOLGPLHqfniuM8chQZD//k4dtxzZSG7KfbkC+mY1WNrTOQ5NHHynQJKK863fO2sUpqHFFvhu9V5TrQSuq5Sp201032859OwjgUzCb+FbQBC/MTUE4NLQad1h15yzotGJ0du7fYYdvR3wjv1+9Thb7Hs032yiHdnkqa+/6HyetzLyXG3uCCxtp1m9o4jEHKEz+v/iex+34UbTxhIQ3hnsThbTCytPyjvvuxAyL6CJfB0cQrCqw6KE8ZHuz63NDPf8gQmTJoCyWKlUfeQhvx7fljnvvgBOTZaYHuQ4AEA3RbzYfO3akbr/03idxD54PlY1zvCGJh1h04UlohHajCPjN952wpx6e8hwJQX/W8mWZZbu/aHtCRVsqy5TY8gZJi258yS1EwMKTS0FGmv/4Cn1FSgvkxtyDMv7CIwlEIA7yWpdXqvNcwIMwOofPTXff6vAS3AQ/wVHw7IWSLyOisDGh3Nmf/NKk/db7TzoeRKTJFF54oqUN0NENSTwCQsy1vaNSuv3tZy7apz59AVANw7YTElCZwbMUpUAPFDa2JPZELCm5NpgYh24/aFvHhpgyTBux7ZuIy2hlOAUPZ9+Bj+AkeAlugp/gKHj2QomwvtSrs3jasqBEQ/aJT51zPAhqcGHa9lQOgxugbEjiERL3kKln7MkTDfut//GCU+AomGH5AdnwptTGO71QZGas4V4v8+Oh2wjTHiUZcyRTpOR9hmbTcBktjqY4EOAi+AhOgpfgJvgJjj1hthUoWDzhr1GUltlAe5b5b/bff/eYPXkSLgy8EH5shLIhiUcW2/6Z6cD+w69+1TLDs5ALVmflodDOXdj683ha9kQhz2W+lLOdB7ezkrL1AyuKcjuI/dbmyXS6J7rZsU4AD99UGvgIToKX4Cb4CY7ujdqxl61fRcq5S2g4n1hMLQV9lhmasf8IPggvhB8boax/KyTDAYl4760ZU+S2bCm//rtPQixGLDOT85SBMmFqKZairIYvRLcVWQ3c3TgR4vXN/+JAFl+OMRSiXKdTSpSjEvoD6z88cWs2yF9MmA4XmiM4KQlSBg+qXUQUFweYH3PsfMzWe07VjbFILwuAchr2WB76o4WkhtOgzaLvaWy1/wxeCD88wwIuDMIbxwbRmzUu6z4765LhUGGImlajfoKjLtofoCB67usVNpnGqzBAc+RoNX8WbAyZbzljJQcwl9dxlRVDoTiNbB+p6e6+zQqsmnFCn7inqlfTJi0vhkACF0EnOc4Xs3YziuagiFkbohvnEtE3StSuB6PmPSQEPKjVJ+1Z8EL4ITwRvghvhD/Co7Uu60485D3oOYhFZaOKPfS1rH3swXFs+fyuY66UrqMHhH8nHrhby6nJuSjmxM4D2zGokHWUVHQur8+tnGs9DbrzfRJlZd72LF0wHmMHd9AROdphpQHgsTl3/qLTnf3U/BceCB+EF8KPh8ET4Yu4LeGP8Gity/oTD9zO0QGhNSfbORmlfuN3XyB1HtJexBbkAxcJWwFgTJGeKB5Sr2S4VbKc5Wxs/278GCCSKICV6UsZv9LSOgSUI1V5TQLFAQG7nXvHrDRA/IsijuHuEs6k9Ro36p30RHgAPuSiEavAZAhPKuCL8Eb4E+hgjcu6E48oWzVSXNL7hv3Cux9i13rW5hoK0vxZCye2Q1hxBlpjoKzG6xTkJT8NrZaGQmz3wV0QEdI1MxO0FYJbEXQtLS1DwGGKHkSMabXiShDbfWAPzyOyAEvBW7F13V40/4UHjg/5M+SxKdoEePIff+0hxxvhj/Borcs6EI/Yh8GzeEvVwwY5Rsc/9pkZO3KGRCgVLCoF7oHSZtm5Xi7ITIW1hkvH36dVsIGyNwuhyOUGbGjngLPXBWXOjuc9S2UvkMmOg27RCpOwfkEtjweuRJXBnSVPOJzTrm0AdqPnxFi0c/MuaP4LD4QPwgvhR76ac3z5m88i1otwgEcKY3C8krJdk2qVy5oTjwY2bA2o7+NB52S3fvZU2X7/vUfMpkoWldixvgeL3Kw1sBkm9e4DY56YuAe7ue5dyucKtusA+Vwh0nJvd3+ZdW9V5xsQFcETEgj93v86Ys+eLjseiYgm++MIz1a7rP4brunB/JWAsUUR1LDf++NzxHEoVwfEpAvNsNd0ccGfsgCIja7VZmxkbIvL6gveuKFPakW79rOxGqx9c7cCX8FZyaDjaOSN1cZOtEZ4InwR3vzeH4E/4JHwKSnz8Sw51+nvNSce0obHNmwptAL704+fsye/OgkrpvBqVmY2BO7FIhOiJvbg1mH2MPU1ogu7SbsVaDL/s8F6IY69QGjI4MgwYiKkTrSuB4vwxPEFvBH+fOAT5xyfRNsdv6QSWOWy9sRDQW+YKxvRlNXIAPbAhy6Qw5FJqYwnGmm5ZfdgyZApKiBmYfehHYRZR9jpRUA6U5qJxnGwnMWzWeFUkniZQuzlorewpzeBVRBmQKyPrntmNr5lldA8030V/lS4WGFzcKUGmJ5hnxG44yoWQWUKqJZR8M7ij0NGtwqfWY7LKOsqeDWJMAa8I4tijx1aWQRQdFN5A5emrE2xtQxO5LxbDlAZ/VmloszrtWpA+P6o65cE954sHr4AHMEb4c8HwaM6jofCK226uhY6jzVPBqQVuMbMJbua/fgvPWcvvIA5luxQa8FmreskkgxKJrR733QPIotaImVeZyZ2IyfMRsHMK2R8qDekeUdFq9VJ4hJEusGFiDa4dy46p4F81obwvxvdSlLlbXWOG7at2LAimzPnqUh1aW8VzdEshE5qa3EcCkKTt0qI/kY7wWereZthc6kLEJpTF0I7PxHayQt5m5wooxjGrVqesxAYJAiPCNV+JYoKXS2/BBFDwUAE8ZEHH2VDKV7sefwE894ssWNczQ4e2Gq/8m9u8EWgwNitNk6tg4zA9o/Yzx584rwdOzXFxNbs6twqvHGnB6kU8YSUl32dFdz3iu1UY2sl4Ei9IIxolDuige4K39Yi1L+lYLtxm9m93WzXUGA7BiMbHsBEzENyf4699MA3IR1FfIGQkITl8dD4ifi8j1RzuGRZlvsBVdrOrRm7fS8vowEijhdn+yEiDTt6aharQBEupkI8CvIEhEbcwWr5w2VAmkiLE/qAAIeqbkwQ7YOwjD8iEtqw4QXw6cEnz9prb93G0xqk5kAto67l3LrmnEfEjL442bAf+ZmvWq0yAGuNpph1qNeLNi7awXaQe27a6RxAzpf2zvRaokGUY/+W2iBpDCLrB0dHt5rdsLtut+zJ2XAp3o1dvjTxBkqY9ZQwujm3fKNpmpIV5RFF0AUmZNRcsTU1Y9KhK/FDWu28kGvVt0vEww2S6B/91T8FrimQTRkUHztRta8dC1gwZE5UxGjz+biWuXqbP9v/ogvaalPc0rEnT9j5E5dXfQVuv7Gde1J6jmzYB9Gctl/7+ZeQxpAlRCn3V7Gsbu1zDddU0rTjm7n3F+TnmJ6Fbc+TxFYK0h5nKwUGSf9bR1n6KfJBiEDywPlrP7WsP4520jGAILH5lwjMesGUQ+g19wd2+6FYLHR2FtjWWZUKIgzi5R33QWgIiYqS7ATSC+gnXzJxquhZ5VXx4qfi805cfKWLf4fZfq9Sd7pAI0qhWrmsulWthviu3WZ3w5lcqufsC49P2qNH+t1T0mvhpoZYJ2T2TJP9UfsybbAnareQRvu/bB0dtXMnEIu9Y96Tnv2TgSDX0XFVwau/fPCi/YO3ifu4gnfNge9o/5uzo6N1zlWmiaNckypSukVk9j16vGp/9eHjYJAyosPzokjr5ZKs0ErY2zcIL83k9j1aV6AYVsCXEw4RIGSL2nRkL70ltB96Z8buPpSxElyO+IAcOpU8gQ95IaFjqZA6RmzUbNzT5CM0C0Q45hWXl/WMPzfvgiN58zzXRGt0Ki5U5GJos0IRGd1DnzPs0ypmZxi9ylvuGbJ/9Y6G3XsAxSv7CmeKaECk0IXcVAmXZddF8tTG8yapueVv+iqmRnAfGumfc/lPxsGpWcuVddGN4FE2BHDg1V/+1THHs7BedbxTL4SHwsdOltUlHhieszlC6vG7LxbQvkcF++MPnYaN7beCViwcwnpzF7B4iDRhE6VVsVQEFpwHm7QecKmtomdjr1tMKIg+FZLgvObeyN52pxIlQaDJQAUO+ntdFnYEnsPutt650ofmt0PHuMtZEQ3qW15dtX/5bRUbGzSbxtQjIpNDk14mf2c+r5imdkoMWL1FBLsA3FX0Xicg6wuKdjrU0jPCowweqMIr4dcfP8A2FY2iFfNs2gH+CQ+1aHWyrCrxUHSjhlLifbVx0b789JR95ZFJ2Niy1ZnjYZm1r1cS+yw1KgCh2I/3rIgJmC0lsYhAOyWjjZ9g1iLtzYtC9OBY3V53K8rRPBsEyf1dTg7tUqZ2GtTGMxFcl+K4cvzbNlyy739Txt5wX41VErElJBES5maZddsqYjuoW4RCcS2lPsGjrZq66iHhUVjJOl4Jv4RnX35mCm0YwXTgn0DQ6Wzzq0o81GJiZk2Ww0ywzd77/hcgFsij5CYtsmdTtqEJ36Nii/rOaueFr1KfVtLYB0Nnm1fi68v4K8WYrBnOxgDXN90zaCXJDhJlgG0AJ+LOHMuoc61vlbqFOGLEWKXbm3HR4i23mb3j78EtZPAMRUeTQenZXhFnxpMOezicPjiPJrB9PIRFvVjAI+GT8Er4JTz7gz85Bt4RXAqTKjzsNBFdXeLBKhCKmUYU+8qTk3YcVUdMLPD1YIf7KMe+nJ7MowdHM1FQIoOHsIulQXwehNwyU84nLMvsekAAVBBU3X+h2HfWRrcAQpBD+g3HGWyUTVxZZs1reLs3EL4DopchTXieWShO5K6x0L77zSS4YZ6HffSR70xOTk9z+H/dRrpQxAMZ4C/fltIQO8/LZu16H9TWiRL4ujV12Q3gkfBJeEVn+c/WDS80wDt2SEN8czwUV9bBsqrEQxaGHHk6o2rdfuO/nWIi9CiXsdCACLIgRKygxPkK2XtOabfQ/S2ec0sqS6uq371r1Pql6OiBImVfGaXf4dGMve3NWEwmUXYOVi2cRSFCIpx2pHXBW3BPxkFgUurCzVKEb7/xm6cc/xwPO8x6rCrxkKmvRsbzh56ZcTdm8SGbpWhx1eRVQJxMkIWSTAgr772qC6T8w/17yxa+ld+yB0oE4ehrFOCoynbLrqq95ZWsljCm5LtGtCEMvZ2ZCryLfWTbR06Kx4ITiSjZAzC7XheEb2VElofBP+HhnOn9eg+2eL2dIWmxauFK3SokLvmd9xxBDiPVnq+XLT/e1TdKIapd7jVps2iscuLN51OPNgmJHpPYE6A9l/lbW1T2RiGRbw19RYF8HJjw77lx1m4ewx/GcL3H9yPjLFcLPb0KrngzF2R1AfYATePh2uYWqumFW4RvwrvfBv+Eh8LHTpaOEo943Jp/+ZJ4+cjDk3ZhSquvBrCjr+skHFahrhgOkurzRfQUzFsh/UrLFZ8Ks0sT6AXmVlJg3IH6V9q+dp/P1HByIsBLq6XycBQxOb75NSj+iNlBQwbiu6JkWdU7kQXu+QJCv+Dk7OCyqujum4Vv4J3w71HwUI54V+Zgu/a+KyDpKDbHcxf6htJGYyXbwp995BgefzgIkeTXNWBX3t3TR6L6vi0gcMgVErlbs3dlBTUg/xTwZnb2EpsCAVdZX7C1uGkyrr37qAixkb5TiftnwC2IjGzDQPXae7HKqFNtgM59O3g0Jwc15D1xgW1VpPd3Y0HjLLwT/n0APNQmDQKj8FMrzUpnSUeJR8AAaaBzeD1WKxP22Yen7egxztVwFkN2lX1/sxQXW5wrgPMgUrVTJV6bY9+Z2Wq/nb5UxGoB1PnfwEyhVdotC5164brVQ0/DGXvjbRXyc8hC1Z6+TPQimwf+cxzaSlFm3QCy7BcL3xzvwD/h4ee+jN9H9ZI74imueaVRIZ3FZh8XLMpySS9usY989LwF/VqD8TKFLW1j8Vg2wDbOA2CzYjWAcL6AIrBDc1b1CA+ETEKKT34FhzssWkGIQgwKgnN324trolRMvheCZbx6L3Sls+ek4qBXgHDQ7j2oFI7t118oaotSwCIHk81kbQFkwjvhn7Y/+shHzuOFOsI5FhgvK5uUHSUesqtrxVV05pPHKnb0KN6kOPtoVy/53AdJzHez6b3+5U5JTFqxzWITO1KArea/R6XyfeR8zj7zJFCHkGRkrZBLQ5NFT4hAq9/Xtm+h53TPWhAQfFAJ9Cphvg3t/psbViC8vr2CkKctPNt9vL2XboinHN/AO+FfVA/t+aPT9sQxbZQtPFWOl5UBpXP8tIOLVILEryjJ7wMPoOFlFVQcg8syXG+wEm+eooFB/wOVl9jiJlvWgJUW6cBUS4Qbt/JtaH3+zGPsUwLn8brbhgB1GYerWGfg9/ndsdVH45CDlW3UyQjGUq4MYLPUM0n6sMnpil2cKNrMDOY9CFCF+JIs95YKgW0pNWzXtozt2MpxkVFFh+MsL5SqTshsNk86AIXO8i5lMpPeYqUlog85EpQ0yIo+UJyxfTtKdmScKR+ye3wDRzJeF2aYbxDM6xUprEOUsOI83OKySbiPOXxj3MX/izd94IHj9pJ/dghVgsQ5mfmvD7/F4NtZ4oGjjxxGmX722COXcDVun4VerMHddt7Z5RVS+Ov1OSAc+1NPNOyLj5XtrS8v2h178SvxrQhIH8i+MFOzs/bMTMZOnanb+LmSTbD/b5UNk0NpWlnZs0S1Bjk8U6usRnAzAc/KxT3jegZ5yMaaFq1gVeKRDu2o22vvq9rBreSPYEqGTMAIL1oRJtRzK5iOV/dUE14EUJnmDu8jy/5Jmks7GxCCCLNrwNtb4efmwgS8+pioX/2mzfFLYVGPPXqZrSll/lZiJgjHCuh8Z4mH2CPG4YGPzFgVs5Aa28rg9ubQNXvOV0ezhi0CrBIcXzUzZX/+pcA+/BXpl2RdYH7IbVncAccKUJSp13OJDGjVpm1c8xwaLEIh9mShlvQN2jRJbK0zN/zx5EGcLxGleWIqZ//fx/O2rX/G3vDSkt25l8BHRFatY/mIfUR8f+FFGtriaZErNVbEQwlBDu+UIph+0UZnuX019dZdt0Ztv9DandetqqtvEEyrAOLPPzxtb/9GLeyiHO1DxsemYxChHXVWrz/9IK7o7IrWhmm+Y03ZSBWt9t4hoTgCLC6ZYND6Pc8hiMbqHCBW4D1B7AjHIH3IjsgVPuxS6DlPA9IXKhmTFK1KnqMExoGLlhI9+O1Ip4AruAqieLPUE7L/jLxbRXQuT/fZ+z9r9tEvsjkXT+SoIyRWpRNFZEsLEQIU8ztjowOBDQ9hI5DRhYnl6QahL62UgDanxcHmePmBD54mRSWxZSsU3zpKPEIE8mMnpq0spd4CqeY23wBCTbV6g4SrWbIk1MkRoSpWg10ILURBWCdfRkw6QHZWmAa6DUVb5up5y3O/xJUGnzqEp04bI5QITjfkzYlIIFFBxonYpVmaK8K9yTjGXYgnMKxUoVcq0e7njpTsgw/TVYhV++vYwhASCRG9UN7T0ZHkHpEqwTYmL8nZhb6l3E38Pfz6ChFmoXd0yzl3H4BDVcLq4yeJF5ICbQVlZU/Pe7Fr4BnPBz56VoYhEAaZtFWX4nn19NIhOOkTN568LS6TbQBAXtceNApCCeHl9iExRYPraMaxtyU+Ed8rAiG9ARPI7xEe+k36jhshsUf1xnVTJ6djkSa+JeCCOJE+EPyJ5xr2taPNcPj48RX/Fc3NULvELUiA7RzmfYKp+iuKos5ep7C++hjotlj3cX2Cc50qu/ZyoAFlsSjirv/AR874cK/Ecqbp1LEycblmX/g8HoGsQPJsayglXVp6GgJkB4DhEZZn7NOPK1uVfl8fqdsByvYR+BDEYhE3ETGF3S+nOLeynAd67N4G3GWE9U86o89/vmJTU4i3KyjLg/51XvTFxyatxpbdLitr9XIB9ToPpZe7GgIB0ZpRXmyA2flpLCLnV687/bxHyl6RJjFJrRApTcO5wo+rLS9zVzbFgTLn54kZCtGahljUvvAIYcsrKB0lHg9+4aIVCG6KaKRyCTQkW6elpyEQhcTtSG5S8Br+IQ8/t3piQYnXECML14EQo1e2xOHAbzjR6OlhaKlzsqpF7CoYKPl4sWaf/tK5lp5b7Kb2sRuOh1QtjN+MRSjExy9X7KmnOMaxR0quCBuye5Yu9uZeP++KiHh11ORtbaJ3H1Dkfi+zrqM1u9CdGldnZ3w3OfU5dOVEh/rFpNdOlTJE+4bosjtfp8TOeRgp1UQ+LdGb69TZtZeRBBpO7LWwmz315KyNE5kt/DWbdXxeTtR+28QDkzuaewYDvUaGzVA/+Xl26m76zIudjFnK6w9u1w7EMhrusHAKsoyHuvRWbUHJPgt4mmpqocDtYL8brJxSnHq0stfewvzi/XPiTQu3dynYW2x2DIsEHsLXT33urOOvrGk5tNHLyQraNvGIld1Z9tlAa8+K8NAjGAYJAJNMGes8NFIi95u10HcHgQjp6rHy6w7dOYSMV3dxIXWtLM3zQvZOFe21m8EnP5lVrdbt8J9jOZKnO9WqbqoHiM3DT+HrQ49iXseuUYNqKBYm1l611qe2iYfjBYxOFuFzYjZvp06WncKLqiWUrbUm9P5dgsem0vQjqsRWVBHNzhEPIsu9yFrQPIi/l/gruKfz8WoAJTiq75Pg7URZzhVwdYoVuvrWJX+1TTz0oCI7pbf6/CNnrFxmRyoaM8d1cLzZyxwIepnxEIOl1Ux6LpA6796cciVTWdlCwtP8A3i8Q+R3piLHNrQrcLtupW1xiiXEIx6P5aBHD85ggJBwH4JLebZin//KGcdjQXs5BGE5974IktonRNtrfO7vSO9OTWqUGuSDxXFa4tndy5NWDpvucyF5mSHvk2sP30olyIRwxG9rHgA0ESOp31W0GfeFy/AR0rVBOXwv2/jSdapXY5JbRIVaeih5oPe+5+Go8FV4+/kvTDgeKy9ui/TY4dI+8dBbGOAwX7GnH2endAY1LfMh0JykfMXWiPnXeudYZnnTPjKKg4EjOHhAcTBwB4n3ZxMMy+4xrufaEiorZPdtEht2fDyObXFaoPe2WFznMdeOuYMWn+7t26TvePrxitXBY18FltHd9okHS05Uz9oZ0uDVFCxVTwdlYbiLG0vWz4Xv6OazSuwcsHIoyCoPQr/0RrEeyp0BdwDiZ9vlQEU0mlyC6i7Xc3YGzkMTts5vKfeal5cEn2al/EKcHVryzk16EbxVRPS5y0XHZ2Zry4Bom3gQUoWzScYe/MQxsl5fIM4KZ6G0zIPAlUHoZTEuw65vEdF4jaBso9sD2zXICuY+LppaoK77gMwDS8uHPO84jxgMFzN+JrIZ3gPJIBcuxElKj1bWqyabfuW1V8blyrnNexSAt/XSBcdj4bPwutXSFvEQMrgWm7iGB/+OxCLk0GwlwrHVRnXdfc1J3Awxc04jYoPQjPZiFQ5ovrJMuozZdZ27ToMVxsvO9g2iqF/JfrMqzmxw2r9bcOSKn3rx33owi7cy3At1P3G23tywmahe0gFE2qqyBcnFd4+nao0DLAtjQdyVc4IiRM3p3woRenHzeuMMgXLC30+Dx76nNJjti10LvROP2V5hAC/MVGz8xIzlB4fBjRZGsr03bfynmmxxnQ12AiZ1nj0g9x3eQ9atup0/dwaWHndcTdAeXPTKoh0sVgfGynbbPnZZBtkTnFzJwKmafNhHHlP5MQf27HOaqssHoDxg62BFcUvetu8Ywy07sBNHTrCbPLlJcFf1XB+bWKwR3ubCYRs/PmMXsLyM+DYhrcG5beKhBeXU9DQOJqwCJFcN8iAIK8RmLeIqCsUSE3XG7rjvbpY6bOboAnbdOMrqCXEHRlkpCHqoaAUv5kKbLeftW+4dcCLZYH9IpkYHCmZZdGoZ9g54hETaE9VBrYnLrle5S3fuG7Pdh8Y8b2dIrtfhbXfao5/7MqkaCRJjE+xWV9plv7wbHlBgo3Y2AI9Pg8/bRlpXPzT5tuX3Ep2VPUIUbY7FxmjAZiYcMX9OzqvKrO06sM+CIsBpOiLIW1vxPnKm66Uyh3DVsv39tzRsC/MgrwRQ6nAHiiwtNSwAWGjt4cfItyn2uo3izk+0SZbjWFzBgsP47Dqwl/FC5FZx+So+3HR/teCDv8LjRx6bQpfUOgRaJh7SWKteN83piLc8+lVWV2fVYWCW4xTfevu65s44VDyykVFEOBwLAmXbUhGoemRyavzlGBiA0bIfZUHoV75kyG7diXmW31JmZly54D1f1h/3GfU/IhLIQRznUIwew4Xo/DQciNKWLZengQUS7AOxyTRe0ol8k+TONkxaMnmqatw2dZFbOjARHj/6KEyAUw9mMOyyxju2VC0MoZaJhz8O9OVBKuXf1GzNTp+uY2VRDK1S3bWupV24KV18VpMSkUQbKucVN960BGQQuDUWTjw6w8uvK5AkNgQoI2pYUzKNit2yP2dvuB3kI2+qJppMp+12U7NIuhIlFhIpqpMOrV7J2/s+xh6rXMqwG95yibCU+nGDOPIxak533lEoxuOlcfPGrytk1+/lwlvhr/D4FPg8VUb9wEDGeK5RXby0TDzmR0dW4QFPsIfGxMVpKLeAr4S5m5uCi9solopsDQAh7eHZ6AwmQ33LwaK9/WUV9kG9Io4tF7nnT8sAzqKeQeMvfIfr0CYOn31eVpVBR+5Gm2LL/HckxxK5sqQP0Hhp3DZzcbwFfyPgL3w+eZoM65LxmmU+3ifnku+WiYdgnIF8i5nJszvZsVO8AJZQtEkN0Cq7WYuQRvuWDGwZYOVUEuB219+NDUEZ6ENM0Dfvrdk77qXPbOOY6D4SwpH8XnZPmD4ZY++Y5raZR8fz9uAj6JHKF2Lv5bpSvnemqK0aJ42Xxi1pe2dq765anDt2rBbVztix08Qngd/Cc+E7B4uWZWO8zJHy+zl67LzlYNHlSeh7gEqg3KQlQZhBaQ2dbvQm8RALcMeevL3jlZBHlPIFXz+EiFfGvm1EzLDfC8CTHuJkhQS9n8OSJ4422EaELvVrInesCFHMBrfA1VDmt79jr+iWioCt76TH4i98fgG8Fn4Lz69XWiYeeAOjxOJPUPA9PJ4/jocp6fwjeExtsxBv93S91/XqdXQBbLEZFERMmZVLUOtugoCrbuA09F2Lqnb7/ox948vhD9i+MQ9iIxh7d5ZLMEQGYnrT1JNxolbvt6BWIZ9Vv33oEzM2URtEMYssziu0Y11HuTmwQ4tekC8wbm17K3TTUC7aVuGt4y/KaeHzc8fjPXqE58J3x/tFno5Hf5GL80874Y8JticAOnsONbgLLboL7kOkfBMX6TmyaK3nQNLlsFB/wsoMOgiUoSxCr74hb2971Yz1Madk8tRuctJPtFMyWu2YUEokJfKBro7NqKdJnl20P/zLGTs71UeWulVWwNMG6Ws2NdcB7GO8TchAw86evcxCwSKogeXPUgxfy2Q3qUwL66VJPpcZXByCVOIBSBrgpzbdH8Egn4+tDuBV9xf6M9DXbxen6/Zdr83a3TdoM+sBn1As26xXsAv8b7evIZRHXEWAU5345HJmwP7Xn9XsFI5hBeAXkp0uCcztNDBd50GlOTgPjdvmXvgUwChekCLcBq8npsxGtsydig8W+Ns6xvOCmBtvsCvcJavVEHrnuaTLyr/Zi1ydld6+XYTaKPAT16HpNFm+bD/01rzdeQOkolFCfFHC6+ZVvuOtKdtotbgWXiASJL74Yjhg7/vrWTvLfCqxINUj9B3aNnOVinT7GidxHr1A51cCpqvwFvgLr4XfWhkc3zVQi5SWMV4rTaA9SpF1nz8uzzyB/crj8XRb5C09f3reFERBsAS8NzQkNF1C+NQMckRfoWY/9M1bbM9uOCrM8eI4Y6ua+sqUcwyc1+8lehYvOpgD2QjMqRLvIdMpa09gZ3AAe/8na3b0UglHR7bJREbKB1it2Et1tYr8RjR3pZyNUaS1fqxWe9az3qvxVvicsaMnyM8DngvfncNcpIEtiy1aThuqkH+nzuI2LHhfNb5X/Vjkdb17WvCIP7GfRzeywlIi5ur4bgwU7XtenbfdW+kUw+qKUx+6mBuYQzWfBNcf04Bct1GVmBec6CI5E6KYy/PskcuhPfDJLI5JKOl83modRPTjnUv5F1z/jUvfIYRBaGK8mlzipp668zrPoYZU+C3S6oR1ibCKlolHrFFnhEk9dOrsNPKqRjteU5Yeqs1wNUGn+NthNW9MNjoEfPUBY+Wo1UBp+b2vqdre7Z1x/lLfGw2sGrLrCmEVTs+7vjoe2gc/remZQ1nKNFzDqaRRUp8DKV30Q7bJZAj5uZmL8PrUWfRQSjEm7nCJBaJl4qHRlUMJf+38BBwIla/heHfXeHYR4XDANuWsKpPlH70ma2Mj8SLRKXyqZyqYdouIRLM2E/XZ5x4J7bGjEBKJMSU+ir+HiKxtgZMW0UjLVRCQeHoepanwXKJpLNaJUXhxWcaIUSuVyXOVROmucIK3SYsgAPK5ItG/Y5AsRbE3ItDU/u98bc7276l58h2lEZBaoxMlHynMu8qi02d/jvPX6Yl+K2jfWWZfoZ5H88C7OkWpWmhwTCtBC7xL1e94rFJC4qBj4Enr4XjucT+Qj8VKy8Qjg2lNEyqfJVnqBbgOMsAoBiEtQEB0Fdt4VGMiDgBsX0nXEBvaGASx7UIaKQ8bsO9vfInZnfuoSBs2sfy0SzeEmOp5hH4sdpjTCyL74tEc7uY1m57ts3wRwlHDAQx5mqt+fxtdaPsR7zt2YG25qHFb0pmh7bd054NhHqX5RXRSwnPyfOSkjFpkKrdMPARwhTbP1nJWm3NdXaTW7oRb+60WwgCKek0JgBRstfFLSINLYdWqRMjevCe0V98iZejKx1POXyHp/gK0rHXyREyWS/bXXw3tmaeYQTjR5QtMzgrWm5ZnXudhqV6KcNZ8vPihAVt51zvf0PWoEVGuCn7PVLNWYlFxQrsIcFpeYATsEK+/cxdwaJVgFPN+69G9DfpOCOvsTBPMG38mKhi2jqJyeChr3/GaImY5WdCwEfFpt0gE0D6yDbKoNdiN/cy5kv3eX03ZU0ew4vTPwtEQF4UsFGiT43UtsS1sdiaOp1nXpmy0l2sMwe+LZKqPo+UXnw8tE4+YAkV2cnwqVk4vXudGA8fatAd4lCEeQqB4KVub17b7lrBSs3o1tDffR2LhCKQm3d9KStxvaoCTaSCOfP6JPvv9j81YpTGA8RWX5/qAFfHAtSpmW1GudS3MZsapUpZVYV0bsuFerrVDM/jUGbKKwUUuFbPWMvMonJC15dxlyal45yliJgW8D74AHsHuVWZYcdF3xIR2Y80LIct8riKXy9vBnQS7jZE5gwTBQaO/rfFsVOtWK+RMpCdkr9NqvWh/+vHQXjgLyxv0oVNAKZkdZr5AN8jaFeTw98DA0rZSpQNg1fhILxWPF+I4AyiESQsQgPiHOIedvZTEqy3OX7RMPJzRA0EmpthvQaB29jYFeTLhhJzTExMuzbmiMLmwQb7nEw4NXYX23nuY2A5Y1Lwwud2hJPdDQQSCfk7NFO2PP03G+PNYbEp4i1ZrKNyIuNZF3ikHQ79x8fm4JtASLNDnMl5kKXMPuHQVTAAfC3QNuzzJQhiWcM1ZnEtseRjFwmj4L1+ejmdC27MtaWbvfDunwYSsVerohZD5xaZtuCLOI25UCAfQh+Ly1p1lj2rVuGZYbdopESKPnL8uwYG89+MNfATwASr2I6bg/lXAtC9zygYrGh+NUw3RzQlJOpfnRsi5MiSMS5eIjtO8WAI2LRMPST8ZUuxNTM4CcD22ERFkDgZrfpBFZ5DP97OaEdS15m+//gs1WvGH6YFS8+4DtJLwVa0rCpEnf+L1K1noDvapqUMh/ujBjF0g5MnjbalOXMZGTS6s8ZmanPLx0rilZR4EFIKCl+nkFHhOqsal8Lxl4uGVMClmZ5ghyRI2752b+VCsnqI0taJdvHA+3khogwEkbiMD6HQiZ7fvCq0SlFCWxn4YEkbbKQFeg3/xaNWmSBuY1W5sWaJvSRykiaU4Fc8y107Fq/iMop8vnb/g4+VR0BuS3K8iAJaqWiId8HA8Z66gHFr07taJB7JhlK1htyfVnrLD+PRYtN5NdcFhTMCXVrSJ8RnYYQTqeekKtLCv9/xUboxGFuUgjangQTiIiRaJlmFkCpBBvNX11/vKYyKUUpxfLBfssadzFhaRkdmMOqMcroTVzyUKmjvQy9ahMCjz26xIWo3PxHiTQ2Tckuvr0LoN+ErmA/gtPI8wrbtOaJFWtk48mhXUa8jG6z0hFunMep9WLEAd2f/i2YtMSIkH8bR0Rm2dZ6gPmfRWIAvSZzOwsU2INfvSoNIHv47JV5GXiC6KpWqseYzKdfpAW+WWNFc41vjUa4rPWvb0n6umpw8YV8fz63RyWdATOxMpZ9x6L6PX6dR6XBYiKVYiT1TqmWPjrMB4UWoHefl/a/Vbb+LhzZACLGlLew3S887KQnm3sSwAADvbSURBVBG1CfUzx8WBgKBEzuJp5iEMfssG+SO4q6caB1nBNC4an3y2yFxWbEvcow3S3A3SjBjPhe9LlWURD2YHI6FHqFRIkZYYAiCS9jx1vQKMWQVz9qljp5v5gUEoJqlnMFhHePk0AFHEhsp02jYxc5qjPwgATAE8vLHmcYDfjxLHrFbqwHZBpz2dBH8RPFkdNS6VKdhxnQIoPm4pB3IFvI7Xwm8tNEuTh6WvXqnSEUOqFMmMcWn50Xm19OghuOQRiFI2ES0YkELv9LNnrTwRxwMJowgFc2nPcQ8wKHBsLYt2QxfFQGixQqBMcCC7lKUUiVeJiOUnlvgjS40rzOmIiz8FrEyqi+mQJcjM15Ylnl/tSwlcnbyJOKi9wF9xWRoPjYu2V9Q4yWqocWu176vd9o1Rf4zXMZ6L9/BlZ8GmtU4BvI55k2zxOhd8UW+fBMgiHPy7AuuMPf21J6xeltESb0uFcDqDHyNrHO68dlBxx7WEckFC5g5pgtquTytF2cbmdTI+FF3S46q0tWpaeVVb91xNDGQBY4sQ/mkcNB6ODM12arzifs+HRluv7Z2HkvFz1hS4JL8X6GHrxGOBh9NTS0AA/Ud5qm7PPPqsVWfQhSihL6ugUt9JF3IV9i5RTacuxejBX0Y8gj3Q3PD9SJf5gg2/SqtfwFdwFrwFd8H/mUef8fFoMC5p6QwEUuLRGTguUIsyMRE/MV2xJ7/8uF06jWcupswsrLJCwaM2PToXeFGLp0SwtNKKbrFfStP1MyEGyff1Kmv1vuvVs1rXBVfBV3AWvAV3wb8yje9Ji9zVarWt1+pt062w18DQ+f7EaRrl/gzLPJuxZ792xPIkCtpzeLdtG9sOHse8QOffvHCNMdHgGq91RWeNSFp2+kvEleR74aevnI25lVh8lTphoxWJZzlsxmdOn7VTR05ZfRouC6tQQJIb6WsCbWLVFB83Wtu7rT0tEw9N9YAt0vuHYb3H1c21nfzdBlh352eFF4LJDULEok5Ki6NfPWUvfH3c9t+8x7bv3ebnhbgyJa6m34G3g4aIiOQIjf/604Ft31GxPoKfIvJvGBtJt5Kgp8Hu9UbqwAYORJfDAmHt6HKo1ImKpoRMOXrJGpUEboKv4HiePUeOPX0q9jsR3PmXQYzx/ms8UsJxnZEBXtzRNyzLmRTL8e+FHlqG2CK7PuEQysmQEo6FYLnkOSnqsllWerIzKXx/epLEQUA/4UDa0T8s+cLFLgq3ufaVE2YzM/GYysjaqm9XCALq+QAv0hfOyNO4qWxN1pK1oxvewwRuTjyA5wyxVyJggnPg1HCNG+St6vY/DfCcVKPOWS4Ov5aJh6powO8O9CvNntfa7RBa8/bHTkmYCHlzmRghSS5is91Kw3FCSFarYf4eKpcoVYHZeOhpuI08uSpFEFoJbqGNWXQKYa5qEzMV+/SXQVJWe/1Lyvzj5NxqfTu8BDf+ORw5FlzF+WiPoTQ7enuQF1wdz5t6scVqWZbYIt6vv48ELwzSvPmyWN3p+asgIDqNaOKmzrzNThMOj95BIoSCszThW9U7XFXtcn44tYoRPUdgy0OPRzbUX7D7b+ZcU7S6XnWKW5kAP//iCw2bgfGg2etW5uAlkQW4Cp6Ca8xxiKrAekMo08Vu+UMkPHdZT+a5RcriV655IAPhqGbrtmsrPgKwg8kqds1t6c/FIIDpULjrmcYwF4akACxjAYhINitOwJFQgvlqlnmY7iwpJtuPf8nsQ19CkwHxqHM9CkFE2pGBFakraIw9VzJ8a7Wo4czx7AWzP/qbhj2P2NNMBrKaLV66brgLdUlEJASOZTx7wypwliWraY5OCcfSILz2quM1urFdI3XHd82FxUrLnIcmT5aEuSNb9AgTLGU9FoNpC+dj+E1cnLSB4TEn8NJ/OCa08HS7t8wfM7lBBPlZCETOvvJUYMefj+yWm7J2x81ZGx1giw12q9e2Xg30NJfhMJ49BcE4OWPPPV+waUStUj8u3tzDTrbtNmflzwlozmDIg5RcMxcn5mblaouAK2/8xqxBc4RRt5Fh3Aq0k98SsT8tEw9tEShPvdFRAqC0bClQQOJLWtqDAKvl5PlJ23fjLnehFnR95q8VTHldVEcEJUw/Q1KgyygYP/9UaF94TKIpG7kN4pmJg1W5XOYDZ4KFJSLPKVKL5WhjVJOupskxtQeBlT8F1yFuTiVL+ycvTK46AY7f1sN/xcmB36Pb0YfBvTnei71boLRMPBrIlBkUKDt3kMDWK9LftZrpC7S8605dDS+x2krAWysjIvjiLXFh7TrVyGLtYY+ZAO5BwWyKkM1wrLD6GXaon2HXeqdnDSgJa4VIhVJfZ+rMA35royhtr5AJub5ehXaLw2gAyxoErjKtXCILT/T1amL3vTfmT3fsBM+b47xYH8Qst1zktbdtax8rEgOUkPyWn05vFAQ02ZMJHlYbWAcwLUofssaEOFfux3oGOcjhLIbFhfQWbBaH7kBEhCg3/GAtV0HBq/MMd4ivRJ2cpNrFNMpjKeJctrqOhMOnEyStSSukKNVeZAls09nWJgSYn1nGettIX+ylu0Q1LROPQIoTBiqvZDJFVh/yIqRlORCI2QpN7kQe17w/ffysmxmVrm8tc0ton1gt0hl5mbKXbIHhRIJxaVQch3QZYT6OllU7JaqwvSzem+I8Ss4lrfcU0PoVkENEn3FC7V1aTxe15UzKF90rvM6C38Jz4bvj/Yvuik+0TDxkEagRocjulVYowr62/OQib05P++BMnLvEsq5ANTBBWJqWliEg4qckyw22t5xC+ZzCr2XQLXqj8LpY0NLBtrKeUnJxRF/8ykLVQ+FFkAYHmpN9oXvScy1DQKJKBhfgmYuznpwmFddbBp3fCLmFXgQ2O1FB+bu8Z9O7F4aAFrHBQem/uA6+L1VaJx4aKUnmVLp1O/LyGiezWaoT3XrNdUfoGE6+cBwUSJPStDWOWAROHDnmYnRKfNuC4FUPCa8dv50Yg/SO91fdMvejZeIhGpRnK0HJw2Oj8gBIJ/scFNs8cEkFRcOFUxO+s/yVLG1UKBFmFcUYZbUIMO9or7d6ftryZMz2jb0aFYZYafoisqyLN0IsaKAgNVKuo9jV9i51MqVLZ26tuLRzW8fKNTBRXjSyP9qFcfw7UMosMc871oReqyjRv6lfyiyn4ImxUSnA2LRL5vkl5mDLplqn6qRuk21/bLQPx6aJ2OqitzoWLPEW3ZOWF0MAkCnepVAo2uXzl2z7nmHg2rTGiOi7p2fL9P3F9S9xRmlHa3nyXlQx14YDRMiabRk2u2Fv0Q5uD23HYIUM65hta3k7hdn2eQJVj58imSLesQW2W6ihPc0UtD/L2llcfI+VprJNk16OYRfQGQl+gmNGCUtTCrLEqL/40nzrlFz5Fc4ytn2AuafAQi0xi5fWiQcrkKhRAzv/YSaYHMW0g1ySBzMlHYsDedErDJAyXolgnDlx2rbvGuFWVlAnGsidq6iVDrWyhEU2p67Zjq05+/a7MnbTDjJv4fzna0HQ71yJHIZu3hbZG2/MmmLOHny6YY8+F1q9gk9IPvYBWbR/Hb4Qw0PwEYUQ5c3Y2ZPj8eLl7gMitOKR09IOBDxVZT20Q3vZuEsglgPhEhW1vqwx0WXjD3IZO7yPTYKKsdgiyuXUy9+2xJvSSwtAIOYyMsB25vKsh5PHK4HMuQvc3sFTOcSUCAXWS27K2/d/U91u38M0wdM0wmScUSg7P2WM1+5qDRaJqn4M5OwbXpqx73lLzrYNMRdcLu5go1qoKoZLPOemCb8X3AS/OEvYKgOthfZ18y0iysLrw/uAp8RT/i3FybVOPCDoYmIkvowMZm1gAO5DNeOl4xN+KRLVzRBd5bbL/TdfLIKrGTYjOk+AVzPYy5UKnXu5NAIxaukv+URqRXv1PaF9271MmFoBDlLmOQiC3FzRsisoLgxQavAtW3+BTz8ii3Qg+/vNfuAtZjvHCOybqzWuN35H59p9bU1aHTUHBSfBS3DLS2xZbWp7bUN66He8+GvBIuXGYB78BqpQBo12c3gX7G3LxAPizkpE+Dja2Dpy7tguXIE5J5Zbzk0p7VgQvtc5KbYQ9WRdkatZuzh+GZ0k4gAihYvvHeTAiW9DL0Bz8B7Mwe6/4raqvermEm9ndeFakNVFSbGaEgFHBEaZFghxIZzTh0aFuLDr/sFC3d7+qqKV+mg77VTGKYQwiMnqFek8lNFA8BGcLp1GUQrcaiFt8HavNulavb6tV82QDMdf4bESR4+NsXAYqwOTReOfePAu1D7NlNaK9iPx6UG0JWN06OAgtnXWqhyCsAiUNu5Iy4ogUJ2t2oUzF9hICa03sid40bESVeAgqE/+EKHN2lvuLFipMRMTBb2lRXfRLCKMr0j8HS3U7J2vII2hlKeE8otwyNtztYqyg4W8p8aWnufHz1u1vNbmntXq2frV63gL/obgsfD58KEhx2+xCsJ3BnbRxi0D46H6Iuz6w/9D+yEcBHVZgcqJkdCKlpb2ISDWUVGs506e8VSPYsuXYhmX+6YMdYtrlFRy/0v7rL/EipPrR+eYi8e1Jb8dcRdSdMBhZHmWOm8czdj2fjgBGgtjEE+45Tau5fvj3fdkXTl36gwiFsFbkmHS0j4EhLfgbwZOUvgsvPZ5B547vi/BS7ZMPJAsvYERMjAcju3f049orLBtXkJsREPycVpWBAEp/sps1TCNEjCvDGPIoJ0qqikgabHMr6+/DeSHLRXaaYJI2Kh7vs/rvU1ysQSamAhp8vC43XcbvAjnM1huEuvb9Wpq57r0MjlyTExdniGCtgwhTAlHO3Cc/4zwNogIv3c8roPXfY7fwnOVBO/nP5Mct0w8/AHGipAZf9GB0bzlh/NWmNpjYfGcZWqEcKdlRRBoMGCZRtFOPD3u8mfEqtoxAoIBPyIEfws6CqQiEJ2AOLVWf9BnSNvRSokXelhantOxiNLdh4i0lkikOqUcW4UiOEjlK0e2Fx4/yTfiUrpgrRjSQa2PaOlzVpzeZ4WRgu3bFuO38DyeIIu/ou2RLpVKduiGftLX4SxGzocMq1paVgYBOT3V61Wbmpxge0QIdQdZct8mEgQcGiKCVjFKK2vq3NPiZHJoTNmy1i01q6kylZ+HdDaVWTKg1fGIFcVKy4ogoDSTucygVTKX7MDhkvX1tc4EtE08xLC+7K4ByxSllS2glV1csbKi3m2ih2O2nJBo6T5OkCy0w+ZHeWGWMKBAoqi7cyKRdCk5zSS+PZnzKo2Z9DWnXzirqccm2/ifSH5Oy4ogoExyKLAs29ew+14ytCxOt23iIRbyrkMjVp7FlYRVIDbzragf6cPwA4JrjX0RTjx3HHNkZ5FDDl91F2VdVukMvCW+iI+hqc7ddNJEdE0LJbqMvzAO9yG5ixemOo9rILT8n7G1JbIZknHfeXDYRdFWa2mbeGj67UQ+inBTNrJRIYC2+s70vkUhEOs48sgAymI+cWnC7xRB0b+4JN+LVrLgBT0lX4hp9kuQzUR4Nz8oasGHWjipZaNOZTUi1ETrYoNtCw9e95b5feZm2qsEx3UUNuLMPM6FfqRlpRBA/Z0hmx2OgmPbgevcPLt+vW1BX+YxZRwa3F62Q3u28XL2yljFFef63eiNO6QMlFxfx2lM9vXzx9EnyZQmzBdiuhgjst1GYaQzuKNPE+iGtwQVoPeYV5Ve0U5R8y5N474uhSzty3XMZB/3W23UhFb6ggvAQzCKvUlZtOSdlpYVQUBcoxTPB3eP2MA2WbBkNZs3MZaovS3iofo02ZRd+VVvwmxXHyADOBM+LSuGgAiENi3S59L5iygHWdsZSzl4euBSm2+QikOrtXZjPDOFjgr9hHMKTb1Ka9Pl6pc7Maucty89SWg/DkY5FpQqWdE6UZIVUJyMdBtl4HD5wmXggh8rr5AI0+ok70R7erUOhGSiqofs1X9PflzLG7vl3T0PgiJOOZx0XvfyEdhInHU6HIsx71Wb5lDIGCME4gvIrhR7M1MEfumf4Mv1Jq4vGyYZmTUx1UZRzf72i9TDmIkozSGp+64vu1rM9NvtiRfKliOorqGcIG3PqKvfrT6rdXGsT8amJ6bRx+odXGHyyS1dMErLCiEAmLOY2F8PHgufW2Q6/KVtD7UnrmHw9m7hpXgr+livsB+b/nERDwVvUEQkpKMIazF6Jyvtcgb3KnjCEYSY7hWt8uR41cbPVUBNZo4q9FX8qruv+yMhYp/8SsNm63AyrvaSA1m7AtDVr1QtgoVzN/yQYo9tx/y3ooFTruNqeLX7S7NL+LtniHQQ7tTcutW0beIhg59T/tyMHd49yDHNSGZUuz3Z7M+ByBIt5KWZlSkSeGTcJwPWXasuvxWA1k5RmH0OS4t2iMvzed9nQPpp6oIhqbocIJ8JtpfEkaJJrvzbh9RfrJfjicrcUsIYa0zYE+cz9ndPxN6m0l3i5CxNSjvNe/Ez9FNzKpcVV6sXautLeTRDUDy9FefahMWLX7Y5zwhfBePDe9giMDvdBELrvjNtEw+357OSyUr7DW/dDouN1+HcqpkSkk5Nx2yHHaEkDmjVrpAN7D2fYvwK05a9zHgFl9CB5FDWQimgEA0F5pGVXO47ylsb0w88UbNsVNWYtVPnt9iH/haRqm1WqHUIiYB1Gg6tv7237nSC0Vzkha/C27eCv+wRTqwTHwUotVjaJh56saIri2Scevk9Zn1E8c4vazGp5r+vV48VxdqUYTrYRTgEkP7yRM1+64MDdowVoN4YgRCgrMVaEjG2NTiVCg5EoW/YgnmXuJWQlb/aKNijT+fsPQ/WrdxoeiOuJgERI8Nk931TOwiBzVrVtXjZP5Cxl9+NONvMHJcwAK3Ap9WQhhfVJeLlDWHilFgdDx7I2tNPyTIQr2wveiA90RYEsmQc1mrhsHaYt1XNlTqaj5MSg2A49jsp1+29n6zZPaOh3XljzvbuIl6JRUGB95JAQraSayA6TDG0x0/N2hcer9ipCaUoLFtBaSg7ZF1ZqFfebxoBX4QY1/ZUXajqTX0uISDiMg4fIjUDIjKsp0N6OYBpe0S02HjIrsudBbv37hF74gkCuhTiTX66hvw+xOumZRkQAKjzTAgOY4JHBEYdSz5NBn4Zlc7dKiSU2KJSLtWsMEMgmzSotZx95ZzZl4+TabA0Y3vY5HgQd2WJCjV2lDt3qW5nLmEuJfgxV1CeU0IS6nAdqzm+zbrj1qI6Jv2lF77UBxEWp26r2oj4lT31V/CTmZ4tA6V4vvclW+kelje0VW6qbYK5lT63TTwiGqC9RqS00pR83X1j9r4/G2eCk1KPVP3k2PbVazXnVysd7KZ7hBSSOGMCgeoRoRJazDdwprgitU0dyLVEJ1/Fm5C6GUYnTFKmKgtMtd5nz5NTOCkJksp5raQ5xgrleEvbliEeJ9W1/O0EokkY1P8gp4ZqpsXzTe1Stm/9SktrEBDsPPI5wqkzO0A8Ut1ec+8OedKw4Dt4ISgQEU28Fkprdy1QkeRjd0XGhBZVKzY6krFbbxlhQsr9mazaKNvc9rPAs+mphSHgaCEWg6JjRdlmFbYKfuisy6OriCtCSA99928dxy+Lz/N7NamF9/rqP3MEj2bI+qRcHoJLUuYfJ+fS78UhIPcKbc0p/NQG57fcMmyjw+QLU+Ip8FjwFF63WtomHprOWo1U8gVEFV78ulduxSNy2llMJReR8S4t7UFAeJsjIZAIiIp+r7YjnsYz/kCq9B9C5qITbUiutdebNp+iDU36xUop4qEESTqnSS5ympblQECu5570BxGwNjtjb7h/O8OMBEFItM+vZcK0beLhDjvw2BHxBf4Pdvbe2/pQniJEkyOgEZCQQluxp2XZEPBsXIymsol5bAs1xKtC/L3sClt+gLfwXuc4mkgaUxFVwAn/tFzZim70/jq/FVej2JZASlMRjhXVvIkfVp5a4SX4WcTD+GXga4NzofRsogRaoHRPi6Vt4qH6xXhIPoqzi7GHLft6vOLV+HywLWWAG3HDM3K32JL0NgZPy73GURI/sSJ9V4iv6wAYY32vXhGncfXH3yW64e9dzXdf3auF+pnvFwekyS1AiIisXXuubl13/hI+ZvDraLDZ1ytf128j/VqckA9QrDnTIXAuA6QrIh7XgrCBX8A7vmW7lavs5yHPorQsDwJNeTNhyXN5rbTLq6Jn7wYO+WKcR1dKW8HFOaSe7fBqdEwRyexBPFO0d37T/hUv7p0lHlCtAwMlGyiwQiC+ZNIcH8ufAQmxQBws9sUyvleyjBVh+S/dwE80+y2ZvFBUNLD0HbEOZjmr5Abu4Zo1LYPZXda7gcFJNu7Sniwrm1QdJR5qSgFDy/d9zxgh2gx0Js2ovryZkVCOOACsULraurC8unrrbulABA+VVFxpb2wVfl9HbPne7x21PG46sruspHSUeEhWr2XL9vY3bWfVRJiCmigy1NsoVnMZZqCVdGrjPivyqqnPt8YNyq+veAg5q8u+suoajliJazo/N30BLnmJcb5XhKwD6D1iIF6BoQAIMGPiEsN6U8NNsHIRTxAB/wgwLMHNvv11+/ALxBVghcBZ6fNXv97DpuE42BX57peg1sLaopgIwiRiM6MUgpu0JGZPTXp3xFHUrIeWy9nJqYb7USgJkKJW60S39vcPXoFWTGGu/N4sR97vuPN9BFDVwyrwwbwI/+1+RvwV/NzvCHjKpCv4xikMRJ8375yLPQ6BD4RCeCh8vPtO5l1NxASYkvh4JaWjxEOR0tlKxqp4Iv7A2/dY1rNVYUlmUHMFZNUVNnYlHV3vZxMTaGLNCMn5GSCDEm2GiIdyWVwZ5shqOGtBsW4Hbz2MCBgPz6ZGAB+4mAAUB7J26LYbgE/ocHK/F+Dm8AOOgqfgmsA4gfl6j/16vV9+HTlwUfgXsXALH3/g2/c4fgpPPbPBChoXC5ErqODqRyEQeagaq+aesTwep1vsiSfJi4g5t1yesDyRe/EacvVTm+eXHIHj1dBXRhL5euZ5TGiDW4dtePuQf7I43bGAuv8MwNs84FmkpzHx1CIU2eieYds+NkIi5DppCSft8nl9LkA0sMbIA1XZzJhvrlj1+jq6Pi7Swo15WtxYpTKDG/qwKIjdemvR9uzME6+EyTYPBxLPxrYb31HiocbWUJLmYT0qIMA3fvOYff3JL1g22uVJXeQau2JBq+2urveDkA26LxdvWQ76+gdsy7Z+Pvusb0vJsqTx0w2STT1LWzPNXko7roxbhFgsv4QGiYGKAwXb0b/VRveNWFjdZ7MTZZsgx+nEhazNzsSJbeKNrpxcX6lkEx0paVIuh9MmhCO0U/ZN33K/VYg5K5KzpVZgs6eGTN/tL04dJh5yF6OxsEpFMORVyFeH9t9oR09dhiuX63P7Dd1QYy7vOFEAp9wCv2TKmCjI81anlfFLK6DykOo7X8xZaUsezmIYgjGEQhndEFGyc8UPgY//j+voFXDN9XGFB0rjKjne9R2CcVOHloXbHdze75+93FSZrUJE4EjOXbbyZI19cIjpgGsJFKHMdxPIfMOu+C+NZzI3NQB8/D6/3L1/6EcDvGsQAHd47012/x0EGDJvMyxUjqdJl9vsYUeJx7VtCNh39Z3f2W+/8qsXQZ4ynWBbynn4cu39G/63JqwTDPQVTczWLmwRFD5QQmEnIso9oVD2ivWxOm7dMWw79oxa/6CydDFdkcml6JPZLEPC2bS0D4FEnJlfA3HBzLWMjbKVwNi+UeKDzGYm6nb21Dm7ePayzU6VEZ+LnljZWHnF60VRFYU+ikXJihodLQwQE/3T/24tEUTDiHCvVcDD72JjevBR/etUWVXiofx1L795mM1kJuzCpBRZel33ep5KQad/gfz/GQNZRLT6ieuoN6bxQ8ja1tFR27V3j+W3xHJ3rPXPWkW7S/OQMmL53NTPtHQcAhkynUm0EW1X5vUQxWC2mLWxg4zLoZ2cRyk9GdnpEycgJuetClciTkbEIkLpmsPaJS1JFMRciXQn3VroDXMta7tGh+y+m9B7gI/m7v2d6VEG4KwadETBMwzK3z0xYe/69Sd9RRbD1LWF/jiw+COCQYIt27J9xEa2bbH+oT42e44nrpsQITQe4IYY4/kRmMx61hkWCIeg3mReuhYcG7Hhc3BtSpbOOABrmW8lpiitgd/DIqDdJqqEUsxMzKJ0lb7kMvoTxsV9kvhWB7t4kKQbEqf7kz98q73yti3M2cQtoDMjt6qch5zGwqBi992Mcmvrdrs4fZ6kumAcgxMpIzYRfpkIl1Q3SHemQ8uvRVNEaJ2U5Nh5DD+peRdKi4+9vH+w34a2DdoWrCMDQ7CCyNt6Xvdonulpl8UxS0v/Ec+9JtHhqjazdv5FAjyENS2dhYDED62HSda1GNrSk4ho8GGcfFN2BkYMRzFbtBKu2tt2bbWIbS6mJ2fY1vKSTV6YZs+cGc9/oX1NfBx9fKnAi0Z6/vjpOJk78R1r+5e+BezoFZUwWUM5WdyULn/H8Ha7F/yLwMOsiy2da9Wqch6i9O6IAsX7u2dq9u53f40OshIL2dhERNtU5khM4taFzvVp6ZrmliYhOVNLk4iPJ7qRkhNtr0QNUW3NDSnZSuguto+N2jD6iwKes3Xyesben1fqWPql6dWNDoFkLmjMQzLH5zBlVmdDu4Se5ML4OSuzEbSU36IPgRMTFkDfJVHzR4QpJlqxHobezptna9F3LVR1m4VAlJBMaKsWLsTqH/3Ru+z+m7Rg0woXxaTX6UxZVc5De3jIQzZkt7L7b8DGvC9nJ07lSXWHArU+xADh90FGbu9YZ/qzZC1zE6R5V0I0QsynubyUl5CxEAqNZCXz6Y69O237zq2wuvSBe9Bs0PYacjGKJ/rlmnstSeu96CzZ6/TidSGg8aO4foqlTaJNtV62LDqsHftHbNfBbXCMZhfOXLQzJ85YGbNwrcqeMtLGMvj1WpVnQFZxk0nRgtRcnJJTq/ktbirXAJ/QylfZGiOX32p792fAuwKLNHOa9KCOjx1sxKpyHiJ22hNVHQvqkT1+Imf/189/BW+eIYYIrzcoeSNHlyRjrkHRYLrMi+igf0lavxobS0skGdu3H8sI3AWh3ywueODFhC2DVl7JaOq1eqzwTBIRN4nGWk6SNQDTpnvF3PjNH0/GW56rSosgUVPu3VokAuaCxJtapWZnT1628ePHXLTJy5+C69JzJdxscrwWAJUOLlOXHwy6HOkVa5P27372pXb7HvCMTGHxBtZSJHSurCrnoW6IfcoSyVcmge3te9gj4lVb7YtfIrovmLJCftgtFr6Md65Pi9aUsJRSnulYosfIziHbvmu7lQaVEBiLEHKhJpM4C4kwiWk5wtFGJlgtQbHzkQhjU38h7iMtXQuBZF7Mjac4CMZZ461x9+uRosQ1LZgYpPEr5uGkbx2xvTeSv4Z9Kc6fPm+XxiedeIho6Nmk3rUAjDKAidBVG/hURcP2yldvtdt3B1aBOyqBf9ohA0GLpnRuoV5VzmM+0BwhOXH0TMV+6ueeRvxCqwCBDGq4yUq5s8IifGe0QHZhvX7ExSdEIpMyqEWUYwNb+2wr4sgWrCRcckKh+/RxbiR5OP1OIbAEBBLOwomECAvTePICbgmIN9MXZ0m6o9AMdHxu4WnO8WSdgRJ5Pg3mXCfWHnHvUT60PAwStML+08/eYgd3yq9DaJG8dInOtHFpVTmPhdpzYGfJvu1b++0DH6paoTaLPAbCL3TjMs+Jy3GNOoRDgyryEcA5KOFrhEPW0Oiw7Tmw04lHjmRFIliR784cOwUIwKsF5GV2Jb29SyCQLDTOjUi0QSE5NDpgw6NbiL0JIR4VO8k+FpMXJ5ib6NSwHxDS5/Ndz2rdik3IK+cGlEs4i1g9m+m373pb3oRnviquIizXjPNQH5z7IL5lCo++f/6vnrYy5qM82kkxCyst2n8k2VVMZlVZT4qDge05dMC2o8fQAFfKVVdyZfPSjjfb4/qLlQ/eStufPt/dEHBlK5a5hJMNa6jXUa4X2exGy+P5k5fs5JFjVpmOxV6Zf1U8CrgDBhAxF3V8OoqIV7/1GzfboDye0eOt5oK4psQjmR41KOSzpyP7uV991Opl0hV2gvUQMYDHyMC6bRvbYbsP7EUGBHgokGTzFrHw5LkiVJySH4D+uQNX0rD0O4XACiDgujTnK5IJzWSTP5PmnjQOzLmwmrFTL5ywC6fPomhFLyL+I7l9Be/W/M4Vq/bvfuJuu2EMV0w8mTtR71JNWnOxBZ83V+zctD+0G/YO2lPPER5MJG4U9aNanbY61DIIZTadXyRSxJpsbYLkrJ44Blg/F1EA3MD2vI3u2o17+DZMrVhGoPoZ7fNKNVImSQ0iYqGiY9WnFUHn9J2WFAIrgUC8ECXzKJ5pPq8UykDx6yxkDZQSB2/dZ/tu2GsXz12wc6fP2PR5EmahpBWXoFipDHNci1qINTLWl8Q1eEXNPxG+HAHm4igzCMc9S/0Fu3Ffv920j2fRf9RlugWjVrOsOefhUaYAB1uXnakV7d/81FM2G07AGRBTkCFwDkVqJLPY/OLILlEjzsLlu1opGI3owOEdW2znvp3WN4hnHYMTYhJ2/YU05jGtmF9TepxCYH0hoGkprhdWIYsJVdac2amKjR87ZZfPTrrZN+aUmd8QkNgBDe4loUvN1gfgC6E4THG2jkTXMpAbtl/8xZttZw63gwI+HSI8wrNVLGtOPBxwdDao52y2Pmkf/dSs/eEHLtDZClriWcuHQygvmprppOPYmSSSZLXTFfcpBf/2PTsRTcZc8al9TBXUpH+KjIQhgYisrryXNC39TiGwHAjERAMOgykuLkO/M8x3+RIptdeJI6ddpJEfSR7XeZ/HEm2uwYkGPh317ASnCZHgvu//zm32TW/ox91+0F0OZHJxkX05jVvmvWtOPCS2qCglodQRjcys/cy7ztjTz00a3rUWDuD63dyywRWs3Osh7lhmCmxSswtdxq4D26G6cCfc1/B7RTRE0fkwGD5AUF3JgWlJIbCRICBxWeKIc8f8kIJVhEQK/oB9jzLoSJRO8dSx8zaObqQ6AxHJ9/FME29UASWEmOSmEctLDbv5xiH7+R8nYrjBfZrzLM6yN7JtmN+7Wn/WnHgIoeXWEQbTAJANd/l94Vzd/o+f+Rq5FbGQzPbjERcDKiEeRYjG7kP7cOgadE/QMEKfoT0ogKPDkkq132YdkSUxnznAUuKxWvMmrbddCMS4709LX5drii4+Vf0PXAk6wCwpKpV579KZSTv1/AnMvrEon1hPxLnXBlhQSTnw6z93p20bldgPfx6SdtDg3iWxzHtXu81d6rk1Jx7XNkZkIiAO+uMPRfYbv/24iyTOURBxm8/1E19CMp0DoxAJQeNKufb3lSvpUQqB7oZAsmgmvZCu7+wLZ+3sictWq8+wcOLDAYci0eZf/7M77E33QXDID7G66tGkNVe+V5evufKeRY+0nW0FmeMN9xTsc/cO2sOPzFqxENr2fdts9+GDnjMjJJEOgsmidaQXUgj0EgQS7iImIrAjcBC7b9llOw/twlfkqF04fpnkUhm7D3x5/T1FqyKmkFAe+X5tobDunIcApEjAAP+M2UrJfvrdR2zXjYeIasTVtoi2GW7N0140Zb21BU/6thQCaw8BcRqSx/XPi+iH8ETxbhWMsog6488etV/40UPWR3rPiBCPDH4dCdFZqxavO/GQYieAOlTryG+5PhufMvuff4E7b24IjzntEobPhjgPmVDSkkJgU0BAyo8rCgtZKHO4JdSI5s1hZYiwUv6Tt22xMfYES/AmQt/R2ZjZ6wN63TESS7csVCSl7SNIvw5AqmRdH8JEhRkLhzGlinOV9PX7kt6RQqBHIHCFcHiH4EKEB8IH4cWr7xpyPBG+CG+EP8KjtS7rTjwkqKkRysuK8dYNTK+/K7Ib9nC+7Ol3oB2uhl5r2KTvSyGwISCg+U+KH8eHG8GL190ZG2KFL8KbGInXWOEBZDYA8Xjx+GSxaX/L/ZEN9GWsn/3yPBX+i29Lz6QQ2BQQ0PwXHggfhBfCj41QNhTxuOI4U0ARVLPv/9acnbsw1eRNNgK40jakEFh7CIg3Fx78APhQYh/jDBGzCa6sfWuuvHHdFaZXmnLlSMJKEJL+jVyML8z02R9+WKbaa+TAK7enRykEehoC2FnsH3xzYAf62QRdjpVZ8GOVvUdbAeiG4jySBisqsCEA5Uq2b8Ds/ruIRtQGS7jkNvAi7eaNo5I+pt8pBBaHAHlHmec+35n3mv/CA+GDto4UfmyEsjFa8SJIyOhE/khUzDn8/d98a8buuIGw/VkiEQuEKhNRmJYUAr0KAc3vHPNc8/2OG6s+/4UHnnDId3zbGGi7MVpx7SxAQtHGSUreE5EiLCCL+dteUbT9e9mbgr0yCkrIkZYUAj0KAc3vOnvM7t+Xtbe9vOjzX1Hlsm/49qYbpN8bknjIECWHUimFlNOgjoMYtNi+57VlG2C3+ToBQ2lJIdCrEND8HiDthOZ7Di5E89/9TYUUlE4kDO8E7DYk8bjaU06EQxQ3sr5C3v7RW3OYrM6x4xyUWGkg2ZxHkbkpL9KJ6ZDWsdYQ0LzV/NU8bpA2M8IJbLDvvM/zvjyRtXAc8dbbMaqKflyNH2vd4ivv25DWlivNS47ExrHnt7KdA7rxmaz98SeqNjkl9iRnRRIp19kdnR/JA+l3CoEugQAu5+yoWGFHNyiHDQ027PveVLCxfvlyYHckUXLOxfSNN7c3JOfxolFXvo7/v71z+7GrquP4b+99rjPTG20Z0BbatJiGFtCCBTQQhRqDhkRD9AkfNP5Zvvqgib4QRUMTAiagQGss5SK0UmwVWorTy8y57Zuf79pzOtPpmc5A57bPWaudc/bZ9/1ba3337/5jJWTmM7XJ8cR+9GiEzRthJuqQQ4hCTTcd5Fd4Cmx8CmjctgGOCnWbm4znHz9WceNb41zj3U1Qxv9GbKUAjxyri0t0As+W4iCTwm3csyO1nz0Oqxc2rBKT48BzHRtxfPl7WoICGrdRPINZtmHPM553byfXHuNb4zxzOj+sLC7Aa4kTrcPmUoBHQm0XmW0pmkeKQsy1uSrYR7btrob9/InAOmtXK3sdushfcpgpIJ6iS/7dXzwZuPGsca3x7cY5413jXuN/I7aS6DxuJl0GgQMQOkBx+uHl0H77MpXASUWfUnA4IAtZljRI5XbzcX6Np8B6UkB6/rDSQZ1Btn8KrGeE2v/ku3Xbv4UN5OlQYfjQ+XKs510u79qlBY8UDiRQrQvygASwfB9fzu33L5u1yJqek229VqeUZdJcHhX8Xp4Ca0SBqNK2XpcSI3hLj1EN4LmnzO7Zggd1ighOPhvl7ohUNqQErbTgIRd1lbURmcFrgCKwi9d69puXQ5tBjMlUNbwcfVCCYeJvcaUowLsNzgJzLLr/nz6V2Z0T5B5V3hpGskSYSBbF2VKUK3XN1TpPecHDpWoDNFxFLqpsKX89eQ+udWv2qz9Ow/7VqfHi3dhXa+D48345ClQVs4VrwS+fmbAJykMqk0+OI6TsiRVARTqPsrgclBc8XN8Jq8Ve6BvCKxKXZLBT1AB94dhF+3R6p5G5DWSnilaKOZdlz4w4wvmPNaCAG50MuDyioFlSNzJq2l2bLtqzT0/aNsqLhNQuMsBEabDmxnF5RmjJwWNuBKSAh+sMxBmlpW+1a/aHE7mdPo9OBDCJxjDxCkk8fMwRzS+tMgXQX4AYaYugTsDia7ua9sPDgTWbPThlcRvFy04ZwcrYhgY8yCuNnkPuvJIpKQqF0jROevbSOw07fhpFdtaDPUSMwXbufULKOFTLdc/KwSFWN8AqmOCz8ch+s6MHVYuo5kLtNVbFY2isFnEW5Xo+3e3QgEeeAhgRQURFNtiiJ+i/CC32G/+K7NhJgENl/vTQCwpIFTv7T0+BlaOAYrH0IpO/wNGHEjuyN6NEJC7ofanEWWZlGcTlYIP6cSxFjaEBD/oCfWkRD+BkSML4MaJbCxGmSc7Hc1eq9utjJFkhRkaRuoWepN+T6ub+8lIk89s9BRZSYP74KZYzwENe0c9/r2K7NsfWpgD7mOoqE8eCTZYTaKySswMFaVndkYYGPBZ25/zf/fJ9l+PAfncst/9QU7tGvdsETqWqzOzY1kkrixacfhUK+eYpsAwK6B0kI588n3N8M2K43gqcRI86s7soF/vc0cC2ECmrttYFmZZx+7e9y0iBhxKp9PKeHTse2D/OUmGcHKkRsTEGqMhClroUb3or+OYpsDQFMkyrERYT98KpIJZkWPXIMfr1vYk9fZjKboESFXvwWJqSZdgD5VWH10UDTuPtM7m9+A5g0kXrzRukah0UQA04EN88BZZHAYkbOdGwsTVQ0MPNNjJ75mBuD+wj3gpOpCFUkZJ+SNtIcB79vnMWdZTbvWqMkaxq05S2fOFv1+zs500cdMiNikI1pOi2b54Cy6GAC9ZEIZoAEnu2t+3ZRzfZBCUgE+CkFlctJZ5teKEDXEQfUPBVy6HWsO2jJydq8dg7XXv1VNPqhMJEbTqfV0qN5V6PYDv0IihHhu3J/fN8UQrgp5GieK/VatZjjCClWMoY6bL85KGWHT1EMiq5lY+Q3n2kwUO2eBzbrQJLcvZ/sf3prdA+nQmtCSuap9jj4UZIWk1+hS860vz+w0aB/jgI4DKCqGdtRNy7KIfwzMOZ3budxNygCcUf3b9he/bFnmekwcOZa9GQ9wAH3id2pZvb6ydrduIMQXdwHAEKsKiKbV5WNd9GmwJSqMdd9GN1fIcSO7yvYo8/mNgWhkcPEbgmLlZKkBFqIw4eSC10vcoIR8mYqzYuCeX8xZ79+Xhsn0+PkeWJUeHDc0doSizyqITDpriab59o2fcfwRS7s4ZZVr5FgEpFmeyUMlB5dEenjTR46GUhLblaDGhUMOMirwAiCLNsfPX9nr1yCpMbbxZJLm5/943b8exrRqKPd3cXBcvd5vdjESBfhMj3+72HEvQ7VG574oB0GwINlB3Y9xPMsVWNIe3oOY9yD4LbvfsCIDKcfxBdiEm4jEPZi6+17fRUxZqhasYY3ySt5W1TxVMwIGt7Fzm4Ko8h30pJgZj+q9N/eQBE4JnchAttoxCtoCtvMw72bY3tB98es604fkXESIWMA4XQCy9GuY005zGo450KFWcyvUZSJZ6FNQnIGfLhxcheerNlV6ZJc4h5Tt6oMWZfhSUE1oUtQfj1rZwUCNBlkIGf8CijVIrzGs1xHd063rWjR8bsvp1wo061TvyrM+UTt4Lzl0qijnLz4LGg990gASwCeYtJxY4+RP4hIXEJCZG6fz2d2Zvv5tbqkQKAIlQBClfCZxhMC07kf5aGAnICVdhJjgIj68U2VovsyMHQHsPZKyJdYEYHO38NxaTQ3xJP5F2KLa40z7gaN+rBYwFVHbMhLViBHrgeM3h4I1XqyhhSZcBkNoNrzF8w677/UYrJju14EcpM51s5KaAKKSHex01ElwN7I3vikczGSd2AyyD9SgxUl96FIwnFbsr0xsuFbrdR9yf04PElxrsUahaHyMO5vXLS7K23GUibVRJCA0u1RQU+iDs4iLhM2Ly5lNhW4o9va0sBaq4xydFPEIOgSNdU/QIfUREHgX4jRemZXQ3smw/g7PWg9Fmsryp1g4DCt1tRwIPHraizyLbEWgy+MRCDCEpiYq506vbGKbPjH8CBgA9Vwq4zMpmljZiXFPmiEgKkZlnjRU7pV68SBfoiZVIlexcBkFEX7pFMXjHpGlQG4eH7yLVxyGxLo4tVjSDJTOBP/xr969stKeDB45bkGbxRtTWkLHM5UQEFuF6XomFqxuzE6TYRuw0SMado8Au1SU88Lk5nkd52vq0pBVLniJFgDSMdIL0GhNimemgP7enY4f1N24aXqFK/sNrprdiN7mRPhVn7dksKePC4JXkW2Si7Poq0lKGoUVd4eiiwDtkZ80tnpmt//6hqJ8/ENtWqOQa44vb3rPAiFF211UoQlRI2D3zbHeMxEa9V+8aenjXG64Q1xXCK6r9+4QNETzl6oRhnwbclKODBYwkCDdqcu/eXBlnxtlJIv15wSipkZG9XzG4kRSrL733StddPRXbpcsPpPYp6PnMOSO78OlZMib5nW2EK1A/PrfRpIgI5Us03bfXpNkumPim1r7pDhcF2bG3bo/cndvCrTTABsYTjq7KhKXs52536A3RxqTdYdb1/5y7slwZQwIPHAKKsxCrJ0xE6EU1+ImQw7SLSvJ3Ya++FpARo2zgydY+U/BqxFUSakLwiMf/Ii8sRZDVjREcpopHHjuvdocmdRvhcgNROtECHUQUMsjpqUeJNRKwaJTZm0EnV4qZ96/7MDh9CewHO48XBeTgKnQb6U99WgAIePFaAiANPobHKIIX/YIHcqfwLqU+aUE/37BWzN/9JJO85NuE6EDAhpECJMPlqDiAAyRqI38Gsv8nAC4zeSnF4AbZ0DCZQE4ctaJdiYkVBQVQBBGNxz26zIwfM7t0MaakDm1G3GJc+R2j3re5gV99unwIePG6fhgPPoGA7uRZJV6o3JqI1C5J00JBIKweXcXkmtjMXKvbuxxX75AI5MDlCupQIc6/EG1l+3bgfeIURXClaMvEljqTScqKbkOfN3ZO53X8vbuSTCV6hsG6sVZoa53ujfflzwANNcfWjG5zL1wgScGUf2YPHytLz+tmc+gOgYNgy4uVaBufhfsJyCzsY2gx/zLiUjIDD+Ayx5YNzqf37k8DOX8qsQ+3dEDsjRQi1s29QQD4bGa6gDWq77t4R2j1353bf7sh2IrbkcCRJRUKMGtyJaA1IS5/hOA6hOLDhPDgc/bWfb7dDAQ8et0O9FTr2ejI3BrUMiillM8/8N7dTp7t2ZqpOnlUmAwDjHJzwG5GrPPw4O+MiXYmR44m3YZaIoZFjbC69AKDl5gvyTwgb48zKbkYxfTSPBrlHasLNNt2TY5DELl1vnFNYWGwo1s7f3N+Piaw3vaatkk5r98xpL/UcWss66XNY1vnkFh5RvzVL4BokrwGacgnXM0b8Kd1fFZfx/du7dmhf3fZ9BX0QZRrFWzh85ko33FP/Pvz3qlLAg8eqknf5J9dkzZllbv5myuquWUkiXRXsxj3+/KXcTrzfdvlWY8SZGtGeIWGfsipWcaEPKzDkRHymknWyIqWA5n2IxScALQQuqSxAju2B2ee4QfN++Xc8eE/dv8oRSCxT3ZJI0apScIIUmawb2kEXDnlGdDwVyhRkSYbDroCCYwlb7hG1WoWF2HNH2w4faNquHShGwZUGAWw6QerYuqY7DQPYAwdUWY/mwWM9qL7YNecBiPOMBAcC0ttpwqf8KU5PKQGmO7ldamX20WehnbtgdgHntLgjgCDHJiCit7sz9TJJBUqptLARgMLkZBMsvTQvajfCx/xKeuIWOPSmtnC9KqPd2OT1ousXvhXugilAgXZT3IHOGfAsOqwHaEgpXG2ENomz1u5Js707M9sxFtpEowAMiXYRICQgykku63Qes8An4OCkN17e/1ozCnjwWDNSL+dC0pAySZh+0pFo2cilGiGGyPdAphmJAXqLCwacEhYxp9PNbGo6sEvTkV2YMrt4LbdrM6lNt5igccXEqUSYhXPYlAhuJQCFMpeYdeHE0zVZ5/7rOjejhwMA3ZfbpA/dy/wmRzmegfOnIF0g5zjMp1WYjlo1sQm8vjeNR3bnpsAmt5ntmEht20RuDbw+pQeSclMoJ27JKY3hYKQAzRJYkUrhlCcdBnfHet0/J/ZtXSjgwWNdyD74ov356HQSzAs3lSV2iN3nhyLCNWfc259Jpamj/P6p2BSajteECzXpAZguQHMNLuXqTMcuXGnYVUpNXAVQZsjV2uIvJbVeovR6KGclCbC74wwcZohLkLZR6zmvuxYfgbS+7KB7cH/81DUjlJgV0jVG/I3hlz/O32a4Cf1Nbunw3bBNcBN16V14wIyDnRpEN06TboOcj7PXkrWElbqGWA825fjM5PhoOKjSLWhB2/nybX0o4MFjfei+olcdxCEsvIBSCyiJEZ/u7V6TYsLNPK2jsZzAoZCmBJ1CAVwtxAopOiWaSKSR4nUMsUjzVo5W6DBxcOOHAETngAsSAvWkv+B8aDvgQDjWhbK7HRb98ArPRUmzYTd48NiwXbPyNyaByMECIoXKSggwtEZWG/gPjBzymnCI4i7u3u5uae7DcUWzP2XRyUJxQCAIVhJ3JCdUeQKnoHFnmzvf3Fn80jBQwIPHMPTiMp6hzz0UuyqoT7Ch1M2zcMFPiS1q/ekuCWNh6+/T3+T24QD9VoCZPgsYKXiRG6+78Gz+d5kpUPjUlPkJ/L0viwLST6i5SQ5LIQvG9Ta7KDVtv6H2RC/R/62Di50KsJHw02+ABJuK82utdBmzPif6Nbdj/wD/PSQU8JzHkHSkfwxPgbWmQMFbrvVV/fU8BTwFSk8BDx6l70L/AJ4C60OB/wPhS/byj7Tg7AAAAABJRU5ErkJggg==;" parent="1" vertex="1">
                    <mxGeometry x="1370" y="-590" width="51.72" height="50" as="geometry"/>
                </mxCell>
                <mxCell id="NkAxZAtzzJqoS2XVmBnt-115" value="" style="shape=image;verticalLabelPosition=bottom;labelBackgroundColor=default;verticalAlign=top;aspect=fixed;imageAspect=0;image=data:image/png,iVBORw0KGgoAAAANSUhEUgAAAQ8AAAEGCAYAAAB7IBD2AAABX2lDQ1BJQ0MgUHJvZmlsZQAAKJF1kEFLAlEQx/9bhmAGIRIRHbZDh8DCdI91MI0IPCxuYoWXdd000vW1uxUdAg8d6i59hKhPIFSHPkIQFQRBty7dAi8lr3laqUUzDP8ff2beGwbo8+uMlTwAypZrp5YW5NW1ddn7Aj8CCGIWPt1wWExVk9SCb+2Nxj0kobfT4q35u6P07tZFtqIdbmePDyb+9veEL286BukHlWIw2wWkMLG65zLBVeKgTUsR1wQX2nwmONfmq1bPSipOfEM8bBT1PPEzcSjX5Re6uFzaMb52ENv7TSutkY5SjSOBRSQpZWiIQkGEMoHMPzNKayaOChj2YWMTBRTh0nSMHIYSTOJlWDAwgxBxBGGqqLj17xt2vOoTMBegr5SOpw4B5xYwYna8yVdgjO50WWO6rf9cVmp4nI1opM2DdWDghPO3DOCdApoPnL/XOW+eAv2PwHXjE8TVYsADy/L6AAAAVmVYSWZNTQAqAAAACAABh2kABAAAAAEAAAAaAAAAAAADkoYABwAAABIAAABEoAIABAAAAAEAAAEPoAMABAAAAAEAAAEGAAAAAEFTQ0lJAAAAU2NyZWVuc2hvdEkSnZAAAAHWaVRYdFhNTDpjb20uYWRvYmUueG1wAAAAAAA8eDp4bXBtZXRhIHhtbG5zOng9ImFkb2JlOm5zOm1ldGEvIiB4OnhtcHRrPSJYTVAgQ29yZSA2LjAuMCI+CiAgIDxyZGY6UkRGIHhtbG5zOnJkZj0iaHR0cDovL3d3dy53My5vcmcvMTk5OS8wMi8yMi1yZGYtc3ludGF4LW5zIyI+CiAgICAgIDxyZGY6RGVzY3JpcHRpb24gcmRmOmFib3V0PSIiCiAgICAgICAgICAgIHhtbG5zOmV4aWY9Imh0dHA6Ly9ucy5hZG9iZS5jb20vZXhpZi8xLjAvIj4KICAgICAgICAgPGV4aWY6UGl4ZWxZRGltZW5zaW9uPjI2MjwvZXhpZjpQaXhlbFlEaW1lbnNpb24+CiAgICAgICAgIDxleGlmOlBpeGVsWERpbWVuc2lvbj4yNzE8L2V4aWY6UGl4ZWxYRGltZW5zaW9uPgogICAgICAgICA8ZXhpZjpVc2VyQ29tbWVudD5TY3JlZW5zaG90PC9leGlmOlVzZXJDb21tZW50PgogICAgICA8L3JkZjpEZXNjcmlwdGlvbj4KICAgPC9yZGY6UkRGPgo8L3g6eG1wbWV0YT4KeUOESgAAQABJREFUeAHsvQmYZNlV33nixZpbZVZVVmXtS++buqVuSa19scQqhAR8LDbY+PMYf/bYnmE3fJ/BHrDBIBDYxgwG4wFZLDMSCNQCJCHQ1lqQ1C11S63eu7q61qy9co3tvZjf/7x4WVnVmVmRkZFLRL5bFRkv3nLfvefec+7Zb6ZBsbSkEEghkEJgmRAIlnl/ensKgRQCKQQcAinxSCdCCoEUAm1BINfWU+lDXQeBBaVTBNYG/5KSyWSSw5a/59ebMZ5foIp26m25AemN6waBlHisG+gXfrGQcT6yCbX9HN+OnDoBgvoX35HfHzVPCnP5JNcTusDlKNA9ZgEEIgoja9SzVqlFfBo2y3ctbFhYb/AdWhgFVtc9nLu2ZLIZy2UDy1KfvnO5wPKc68sHVsxn+ASWyYUWcE1tUwnCLH/imhpx85od0HW1K6SPeW+bHlEv4g7qKyZvgomf16VmvbptPqz0Oy1rB4EMA/HiGbJ270/fdD0INEIwJAuK1fnUwLM+y4KLDZviDAga9luRW4RZkRATJM04IYgs5Lkyj5y9cMkePx7ayWOzfCI7c7pu56cvWrVet0aUd8Rt8HC2UeXhjAW5AtVlLaPf15RGpsC7Q4vqXGPqhPzOBCJ4Nb5rVsjlbPvAVtu5O2d79gW2Z3+f3b4vazu2jVgpb7wjtGwuaw31AbrBo+qMVURfsjOWo5cZGzRoGDfP0kOICmehZLSNm9KyYSCQEo8NMxQLNyS0MggHwtahClqki/qKTIxEphFwHnqSm7EXzkT2+HN1++rjl+3IyapNTlSsNlW1bFSwXJC3WqYKjmb46EGzHNxAIwJrRWwgGOIIQogTX5zzk1zn+5qS0Yu13kRwJnxnRTz46WuQqg4yVs+C6JyDDPkb87S/HtUsDKqWHyzY0JaiHdqdt5fcvtXuuDFrB8agE7VBOBYey9A7XhuoYRW1hXpyIoT0xUrXtCb9uZ4QSInHekJ/kXfPZwajUOw6PEauYVUwKeT3sWNT9tUnZ+yJ56ft+Pglmzw/YJWKiAMFDIQsiIGIERGS4McRdYgtCUFoUQrEChV/xu8X9Yh/+QWREdUx75Tq8dI8KYEiQz1xe6+IFcg9vJsHsxAC2ItMkPN6EHZiggeRiSBQDQiKyFmxBEHZNmP7xkbstkMD9pJb+23//kE4rIYVRCrruisHZ3KlMam40hyLdfxKiccaAT+W3bX2CyeFDPqwsIJIxmqrs/otBI3qcBaw6GLrZ8KqHXlhxp56PrJHvnbZjh6fsakpxA2IQDabc51DyBKteht6wPErxnKt/GIpHK2pGJTmBbEOwQ/9nfE56ULi1qker4SratfVpSECpEd0P/fBaMS6jeZ7vHbOeQs4J95DlCM+r7/NOvUKySzqMEVcRZ1+h4hSmXxkgwM5O7iv3+65a9huORTY4QP91p+Fy0FyiaJYp6Iq4qc5gl2JuKbf6knzjRw3+6+XpKWjEEiJR0fBuURlwhl94tnuiBPCS2QaRXQPkWULUjBCFKoZm5is2RPj0/bJL5y1Jx+q2OwsjwWIH3lxEaDfi3F6iRd35yVJTg2IT70mIlq1vj6zW+8r2htfucNuGxuwLUN5yxREvHIWViN0LXAymQpEqACcm0B2AkX/YyarOwGxgVudEo81Gpx6o8Kc1trf53MZMd4qyPElKSxh86fRQXz0E+fsbz42acdOz1p+uGr9jSGrROMuYmTgMqzOyiuORBxGj5cMHE5DStIc4lgoxU5kxWDMZjKTVrtcsP27+uwtbx2yb3zTqA2gY5H4NIvCtiT9CsQiptMoXNEL5TIoitLScQikxKPjIL26wkQEkDXDLQsoDZ16MKnPno/sw5+9aJ/+0jm7fAELBux4FCHba6XMTqIy6LewVgIxZGngA4GR1BCjxtXv6b1f0onQK1e+QjDpezZfRmUzAxyGnPsKAvQ4QdaGt2Xt9S8ftW9+7VasOgBIYqCeRVkcW6DEgnC6KSL5j/TPiiGQEo8Vg3DpChLiIZ5DSsTpabNPfvGCPfjFi/YCptM6Ignzn4/8L6R1QEvg+gdZLHL8lg8EcnsszLssDxos/dKeuCpY0E/wXioYiWvYdjhAJ8K34Cr9SQI36K7lEG0OYBp+3Su22htfsc0GBrg90bsAk5R4dHZipMSjDXgmBCGZjFrXZPYMmKiO14gjdTiFbFTifMbKrILPHp20T33+rH0GojE7W7CCnDNYTdPSYQjAqVRxGunrq9lrXzlib7x/h91wcMhKYkhg/cKgbDl3MkE3wsBFECWZlxNyfO3Ydrh1PVVdSjw6MZyahA05SeHMhTgi94kczlkTtZo99Ny4vf//nbCzp5C7sSIEBZSkLJNZBPO6yzGdaEBaRwKBHMQ6RKHU0FhUIRC1wHbsrth3f98Wu+/wmA3l81bHWU1WokA6KFlu8INJy/IhkBKP5cPsxU+I9WAyVmuXcNneYuVK3X7/Q2fsbz98xuqlMh6gWyAYEI0sBIRVr4bfRoi8ntcKmJaOQqDmHF8Ov1QUzBw3wgqEpIAH64TlyyV787fstB98204rFXO44E9YIT/iHMgc69HR1vR2ZSnxaHN8E/ZWj0smNxShR0/W7U8+MGEPP3naYDoQW6AoxGw08rIATOApKqUpqyGOXjhzQEdc+9lmC9LHFoJABqsMHnUAH40I4mOIWJKLIN41ud7Ly7VhMB9232277DvfucUO7uFeFKvzdamJOLpQ/em5KxBIiccVWCx8JMLAfGwwGfXPnZ5EFCha5RpwD0ePT9ufffSsPfTwJZw0cdyCSERcI4TMfQ+0tAX1flZAJrSsLZKzuS+mOl5V+qdTEJCyGaUqf3DAgygwVhHu+2IN5VODvZvvLDopudbX7b57R+w7vnGHHdg3AAEJr3CDGivGTdqQjIi96Hw87J1qadfXkxKPFoZQ8SUNZGfFcUjBFhHAZbWcnT4V2p/89Tn71OfOWU4OS40+TIiyAEBmRHTSsiEhIC5Dbv8BNvEog8ULx7w3vGbUvuuto7ZrN6JkHhMwAYdSgIcEB8rjNY2refFQpsTjxTC5+oyIgHyU8sgheIRmEUMmLhbsd/78Ofv0g5es0I/hMBxkjUK2hkPxianVTWbFtGxICCgqWJG6bgKWFYZowzA7ZdWZhr3+dSP2Q++4wbZslcijMS8QtIecA6OYch5XD2dKPK6Gx1W/pNdQBKtlyhbMDlgdP4L3/Nk5e+AvT1lfMIt1ZSvKz0nPV9GAajjB8DiVq6pJf2xUCCgqWYGDGmeC+PKkAmg0MKWT9uDbv3W3/cN3jloOP5yoD+ecRgmCE/vgbNTurHW7UuKxCMQThahoAZoN+0t8ND745xfs0kSVGJMGrC4OXJgElTsjyOQhMXLqcs0pNWo543daNiYE3MrFwPrCILc8mdhr6LXQl2BCzxXqxNRkbGRLwb79Hdvsba/aIbKBziruTqpQbcIBJNm00rk6DhlAmYmI4YZ/TSfUZGSiUVRryGx5+uhl+4M/PWlPPFG3LJ5GSoKjYKy09DYEFKSYzRWtXm7Y7bfn7O9/xy679dAwRETLRIgUAyWRa7DTIDgXsqdJQb6ZdKqbm/MQ9WDwG3glimgoriRHhGallLWZyVl74K9P2wMfmXAtfQOvryAzhfa+n4eaS1Bv48/m7h1raoNMZo0GVrK69CNle/u3bbO3v2WnDQ+QzY3UjfWclK4sPvzLyFtY02ITUY/NTTycZNQgGkV8MmTeC/E+LNqzJybt5372OQsHUZTNYtYLLlkpO8Ik4rp0GzIFpqXHIUD6Q0XzkvNReq1sg/HHOzg/Hdq//bkb7Za9gxbUSHUmDhW/kiCoQDvkqbp5FpZNTjykz4BmMEdy2PXHyxn777/9nD32xCUUaJoKBasRuZZBWaagNkRitPJMEvwH0tLbEIhQiOeivji5Ghyq/HMKSliUZbLg0v7SG0fsf/sXN9hYCcEXXxJJspvNvrapiIeS72TJiUESLhYI9BpkDleejIhgqc89VLf/531H7NIlFKAKlPL8nZJjieB0BzGOFRKv3ynn0duUg97JiU/6sIZ0GYpuxi9E2o4MVKLBahPBgY4Mm/3j7z5sr7kPziNUECTnySCvlGYYb4ixUd7V3l1oNhXxwHIP+4mFRElm4CaU0m6yNmW///6yfeoTx0gaI8/QzbZ+9DwdWLUOBswjca6vf9M++8HvKhF0h6lXJzDtNyTOkHwFL5FVe/96V7ypiId2EqixEEhjnkOSfW48snf96lE7fx6FaZEs5drTQJaXtKQQaAECntUdvUimUrLR0az9+I8dtBt2Ei2NwIufseUVidC7jAeL8CYy1ZZRfJWQYxthzT76GbPffe/TCKpY+fvxBJrdhvhyEY4kTVnXAt6ktwCBhm+LsQ0m9ryFM3gQkovhh/7hzfYNr5EeNW9lxOESjme9WjYV8SCNKMaTmr37d47bVx6dRrehDxsMEXFJ+hjYTDxJe5jN7NVJvF790h4zAeJv2JghRWIRq90knwF72T0D9iP/dJ/1hSRp7uG1qKeJhxK9SAeuYLUMQVBHT9bs1//n19k1DdMsfhshhCRggDdNke8CViP3hHV3erlbS3uMkxOh7Erpp8jhhBnVplJX+S3oUT3PPbGXJfcDYj2noufi5Mzco/oJLNP3ZikR8ynLfArJNrT3QMV++J/cYQfY3KqhYElPTIvCVY5lPVJ6mniIdsh/Nosjz4Nfm7Tf/G9HSCxVZAAZRN8bZQQF6WSPDGUL3RDeg8y++ROHQnRlKBchEHGNmqkGhO66FUqhv04//LeOIR4iEnpGhEY2CN+T1s/hLiWFM9e02dNcpKDX0vt/ArLdR41LWGiImcEyRwoi+xf/8rC97s4hkr9jsQGcPUQ7elPnkayc2FvZq7VuH/v0lP3ue47a4HC/VWZrvkFzpMQwTP6s8mpsmgKRcHoA2mOKjglATED8AiboLHvN5vwDy00Mjzas5iknFL5BNjEf9TqwY3OmEDd+35ISyiIOxreFgGaIOPPXCXeTDG0KCIeCH/0OiLzWRuHFvrxNXZ6xf/qDB+0trxtkr17mWjNAJubcuhssvcd5MJG1IqqUSUH3W793gcTDKEKjaSsOIJdWhSBsaeA2NfKObhLiIQIQKnsZViaJGfm+ImHnIzbMp9RfIiEzvgoJR91kPZqMx1Uz3KUWnYmZEvlLWY20i+WZil1iQ+3Jy5etOj3LeXElebg++UskfMtVVfXcj9j/hz7LTFufIV9tzirTKNqCAXvDq7baP//H2/BUjpUgGo8Eht0KiJ4hHh48D7XPYoSVtTULsfi37z5jTz13CXkz3iPV9331jZo1XD58vTGxk9UML1kRB2Qx5wLUxzhmx6y0JWNbd2xnj5MtEIsihAKYOBvCM5LtmgTjqokcsylXnYq5OhGGJvVIntO9UBsXhZDxRUwuX5i0i+fOW/mSkgyrTfEzzsfQ1thbLz6v8ev2IpjEZFLw5Jhx8MRQcMDak+eWG0bsP/zYThTzA2w0Lu9m4mKcs+tOl/aeIR4hrDSx8gwek/ZMYD/9fx+xiycvMjj9DBzEP9YLdvv8XLD9sR4iRt6ECihPRYkd6bftGmYT6WHrGyAzFkQ1wpwoRbJ0HIlOY8FKOZkg+/zrcyLh/JPzj6UTkYIaMUaIIc6kOlO2C+dIZ3BmgpUYL0zOiYzEog5ik9IX9GoyaDqazL8onLFte7baL/zvh214BzAiCRGx/3DC3am07xni4a7DsMpHxqv287920iqTZc9TGdWV8BYZtIYZFlm+F0uDfktYC/LoHVjhB7b2256De21wpGDlatkKfbjgs5fJHLPgXMLqQsKtLlp94WqCHOISOhaJMJMXyjZ+fNym4Eok2oRVkEdbaTp1X902rUftEbqhXL5EQmzERaJwld+2OFSyn/mRPXZ4rADNhDvpUveAriceyUqouIIj43X72Z97gcxxZZueYN/SwX5XYNWqREMWyGCuKMkeKknffdUmYG/ngVHbfXCPkYYCpaZWeBLb4KwkjqNOCLkIjK/2yl0S89erBo3YkhNXn2MT75reD8sR5OI2SLY8feyUnT46Tn5Y3DCVdYmyELcT19Kdf3MQxmT+SUFfnpqxgS1wGtUSkdsHICBYYZTtndJtfe8Z4vHUM1X79//1y6xweJCSDUq2lL4iuSkhHCxrQhu+VxljNAPWsCTEY/cNo7Zz/y66KXEEBSV4GIsFcWN0rI2oVGK3DulGdI+udLaoZq+1qd9ovgjEAPpqFy/Wu5VJ3jdcgryPHzttJ5855w3pNgS6PvQSTQj6ODjgWS1kWtKUhY7I3X//r19mt9wU+7B3W9+7mHigbkJOzpBT4dGjDfuV//I0q9s1E/f6I9sld8Dawi2IzZeaTTuchQjSI7uGbN+Nuyxf7LYAioR4CfwxAatVKnb82dN2aZzcGVC4SPlVhGRSzUhpkBAjPdILBXFOo5knCvcn/s9b7O4DjC/7++Q8fSWsYheUriUeeBmwz1LDHn6mbL/0n59nbqF001raa5PMV3I4J9lNpYxk0hX6c3bw1v22ZTtJmdmJTrGb3VochYRI+EjkIIoT56ft6JPHULLCRfGPS64OkQJYHGQvlZhz1Jhm7ad++JC97EZc3Qtu4O6KbnYd8UhY9Wi2YY8cP2+/+J9OWXYL2x5UZD+PV7GugHyLjdTK6xwH3xnSJY7u3W77b9iHGELCXlZm9+hssa6NcltCMKR/mV+UN1RZ2gKsEMeeO25nGV/fDByZS8pGmT57r8AtFysWTpbsp39ql93D+AZ9cT83+kJ49eh10cg8Nzlj7/ov5/G/mbXKORRQ10zELurKkk2NSH2oVAEySNxw52Hbe3iPW1gz7L+qnc9CF2WWrGLDXRRHcS3hUD9kd8hk4qxtew/vtRvvOuwK1iBHfBLhBD1ZmLeavwGR3b/86+fs2Qm2eeiS0h2cB5o2LTqNCrJwcdIuHB+yn/iVrxliMqsvfC0iixCp20vCotdDonyxkjhxQPU7vH0IwnEDKgD1VYCIexqvT/oRH3Vj/338vAfqhxTbcVE3FdBIngR79mvPIM5MoQ9gxz7goXicLJ6aIigyTXd9QdHdIPuYiCo6fvuVn7zLRvZMW642gFIErkt0cwP2syuIhxj0HGngMkQtnoFK/8gvf9bqk0NdP2eu7YAQJsRLNp8jV2aobFR1G9u3G6XobnwR47iTxJJy7bO99tuJiHQ82gYDr+Hjz5y0M8dPg0NyeSe3LH47WTgSEdxeK8WRWfvVH3ul7Rhl5hOlK4/pjehG1hXEI7QZ3/Lg3MUJ+9lfPm58UaRA67Wi0G0sKfIwz5bt4C37bMfeHZBOnLc9FkdsPZ9e6/ZC/aGTsX5Lnpjqc8bOnjhrR5867vlCYcywOLGPLHqfniuM8chQZD//k4dtxzZSG7KfbkC+mY1WNrTOQ5NHHynQJKK863fO2sUpqHFFvhu9V5TrQSuq5Sp201032859OwjgUzCb+FbQBC/MTUE4NLQad1h15yzotGJ0du7fYYdvR3wjv1+9Thb7Hs032yiHdnkqa+/6HyetzLyXG3uCCxtp1m9o4jEHKEz+v/iex+34UbTxhIQ3hnsThbTCytPyjvvuxAyL6CJfB0cQrCqw6KE8ZHuz63NDPf8gQmTJoCyWKlUfeQhvx7fljnvvgBOTZaYHuQ4AEA3RbzYfO3akbr/03idxD54PlY1zvCGJh1h04UlohHajCPjN952wpx6e8hwJQX/W8mWZZbu/aHtCRVsqy5TY8gZJi258yS1EwMKTS0FGmv/4Cn1FSgvkxtyDMv7CIwlEIA7yWpdXqvNcwIMwOofPTXff6vAS3AQ/wVHw7IWSLyOisDGh3Nmf/NKk/db7TzoeRKTJFF54oqUN0NENSTwCQsy1vaNSuv3tZy7apz59AVANw7YTElCZwbMUpUAPFDa2JPZELCm5NpgYh24/aFvHhpgyTBux7ZuIy2hlOAUPZ9+Bj+AkeAlugp/gKHj2QomwvtSrs3jasqBEQ/aJT51zPAhqcGHa9lQOgxugbEjiERL3kKln7MkTDfut//GCU+AomGH5AdnwptTGO71QZGas4V4v8+Oh2wjTHiUZcyRTpOR9hmbTcBktjqY4EOAi+AhOgpfgJvgJjj1hthUoWDzhr1GUltlAe5b5b/bff/eYPXkSLgy8EH5shLIhiUcW2/6Z6cD+w69+1TLDs5ALVmflodDOXdj683ha9kQhz2W+lLOdB7ezkrL1AyuKcjuI/dbmyXS6J7rZsU4AD99UGvgIToKX4Cb4CY7ujdqxl61fRcq5S2g4n1hMLQV9lhmasf8IPggvhB8boax/KyTDAYl4760ZU+S2bCm//rtPQixGLDOT85SBMmFqKZairIYvRLcVWQ3c3TgR4vXN/+JAFl+OMRSiXKdTSpSjEvoD6z88cWs2yF9MmA4XmiM4KQlSBg+qXUQUFweYH3PsfMzWe07VjbFILwuAchr2WB76o4WkhtOgzaLvaWy1/wxeCD88wwIuDMIbxwbRmzUu6z4765LhUGGImlajfoKjLtofoCB67usVNpnGqzBAc+RoNX8WbAyZbzljJQcwl9dxlRVDoTiNbB+p6e6+zQqsmnFCn7inqlfTJi0vhkACF0EnOc4Xs3YziuagiFkbohvnEtE3StSuB6PmPSQEPKjVJ+1Z8EL4ITwRvghvhD/Co7Uu60485D3oOYhFZaOKPfS1rH3swXFs+fyuY66UrqMHhH8nHrhby6nJuSjmxM4D2zGokHWUVHQur8+tnGs9DbrzfRJlZd72LF0wHmMHd9AROdphpQHgsTl3/qLTnf3U/BceCB+EF8KPh8ET4Yu4LeGP8Gity/oTD9zO0QGhNSfbORmlfuN3XyB1HtJexBbkAxcJWwFgTJGeKB5Sr2S4VbKc5Wxs/278GCCSKICV6UsZv9LSOgSUI1V5TQLFAQG7nXvHrDRA/IsijuHuEs6k9Ro36p30RHgAPuSiEavAZAhPKuCL8Eb4E+hgjcu6E48oWzVSXNL7hv3Cux9i13rW5hoK0vxZCye2Q1hxBlpjoKzG6xTkJT8NrZaGQmz3wV0QEdI1MxO0FYJbEXQtLS1DwGGKHkSMabXiShDbfWAPzyOyAEvBW7F13V40/4UHjg/5M+SxKdoEePIff+0hxxvhj/Borcs6EI/Yh8GzeEvVwwY5Rsc/9pkZO3KGRCgVLCoF7oHSZtm5Xi7ITIW1hkvH36dVsIGyNwuhyOUGbGjngLPXBWXOjuc9S2UvkMmOg27RCpOwfkEtjweuRJXBnSVPOJzTrm0AdqPnxFi0c/MuaP4LD4QPwgvhR76ac3z5m88i1otwgEcKY3C8krJdk2qVy5oTjwY2bA2o7+NB52S3fvZU2X7/vUfMpkoWldixvgeL3Kw1sBkm9e4DY56YuAe7ue5dyucKtusA+Vwh0nJvd3+ZdW9V5xsQFcETEgj93v86Ys+eLjseiYgm++MIz1a7rP4brunB/JWAsUUR1LDf++NzxHEoVwfEpAvNsNd0ccGfsgCIja7VZmxkbIvL6gveuKFPakW79rOxGqx9c7cCX8FZyaDjaOSN1cZOtEZ4InwR3vzeH4E/4JHwKSnz8Sw51+nvNSce0obHNmwptAL704+fsye/OgkrpvBqVmY2BO7FIhOiJvbg1mH2MPU1ogu7SbsVaDL/s8F6IY69QGjI4MgwYiKkTrSuB4vwxPEFvBH+fOAT5xyfRNsdv6QSWOWy9sRDQW+YKxvRlNXIAPbAhy6Qw5FJqYwnGmm5ZfdgyZApKiBmYfehHYRZR9jpRUA6U5qJxnGwnMWzWeFUkniZQuzlorewpzeBVRBmQKyPrntmNr5lldA8030V/lS4WGFzcKUGmJ5hnxG44yoWQWUKqJZR8M7ij0NGtwqfWY7LKOsqeDWJMAa8I4tijx1aWQRQdFN5A5emrE2xtQxO5LxbDlAZ/VmloszrtWpA+P6o65cE954sHr4AHMEb4c8HwaM6jofCK226uhY6jzVPBqQVuMbMJbua/fgvPWcvvIA5luxQa8FmreskkgxKJrR733QPIotaImVeZyZ2IyfMRsHMK2R8qDekeUdFq9VJ4hJEusGFiDa4dy46p4F81obwvxvdSlLlbXWOG7at2LAimzPnqUh1aW8VzdEshE5qa3EcCkKTt0qI/kY7wWereZthc6kLEJpTF0I7PxHayQt5m5wooxjGrVqesxAYJAiPCNV+JYoKXS2/BBFDwUAE8ZEHH2VDKV7sefwE894ssWNczQ4e2Gq/8m9u8EWgwNitNk6tg4zA9o/Yzx584rwdOzXFxNbs6twqvHGnB6kU8YSUl32dFdz3iu1UY2sl4Ei9IIxolDuige4K39Yi1L+lYLtxm9m93WzXUGA7BiMbHsBEzENyf4699MA3IR1FfIGQkITl8dD4ifi8j1RzuGRZlvsBVdrOrRm7fS8vowEijhdn+yEiDTt6aharQBEupkI8CvIEhEbcwWr5w2VAmkiLE/qAAIeqbkwQ7YOwjD8iEtqw4QXw6cEnz9prb93G0xqk5kAto67l3LrmnEfEjL442bAf+ZmvWq0yAGuNpph1qNeLNi7awXaQe27a6RxAzpf2zvRaokGUY/+W2iBpDCLrB0dHt5rdsLtut+zJ2XAp3o1dvjTxBkqY9ZQwujm3fKNpmpIV5RFF0AUmZNRcsTU1Y9KhK/FDWu28kGvVt0vEww2S6B/91T8FrimQTRkUHztRta8dC1gwZE5UxGjz+biWuXqbP9v/ogvaalPc0rEnT9j5E5dXfQVuv7Gde1J6jmzYB9Gctl/7+ZeQxpAlRCn3V7Gsbu1zDddU0rTjm7n3F+TnmJ6Fbc+TxFYK0h5nKwUGSf9bR1n6KfJBiEDywPlrP7WsP4520jGAILH5lwjMesGUQ+g19wd2+6FYLHR2FtjWWZUKIgzi5R33QWgIiYqS7ATSC+gnXzJxquhZ5VXx4qfi805cfKWLf4fZfq9Sd7pAI0qhWrmsulWthviu3WZ3w5lcqufsC49P2qNH+t1T0mvhpoZYJ2T2TJP9UfsybbAnareQRvu/bB0dtXMnEIu9Y96Tnv2TgSDX0XFVwau/fPCi/YO3ifu4gnfNge9o/5uzo6N1zlWmiaNckypSukVk9j16vGp/9eHjYJAyosPzokjr5ZKs0ErY2zcIL83k9j1aV6AYVsCXEw4RIGSL2nRkL70ltB96Z8buPpSxElyO+IAcOpU8gQ95IaFjqZA6RmzUbNzT5CM0C0Q45hWXl/WMPzfvgiN58zzXRGt0Ki5U5GJos0IRGd1DnzPs0ypmZxi9ylvuGbJ/9Y6G3XsAxSv7CmeKaECk0IXcVAmXZddF8tTG8yapueVv+iqmRnAfGumfc/lPxsGpWcuVddGN4FE2BHDg1V/+1THHs7BedbxTL4SHwsdOltUlHhieszlC6vG7LxbQvkcF++MPnYaN7beCViwcwnpzF7B4iDRhE6VVsVQEFpwHm7QecKmtomdjr1tMKIg+FZLgvObeyN52pxIlQaDJQAUO+ntdFnYEnsPutt650ofmt0PHuMtZEQ3qW15dtX/5bRUbGzSbxtQjIpNDk14mf2c+r5imdkoMWL1FBLsA3FX0Xicg6wuKdjrU0jPCowweqMIr4dcfP8A2FY2iFfNs2gH+CQ+1aHWyrCrxUHSjhlLifbVx0b789JR95ZFJ2Niy1ZnjYZm1r1cS+yw1KgCh2I/3rIgJmC0lsYhAOyWjjZ9g1iLtzYtC9OBY3V53K8rRPBsEyf1dTg7tUqZ2GtTGMxFcl+K4cvzbNlyy739Txt5wX41VErElJBES5maZddsqYjuoW4RCcS2lPsGjrZq66iHhUVjJOl4Jv4RnX35mCm0YwXTgn0DQ6Wzzq0o81GJiZk2Ww0ywzd77/hcgFsij5CYtsmdTtqEJ36Nii/rOaueFr1KfVtLYB0Nnm1fi68v4K8WYrBnOxgDXN90zaCXJDhJlgG0AJ+LOHMuoc61vlbqFOGLEWKXbm3HR4i23mb3j78EtZPAMRUeTQenZXhFnxpMOezicPjiPJrB9PIRFvVjAI+GT8Er4JTz7gz85Bt4RXAqTKjzsNBFdXeLBKhCKmUYU+8qTk3YcVUdMLPD1YIf7KMe+nJ7MowdHM1FQIoOHsIulQXwehNwyU84nLMvsekAAVBBU3X+h2HfWRrcAQpBD+g3HGWyUTVxZZs1reLs3EL4DopchTXieWShO5K6x0L77zSS4YZ6HffSR70xOTk9z+H/dRrpQxAMZ4C/fltIQO8/LZu16H9TWiRL4ujV12Q3gkfBJeEVn+c/WDS80wDt2SEN8czwUV9bBsqrEQxaGHHk6o2rdfuO/nWIi9CiXsdCACLIgRKygxPkK2XtOabfQ/S2ec0sqS6uq371r1Pql6OiBImVfGaXf4dGMve3NWEwmUXYOVi2cRSFCIpx2pHXBW3BPxkFgUurCzVKEb7/xm6cc/xwPO8x6rCrxkKmvRsbzh56ZcTdm8SGbpWhx1eRVQJxMkIWSTAgr772qC6T8w/17yxa+ld+yB0oE4ehrFOCoynbLrqq95ZWsljCm5LtGtCEMvZ2ZCryLfWTbR06Kx4ITiSjZAzC7XheEb2VElofBP+HhnOn9eg+2eL2dIWmxauFK3SokLvmd9xxBDiPVnq+XLT/e1TdKIapd7jVps2iscuLN51OPNgmJHpPYE6A9l/lbW1T2RiGRbw19RYF8HJjw77lx1m4ewx/GcL3H9yPjLFcLPb0KrngzF2R1AfYATePh2uYWqumFW4RvwrvfBv+Eh8LHTpaOEo943Jp/+ZJ4+cjDk3ZhSquvBrCjr+skHFahrhgOkurzRfQUzFsh/UrLFZ8Ks0sT6AXmVlJg3IH6V9q+dp/P1HByIsBLq6XycBQxOb75NSj+iNlBQwbiu6JkWdU7kQXu+QJCv+Dk7OCyqujum4Vv4J3w71HwUI54V+Zgu/a+KyDpKDbHcxf6htJGYyXbwp995BgefzgIkeTXNWBX3t3TR6L6vi0gcMgVErlbs3dlBTUg/xTwZnb2EpsCAVdZX7C1uGkyrr37qAixkb5TiftnwC2IjGzDQPXae7HKqFNtgM59O3g0Jwc15D1xgW1VpPd3Y0HjLLwT/n0APNQmDQKj8FMrzUpnSUeJR8AAaaBzeD1WKxP22Yen7egxztVwFkN2lX1/sxQXW5wrgPMgUrVTJV6bY9+Z2Wq/nb5UxGoB1PnfwEyhVdotC5164brVQ0/DGXvjbRXyc8hC1Z6+TPQimwf+cxzaSlFm3QCy7BcL3xzvwD/h4ee+jN9H9ZI74imueaVRIZ3FZh8XLMpySS9usY989LwF/VqD8TKFLW1j8Vg2wDbOA2CzYjWAcL6AIrBDc1b1CA+ETEKKT34FhzssWkGIQgwKgnN324trolRMvheCZbx6L3Sls+ek4qBXgHDQ7j2oFI7t118oaotSwCIHk81kbQFkwjvhn7Y/+shHzuOFOsI5FhgvK5uUHSUesqtrxVV05pPHKnb0KN6kOPtoVy/53AdJzHez6b3+5U5JTFqxzWITO1KArea/R6XyfeR8zj7zJFCHkGRkrZBLQ5NFT4hAq9/Xtm+h53TPWhAQfFAJ9Cphvg3t/psbViC8vr2CkKctPNt9vL2XboinHN/AO+FfVA/t+aPT9sQxbZQtPFWOl5UBpXP8tIOLVILEryjJ7wMPoOFlFVQcg8syXG+wEm+eooFB/wOVl9jiJlvWgJUW6cBUS4Qbt/JtaH3+zGPsUwLn8brbhgB1GYerWGfg9/ndsdVH45CDlW3UyQjGUq4MYLPUM0n6sMnpil2cKNrMDOY9CFCF+JIs95YKgW0pNWzXtozt2MpxkVFFh+MsL5SqTshsNk86AIXO8i5lMpPeYqUlog85EpQ0yIo+UJyxfTtKdmScKR+ye3wDRzJeF2aYbxDM6xUprEOUsOI83OKySbiPOXxj3MX/izd94IHj9pJ/dghVgsQ5mfmvD7/F4NtZ4oGjjxxGmX722COXcDVun4VerMHddt7Z5RVS+Ov1OSAc+1NPNOyLj5XtrS8v2h178SvxrQhIH8i+MFOzs/bMTMZOnanb+LmSTbD/b5UNk0NpWlnZs0S1Bjk8U6usRnAzAc/KxT3jegZ5yMaaFq1gVeKRDu2o22vvq9rBreSPYEqGTMAIL1oRJtRzK5iOV/dUE14EUJnmDu8jy/5Jmks7GxCCCLNrwNtb4efmwgS8+pioX/2mzfFLYVGPPXqZrSll/lZiJgjHCuh8Z4mH2CPG4YGPzFgVs5Aa28rg9ubQNXvOV0ezhi0CrBIcXzUzZX/+pcA+/BXpl2RdYH7IbVncAccKUJSp13OJDGjVpm1c8xwaLEIh9mShlvQN2jRJbK0zN/zx5EGcLxGleWIqZ//fx/O2rX/G3vDSkt25l8BHRFatY/mIfUR8f+FFGtriaZErNVbEQwlBDu+UIph+0UZnuX019dZdt0Ztv9DandetqqtvEEyrAOLPPzxtb/9GLeyiHO1DxsemYxChHXVWrz/9IK7o7IrWhmm+Y03ZSBWt9t4hoTgCLC6ZYND6Pc8hiMbqHCBW4D1B7AjHIH3IjsgVPuxS6DlPA9IXKhmTFK1KnqMExoGLlhI9+O1Ip4AruAqieLPUE7L/jLxbRXQuT/fZ+z9r9tEvsjkXT+SoIyRWpRNFZEsLEQIU8ztjowOBDQ9hI5DRhYnl6QahL62UgDanxcHmePmBD54mRSWxZSsU3zpKPEIE8mMnpq0spd4CqeY23wBCTbV6g4SrWbIk1MkRoSpWg10ILURBWCdfRkw6QHZWmAa6DUVb5up5y3O/xJUGnzqEp04bI5QITjfkzYlIIFFBxonYpVmaK8K9yTjGXYgnMKxUoVcq0e7njpTsgw/TVYhV++vYwhASCRG9UN7T0ZHkHpEqwTYmL8nZhb6l3E38Pfz6ChFmoXd0yzl3H4BDVcLq4yeJF5ICbQVlZU/Pe7Fr4BnPBz56VoYhEAaZtFWX4nn19NIhOOkTN568LS6TbQBAXtceNApCCeHl9iExRYPraMaxtyU+Ed8rAiG9ARPI7xEe+k36jhshsUf1xnVTJ6djkSa+JeCCOJE+EPyJ5xr2taPNcPj48RX/Fc3NULvELUiA7RzmfYKp+iuKos5ep7C++hjotlj3cX2Cc50qu/ZyoAFlsSjirv/AR874cK/Ecqbp1LEycblmX/g8HoGsQPJsayglXVp6GgJkB4DhEZZn7NOPK1uVfl8fqdsByvYR+BDEYhE3ETGF3S+nOLeynAd67N4G3GWE9U86o89/vmJTU4i3KyjLg/51XvTFxyatxpbdLitr9XIB9ToPpZe7GgIB0ZpRXmyA2flpLCLnV687/bxHyl6RJjFJrRApTcO5wo+rLS9zVzbFgTLn54kZCtGahljUvvAIYcsrKB0lHg9+4aIVCG6KaKRyCTQkW6elpyEQhcTtSG5S8Br+IQ8/t3piQYnXECML14EQo1e2xOHAbzjR6OlhaKlzsqpF7CoYKPl4sWaf/tK5lp5b7Kb2sRuOh1QtjN+MRSjExy9X7KmnOMaxR0quCBuye5Yu9uZeP++KiHh11ORtbaJ3H1Dkfi+zrqM1u9CdGldnZ3w3OfU5dOVEh/rFpNdOlTJE+4bosjtfp8TOeRgp1UQ+LdGb69TZtZeRBBpO7LWwmz315KyNE5kt/DWbdXxeTtR+28QDkzuaewYDvUaGzVA/+Xl26m76zIudjFnK6w9u1w7EMhrusHAKsoyHuvRWbUHJPgt4mmpqocDtYL8brJxSnHq0stfewvzi/XPiTQu3dynYW2x2DIsEHsLXT33urOOvrGk5tNHLyQraNvGIld1Z9tlAa8+K8NAjGAYJAJNMGes8NFIi95u10HcHgQjp6rHy6w7dOYSMV3dxIXWtLM3zQvZOFe21m8EnP5lVrdbt8J9jOZKnO9WqbqoHiM3DT+HrQ49iXseuUYNqKBYm1l611qe2iYfjBYxOFuFzYjZvp06WncKLqiWUrbUm9P5dgsem0vQjqsRWVBHNzhEPIsu9yFrQPIi/l/gruKfz8WoAJTiq75Pg7URZzhVwdYoVuvrWJX+1TTz0oCI7pbf6/CNnrFxmRyoaM8d1cLzZyxwIepnxEIOl1Ux6LpA6796cciVTWdlCwtP8A3i8Q+R3piLHNrQrcLtupW1xiiXEIx6P5aBHD85ggJBwH4JLebZin//KGcdjQXs5BGE5974IktonRNtrfO7vSO9OTWqUGuSDxXFa4tndy5NWDpvucyF5mSHvk2sP30olyIRwxG9rHgA0ESOp31W0GfeFy/AR0rVBOXwv2/jSdapXY5JbRIVaeih5oPe+5+Go8FV4+/kvTDgeKy9ui/TY4dI+8dBbGOAwX7GnH2endAY1LfMh0JykfMXWiPnXeudYZnnTPjKKg4EjOHhAcTBwB4n3ZxMMy+4xrufaEiorZPdtEht2fDyObXFaoPe2WFznMdeOuYMWn+7t26TvePrxitXBY18FltHd9okHS05Uz9oZ0uDVFCxVTwdlYbiLG0vWz4Xv6OazSuwcsHIoyCoPQr/0RrEeyp0BdwDiZ9vlQEU0mlyC6i7Xc3YGzkMTts5vKfeal5cEn2al/EKcHVryzk16EbxVRPS5y0XHZ2Zry4Bom3gQUoWzScYe/MQxsl5fIM4KZ6G0zIPAlUHoZTEuw65vEdF4jaBso9sD2zXICuY+LppaoK77gMwDS8uHPO84jxgMFzN+JrIZ3gPJIBcuxElKj1bWqyabfuW1V8blyrnNexSAt/XSBcdj4bPwutXSFvEQMrgWm7iGB/+OxCLk0GwlwrHVRnXdfc1J3Awxc04jYoPQjPZiFQ5ovrJMuozZdZ27ToMVxsvO9g2iqF/JfrMqzmxw2r9bcOSKn3rx33owi7cy3At1P3G23tywmahe0gFE2qqyBcnFd4+nao0DLAtjQdyVc4IiRM3p3woRenHzeuMMgXLC30+Dx76nNJjti10LvROP2V5hAC/MVGz8xIzlB4fBjRZGsr03bfynmmxxnQ12AiZ1nj0g9x3eQ9atup0/dwaWHndcTdAeXPTKoh0sVgfGynbbPnZZBtkTnFzJwKmafNhHHlP5MQf27HOaqssHoDxg62BFcUvetu8Ywy07sBNHTrCbPLlJcFf1XB+bWKwR3ubCYRs/PmMXsLyM+DYhrcG5beKhBeXU9DQOJqwCJFcN8iAIK8RmLeIqCsUSE3XG7rjvbpY6bOboAnbdOMrqCXEHRlkpCHqoaAUv5kKbLeftW+4dcCLZYH9IpkYHCmZZdGoZ9g54hETaE9VBrYnLrle5S3fuG7Pdh8Y8b2dIrtfhbXfao5/7MqkaCRJjE+xWV9plv7wbHlBgo3Y2AI9Pg8/bRlpXPzT5tuX3Ep2VPUIUbY7FxmjAZiYcMX9OzqvKrO06sM+CIsBpOiLIW1vxPnKm66Uyh3DVsv39tzRsC/MgrwRQ6nAHiiwtNSwAWGjt4cfItyn2uo3izk+0SZbjWFzBgsP47Dqwl/FC5FZx+So+3HR/teCDv8LjRx6bQpfUOgRaJh7SWKteN83piLc8+lVWV2fVYWCW4xTfevu65s44VDyykVFEOBwLAmXbUhGoemRyavzlGBiA0bIfZUHoV75kyG7diXmW31JmZly54D1f1h/3GfU/IhLIQRznUIwew4Xo/DQciNKWLZengQUS7AOxyTRe0ol8k+TONkxaMnmqatw2dZFbOjARHj/6KEyAUw9mMOyyxju2VC0MoZaJhz8O9OVBKuXf1GzNTp+uY2VRDK1S3bWupV24KV18VpMSkUQbKucVN960BGQQuDUWTjw6w8uvK5AkNgQoI2pYUzKNit2yP2dvuB3kI2+qJppMp+12U7NIuhIlFhIpqpMOrV7J2/s+xh6rXMqwG95yibCU+nGDOPIxak533lEoxuOlcfPGrytk1+/lwlvhr/D4FPg8VUb9wEDGeK5RXby0TDzmR0dW4QFPsIfGxMVpKLeAr4S5m5uCi9solopsDQAh7eHZ6AwmQ33LwaK9/WUV9kG9Io4tF7nnT8sAzqKeQeMvfIfr0CYOn31eVpVBR+5Gm2LL/HckxxK5sqQP0Hhp3DZzcbwFfyPgL3w+eZoM65LxmmU+3ifnku+WiYdgnIF8i5nJszvZsVO8AJZQtEkN0Cq7WYuQRvuWDGwZYOVUEuB219+NDUEZ6ENM0Dfvrdk77qXPbOOY6D4SwpH8XnZPmD4ZY++Y5raZR8fz9uAj6JHKF2Lv5bpSvnemqK0aJ42Xxi1pe2dq765anDt2rBbVztix08Qngd/Cc+E7B4uWZWO8zJHy+zl67LzlYNHlSeh7gEqg3KQlQZhBaQ2dbvQm8RALcMeevL3jlZBHlPIFXz+EiFfGvm1EzLDfC8CTHuJkhQS9n8OSJ4422EaELvVrInesCFHMBrfA1VDmt79jr+iWioCt76TH4i98fgG8Fn4Lz69XWiYeeAOjxOJPUPA9PJ4/jocp6fwjeExtsxBv93S91/XqdXQBbLEZFERMmZVLUOtugoCrbuA09F2Lqnb7/ox948vhD9i+MQ9iIxh7d5ZLMEQGYnrT1JNxolbvt6BWIZ9Vv33oEzM2URtEMYssziu0Y11HuTmwQ4tekC8wbm17K3TTUC7aVuGt4y/KaeHzc8fjPXqE58J3x/tFno5Hf5GL80874Y8JticAOnsONbgLLboL7kOkfBMX6TmyaK3nQNLlsFB/wsoMOgiUoSxCr74hb2971Yz1Madk8tRuctJPtFMyWu2YUEokJfKBro7NqKdJnl20P/zLGTs71UeWulVWwNMG6Ws2NdcB7GO8TchAw86evcxCwSKogeXPUgxfy2Q3qUwL66VJPpcZXByCVOIBSBrgpzbdH8Egn4+tDuBV9xf6M9DXbxen6/Zdr83a3TdoM+sBn1As26xXsAv8b7evIZRHXEWAU5345HJmwP7Xn9XsFI5hBeAXkp0uCcztNDBd50GlOTgPjdvmXvgUwChekCLcBq8npsxGtsydig8W+Ns6xvOCmBtvsCvcJavVEHrnuaTLyr/Zi1ydld6+XYTaKPAT16HpNFm+bD/01rzdeQOkolFCfFHC6+ZVvuOtKdtotbgWXiASJL74Yjhg7/vrWTvLfCqxINUj9B3aNnOVinT7GidxHr1A51cCpqvwFvgLr4XfWhkc3zVQi5SWMV4rTaA9SpF1nz8uzzyB/crj8XRb5C09f3reFERBsAS8NzQkNF1C+NQMckRfoWY/9M1bbM9uOCrM8eI4Y6ua+sqUcwyc1+8lehYvOpgD2QjMqRLvIdMpa09gZ3AAe/8na3b0UglHR7bJREbKB1it2Et1tYr8RjR3pZyNUaS1fqxWe9az3qvxVvicsaMnyM8DngvfncNcpIEtiy1aThuqkH+nzuI2LHhfNb5X/Vjkdb17WvCIP7GfRzeywlIi5ur4bgwU7XtenbfdW+kUw+qKUx+6mBuYQzWfBNcf04Bct1GVmBec6CI5E6KYy/PskcuhPfDJLI5JKOl83modRPTjnUv5F1z/jUvfIYRBaGK8mlzipp668zrPoYZU+C3S6oR1ibCKlolHrFFnhEk9dOrsNPKqRjteU5Yeqs1wNUGn+NthNW9MNjoEfPUBY+Wo1UBp+b2vqdre7Z1x/lLfGw2sGrLrCmEVTs+7vjoe2gc/remZQ1nKNFzDqaRRUp8DKV30Q7bJZAj5uZmL8PrUWfRQSjEm7nCJBaJl4qHRlUMJf+38BBwIla/heHfXeHYR4XDANuWsKpPlH70ma2Mj8SLRKXyqZyqYdouIRLM2E/XZ5x4J7bGjEBKJMSU+ir+HiKxtgZMW0UjLVRCQeHoepanwXKJpLNaJUXhxWcaIUSuVyXOVROmucIK3SYsgAPK5ItG/Y5AsRbE3ItDU/u98bc7276l58h2lEZBaoxMlHynMu8qi02d/jvPX6Yl+K2jfWWZfoZ5H88C7OkWpWmhwTCtBC7xL1e94rFJC4qBj4Enr4XjucT+Qj8VKy8Qjg2lNEyqfJVnqBbgOMsAoBiEtQEB0Fdt4VGMiDgBsX0nXEBvaGASx7UIaKQ8bsO9vfInZnfuoSBs2sfy0SzeEmOp5hH4sdpjTCyL74tEc7uY1m57ts3wRwlHDAQx5mqt+fxtdaPsR7zt2YG25qHFb0pmh7bd054NhHqX5RXRSwnPyfOSkjFpkKrdMPARwhTbP1nJWm3NdXaTW7oRb+60WwgCKek0JgBRstfFLSINLYdWqRMjevCe0V98iZejKx1POXyHp/gK0rHXyREyWS/bXXw3tmaeYQTjR5QtMzgrWm5ZnXudhqV6KcNZ8vPihAVt51zvf0PWoEVGuCn7PVLNWYlFxQrsIcFpeYATsEK+/cxdwaJVgFPN+69G9DfpOCOvsTBPMG38mKhi2jqJyeChr3/GaImY5WdCwEfFpt0gE0D6yDbKoNdiN/cy5kv3eX03ZU0ew4vTPwtEQF4UsFGiT43UtsS1sdiaOp1nXpmy0l2sMwe+LZKqPo+UXnw8tE4+YAkV2cnwqVk4vXudGA8fatAd4lCEeQqB4KVub17b7lrBSs3o1tDffR2LhCKQm3d9KStxvaoCTaSCOfP6JPvv9j81YpTGA8RWX5/qAFfHAtSpmW1GudS3MZsapUpZVYV0bsuFerrVDM/jUGbKKwUUuFbPWMvMonJC15dxlyal45yliJgW8D74AHsHuVWZYcdF3xIR2Y80LIct8riKXy9vBnQS7jZE5gwTBQaO/rfFsVOtWK+RMpCdkr9NqvWh/+vHQXjgLyxv0oVNAKZkdZr5AN8jaFeTw98DA0rZSpQNg1fhILxWPF+I4AyiESQsQgPiHOIedvZTEqy3OX7RMPJzRA0EmpthvQaB29jYFeTLhhJzTExMuzbmiMLmwQb7nEw4NXYX23nuY2A5Y1Lwwud2hJPdDQQSCfk7NFO2PP03G+PNYbEp4i1ZrKNyIuNZF3ikHQ79x8fm4JtASLNDnMl5kKXMPuHQVTAAfC3QNuzzJQhiWcM1ZnEtseRjFwmj4L1+ejmdC27MtaWbvfDunwYSsVerohZD5xaZtuCLOI25UCAfQh+Ly1p1lj2rVuGZYbdopESKPnL8uwYG89+MNfATwASr2I6bg/lXAtC9zygYrGh+NUw3RzQlJOpfnRsi5MiSMS5eIjtO8WAI2LRMPST8ZUuxNTM4CcD22ERFkDgZrfpBFZ5DP97OaEdS15m+//gs1WvGH6YFS8+4DtJLwVa0rCpEnf+L1K1noDvapqUMh/ujBjF0g5MnjbalOXMZGTS6s8ZmanPLx0rilZR4EFIKCl+nkFHhOqsal8Lxl4uGVMClmZ5ghyRI2752b+VCsnqI0taJdvHA+3khogwEkbiMD6HQiZ7fvCq0SlFCWxn4YEkbbKQFeg3/xaNWmSBuY1W5sWaJvSRykiaU4Fc8y107Fq/iMop8vnb/g4+VR0BuS3K8iAJaqWiId8HA8Z66gHFr07taJB7JhlK1htyfVnrLD+PRYtN5NdcFhTMCXVrSJ8RnYYQTqeekKtLCv9/xUboxGFuUgjangQTiIiRaJlmFkCpBBvNX11/vKYyKUUpxfLBfssadzFhaRkdmMOqMcroTVzyUKmjvQy9ahMCjz26xIWo3PxHiTQ2Tckuvr0LoN+ErmA/gtPI8wrbtOaJFWtk48mhXUa8jG6z0hFunMep9WLEAd2f/i2YtMSIkH8bR0Rm2dZ6gPmfRWIAvSZzOwsU2INfvSoNIHv47JV5GXiC6KpWqseYzKdfpAW+WWNFc41vjUa4rPWvb0n6umpw8YV8fz63RyWdATOxMpZ9x6L6PX6dR6XBYiKVYiT1TqmWPjrMB4UWoHefl/a/Vbb+LhzZACLGlLew3S887KQnm3sSwAADvbSURBVBG1CfUzx8WBgKBEzuJp5iEMfssG+SO4q6caB1nBNC4an3y2yFxWbEvcow3S3A3SjBjPhe9LlWURD2YHI6FHqFRIkZYYAiCS9jx1vQKMWQVz9qljp5v5gUEoJqlnMFhHePk0AFHEhsp02jYxc5qjPwgATAE8vLHmcYDfjxLHrFbqwHZBpz2dBH8RPFkdNS6VKdhxnQIoPm4pB3IFvI7Xwm8tNEuTh6WvXqnSEUOqFMmMcWn50Xm19OghuOQRiFI2ES0YkELv9LNnrTwRxwMJowgFc2nPcQ8wKHBsLYt2QxfFQGixQqBMcCC7lKUUiVeJiOUnlvgjS40rzOmIiz8FrEyqi+mQJcjM15Ylnl/tSwlcnbyJOKi9wF9xWRoPjYu2V9Q4yWqocWu176vd9o1Rf4zXMZ6L9/BlZ8GmtU4BvI55k2zxOhd8UW+fBMgiHPy7AuuMPf21J6xeltESb0uFcDqDHyNrHO68dlBxx7WEckFC5g5pgtquTytF2cbmdTI+FF3S46q0tWpaeVVb91xNDGQBY4sQ/mkcNB6ODM12arzifs+HRluv7Z2HkvFz1hS4JL8X6GHrxGOBh9NTS0AA/Ud5qm7PPPqsVWfQhSihL6ugUt9JF3IV9i5RTacuxejBX0Y8gj3Q3PD9SJf5gg2/SqtfwFdwFrwFd8H/mUef8fFoMC5p6QwEUuLRGTguUIsyMRE/MV2xJ7/8uF06jWcupswsrLJCwaM2PToXeFGLp0SwtNKKbrFfStP1MyEGyff1Kmv1vuvVs1rXBVfBV3AWvAV3wb8yje9Ji9zVarWt1+pt062w18DQ+f7EaRrl/gzLPJuxZ792xPIkCtpzeLdtG9sOHse8QOffvHCNMdHgGq91RWeNSFp2+kvEleR74aevnI25lVh8lTphoxWJZzlsxmdOn7VTR05ZfRouC6tQQJIb6WsCbWLVFB83Wtu7rT0tEw9N9YAt0vuHYb3H1c21nfzdBlh352eFF4LJDULEok5Ki6NfPWUvfH3c9t+8x7bv3ebnhbgyJa6m34G3g4aIiOQIjf/604Ft31GxPoKfIvJvGBtJt5Kgp8Hu9UbqwAYORJfDAmHt6HKo1ImKpoRMOXrJGpUEboKv4HiePUeOPX0q9jsR3PmXQYzx/ms8UsJxnZEBXtzRNyzLmRTL8e+FHlqG2CK7PuEQysmQEo6FYLnkOSnqsllWerIzKXx/epLEQUA/4UDa0T8s+cLFLgq3ufaVE2YzM/GYysjaqm9XCALq+QAv0hfOyNO4qWxN1pK1oxvewwRuTjyA5wyxVyJggnPg1HCNG+St6vY/DfCcVKPOWS4Ov5aJh6powO8O9CvNntfa7RBa8/bHTkmYCHlzmRghSS5is91Kw3FCSFarYf4eKpcoVYHZeOhpuI08uSpFEFoJbqGNWXQKYa5qEzMV+/SXQVJWe/1Lyvzj5NxqfTu8BDf+ORw5FlzF+WiPoTQ7enuQF1wdz5t6scVqWZbYIt6vv48ELwzSvPmyWN3p+asgIDqNaOKmzrzNThMOj95BIoSCszThW9U7XFXtcn44tYoRPUdgy0OPRzbUX7D7b+ZcU7S6XnWKW5kAP//iCw2bgfGg2etW5uAlkQW4Cp6Ca8xxiKrAekMo08Vu+UMkPHdZT+a5RcriV655IAPhqGbrtmsrPgKwg8kqds1t6c/FIIDpULjrmcYwF4akACxjAYhINitOwJFQgvlqlnmY7iwpJtuPf8nsQ19CkwHxqHM9CkFE2pGBFakraIw9VzJ8a7Wo4czx7AWzP/qbhj2P2NNMBrKaLV66brgLdUlEJASOZTx7wypwliWraY5OCcfSILz2quM1urFdI3XHd82FxUrLnIcmT5aEuSNb9AgTLGU9FoNpC+dj+E1cnLSB4TEn8NJ/OCa08HS7t8wfM7lBBPlZCETOvvJUYMefj+yWm7J2x81ZGx1giw12q9e2Xg30NJfhMJ49BcE4OWPPPV+waUStUj8u3tzDTrbtNmflzwlozmDIg5RcMxcn5mblaouAK2/8xqxBc4RRt5Fh3Aq0k98SsT8tEw9tEShPvdFRAqC0bClQQOJLWtqDAKvl5PlJ23fjLnehFnR95q8VTHldVEcEJUw/Q1KgyygYP/9UaF94TKIpG7kN4pmJg1W5XOYDZ4KFJSLPKVKL5WhjVJOupskxtQeBlT8F1yFuTiVL+ycvTK46AY7f1sN/xcmB36Pb0YfBvTnei71boLRMPBrIlBkUKDt3kMDWK9LftZrpC7S8605dDS+x2krAWysjIvjiLXFh7TrVyGLtYY+ZAO5BwWyKkM1wrLD6GXaon2HXeqdnDSgJa4VIhVJfZ+rMA35royhtr5AJub5ehXaLw2gAyxoErjKtXCILT/T1amL3vTfmT3fsBM+b47xYH8Qst1zktbdtax8rEgOUkPyWn05vFAQ02ZMJHlYbWAcwLUofssaEOFfux3oGOcjhLIbFhfQWbBaH7kBEhCg3/GAtV0HBq/MMd4ivRJ2cpNrFNMpjKeJctrqOhMOnEyStSSukKNVeZAls09nWJgSYn1nGettIX+ylu0Q1LROPQIoTBiqvZDJFVh/yIqRlORCI2QpN7kQe17w/ffysmxmVrm8tc0ton1gt0hl5mbKXbIHhRIJxaVQch3QZYT6OllU7JaqwvSzem+I8Ss4lrfcU0PoVkENEn3FC7V1aTxe15UzKF90rvM6C38Jz4bvj/Yvuik+0TDxkEagRocjulVYowr62/OQib05P++BMnLvEsq5ANTBBWJqWliEg4qckyw22t5xC+ZzCr2XQLXqj8LpY0NLBtrKeUnJxRF/8ykLVQ+FFkAYHmpN9oXvScy1DQKJKBhfgmYuznpwmFddbBp3fCLmFXgQ2O1FB+bu8Z9O7F4aAFrHBQem/uA6+L1VaJx4aKUnmVLp1O/LyGiezWaoT3XrNdUfoGE6+cBwUSJPStDWOWAROHDnmYnRKfNuC4FUPCa8dv50Yg/SO91fdMvejZeIhGpRnK0HJw2Oj8gBIJ/scFNs8cEkFRcOFUxO+s/yVLG1UKBFmFcUYZbUIMO9or7d6ftryZMz2jb0aFYZYafoisqyLN0IsaKAgNVKuo9jV9i51MqVLZ26tuLRzW8fKNTBRXjSyP9qFcfw7UMosMc871oReqyjRv6lfyiyn4ImxUSnA2LRL5vkl5mDLplqn6qRuk21/bLQPx6aJ2OqitzoWLPEW3ZOWF0MAkCnepVAo2uXzl2z7nmHg2rTGiOi7p2fL9P3F9S9xRmlHa3nyXlQx14YDRMiabRk2u2Fv0Q5uD23HYIUM65hta3k7hdn2eQJVj58imSLesQW2W6ihPc0UtD/L2llcfI+VprJNk16OYRfQGQl+gmNGCUtTCrLEqL/40nzrlFz5Fc4ytn2AuafAQi0xi5fWiQcrkKhRAzv/YSaYHMW0g1ySBzMlHYsDedErDJAyXolgnDlx2rbvGuFWVlAnGsidq6iVDrWyhEU2p67Zjq05+/a7MnbTDjJv4fzna0HQ71yJHIZu3hbZG2/MmmLOHny6YY8+F1q9gk9IPvYBWbR/Hb4Qw0PwEYUQ5c3Y2ZPj8eLl7gMitOKR09IOBDxVZT20Q3vZuEsglgPhEhW1vqwx0WXjD3IZO7yPTYKKsdgiyuXUy9+2xJvSSwtAIOYyMsB25vKsh5PHK4HMuQvc3sFTOcSUCAXWS27K2/d/U91u38M0wdM0wmScUSg7P2WM1+5qDRaJqn4M5OwbXpqx73lLzrYNMRdcLu5go1qoKoZLPOemCb8X3AS/OEvYKgOthfZ18y0iysLrw/uAp8RT/i3FybVOPCDoYmIkvowMZm1gAO5DNeOl4xN+KRLVzRBd5bbL/TdfLIKrGTYjOk+AVzPYy5UKnXu5NAIxaukv+URqRXv1PaF9271MmFoBDlLmOQiC3FzRsisoLgxQavAtW3+BTz8ii3Qg+/vNfuAtZjvHCOybqzWuN35H59p9bU1aHTUHBSfBS3DLS2xZbWp7bUN66He8+GvBIuXGYB78BqpQBo12c3gX7G3LxAPizkpE+Dja2Dpy7tguXIE5J5Zbzk0p7VgQvtc5KbYQ9WRdkatZuzh+GZ0k4gAihYvvHeTAiW9DL0Bz8B7Mwe6/4raqvermEm9ndeFakNVFSbGaEgFHBEaZFghxIZzTh0aFuLDr/sFC3d7+qqKV+mg77VTGKYQwiMnqFek8lNFA8BGcLp1GUQrcaiFt8HavNulavb6tV82QDMdf4bESR4+NsXAYqwOTReOfePAu1D7NlNaK9iPx6UG0JWN06OAgtnXWqhyCsAiUNu5Iy4ogUJ2t2oUzF9hICa03sid40bESVeAgqE/+EKHN2lvuLFipMRMTBb2lRXfRLCKMr0j8HS3U7J2vII2hlKeE8otwyNtztYqyg4W8p8aWnufHz1u1vNbmntXq2frV63gL/obgsfD58KEhx2+xCsJ3BnbRxi0D46H6Iuz6w/9D+yEcBHVZgcqJkdCKlpb2ISDWUVGs506e8VSPYsuXYhmX+6YMdYtrlFRy/0v7rL/EipPrR+eYi8e1Jb8dcRdSdMBhZHmWOm8czdj2fjgBGgtjEE+45Tau5fvj3fdkXTl36gwiFsFbkmHS0j4EhLfgbwZOUvgsvPZ5B547vi/BS7ZMPJAsvYERMjAcju3f049orLBtXkJsREPycVpWBAEp/sps1TCNEjCvDGPIoJ0qqikgabHMr6+/DeSHLRXaaYJI2Kh7vs/rvU1ysQSamAhp8vC43XcbvAjnM1huEuvb9Wpq57r0MjlyTExdniGCtgwhTAlHO3Cc/4zwNogIv3c8roPXfY7fwnOVBO/nP5Mct0w8/AHGipAZf9GB0bzlh/NWmNpjYfGcZWqEcKdlRRBoMGCZRtFOPD3u8mfEqtoxAoIBPyIEfws6CqQiEJ2AOLVWf9BnSNvRSokXelhantOxiNLdh4i0lkikOqUcW4UiOEjlK0e2Fx4/yTfiUrpgrRjSQa2PaOlzVpzeZ4WRgu3bFuO38DyeIIu/ou2RLpVKduiGftLX4SxGzocMq1paVgYBOT3V61Wbmpxge0QIdQdZct8mEgQcGiKCVjFKK2vq3NPiZHJoTNmy1i01q6kylZ+HdDaVWTKg1fGIFcVKy4ogoDSTucygVTKX7MDhkvX1tc4EtE08xLC+7K4ByxSllS2glV1csbKi3m2ih2O2nJBo6T5OkCy0w+ZHeWGWMKBAoqi7cyKRdCk5zSS+PZnzKo2Z9DWnXzirqccm2/ifSH5Oy4ogoExyKLAs29ew+14ytCxOt23iIRbyrkMjVp7FlYRVIDbzragf6cPwA4JrjX0RTjx3HHNkZ5FDDl91F2VdVukMvCW+iI+hqc7ddNJEdE0LJbqMvzAO9yG5ixemOo9rILT8n7G1JbIZknHfeXDYRdFWa2mbeGj67UQ+inBTNrJRIYC2+s70vkUhEOs48sgAymI+cWnC7xRB0b+4JN+LVrLgBT0lX4hp9kuQzUR4Nz8oasGHWjipZaNOZTUi1ETrYoNtCw9e95b5feZm2qsEx3UUNuLMPM6FfqRlpRBA/Z0hmx2OgmPbgevcPLt+vW1BX+YxZRwa3F62Q3u28XL2yljFFef63eiNO6QMlFxfx2lM9vXzx9EnyZQmzBdiuhgjst1GYaQzuKNPE+iGtwQVoPeYV5Ve0U5R8y5N474uhSzty3XMZB/3W23UhFb6ggvAQzCKvUlZtOSdlpYVQUBcoxTPB3eP2MA2WbBkNZs3MZaovS3iofo02ZRd+VVvwmxXHyADOBM+LSuGgAiENi3S59L5iygHWdsZSzl4euBSm2+QikOrtXZjPDOFjgr9hHMKTb1Ka9Pl6pc7Maucty89SWg/DkY5FpQqWdE6UZIVUJyMdBtl4HD5wmXggh8rr5AI0+ok70R7erUOhGSiqofs1X9PflzLG7vl3T0PgiJOOZx0XvfyEdhInHU6HIsx71Wb5lDIGCME4gvIrhR7M1MEfumf4Mv1Jq4vGyYZmTUx1UZRzf72i9TDmIkozSGp+64vu1rM9NvtiRfKliOorqGcIG3PqKvfrT6rdXGsT8amJ6bRx+odXGHyyS1dMErLCiEAmLOY2F8PHgufW2Q6/KVtD7UnrmHw9m7hpXgr+livsB+b/nERDwVvUEQkpKMIazF6Jyvtcgb3KnjCEYSY7hWt8uR41cbPVUBNZo4q9FX8qruv+yMhYp/8SsNm63AyrvaSA1m7AtDVr1QtgoVzN/yQYo9tx/y3ooFTruNqeLX7S7NL+LtniHQQ7tTcutW0beIhg59T/tyMHd49yDHNSGZUuz3Z7M+ByBIt5KWZlSkSeGTcJwPWXasuvxWA1k5RmH0OS4t2iMvzed9nQPpp6oIhqbocIJ8JtpfEkaJJrvzbh9RfrJfjicrcUsIYa0zYE+cz9ndPxN6m0l3i5CxNSjvNe/Ez9FNzKpcVV6sXautLeTRDUDy9FefahMWLX7Y5zwhfBePDe9giMDvdBELrvjNtEw+357OSyUr7DW/dDouN1+HcqpkSkk5Nx2yHHaEkDmjVrpAN7D2fYvwK05a9zHgFl9CB5FDWQimgEA0F5pGVXO47ylsb0w88UbNsVNWYtVPnt9iH/haRqm1WqHUIiYB1Gg6tv7237nSC0Vzkha/C27eCv+wRTqwTHwUotVjaJh56saIri2Scevk9Zn1E8c4vazGp5r+vV48VxdqUYTrYRTgEkP7yRM1+64MDdowVoN4YgRCgrMVaEjG2NTiVCg5EoW/YgnmXuJWQlb/aKNijT+fsPQ/WrdxoeiOuJgERI8Nk931TOwiBzVrVtXjZP5Cxl9+NONvMHJcwAK3Ap9WQhhfVJeLlDWHilFgdDx7I2tNPyTIQr2wveiA90RYEsmQc1mrhsHaYt1XNlTqaj5MSg2A49jsp1+29n6zZPaOh3XljzvbuIl6JRUGB95JAQraSayA6TDG0x0/N2hcer9ipCaUoLFtBaSg7ZF1ZqFfebxoBX4QY1/ZUXajqTX0uISDiMg4fIjUDIjKsp0N6OYBpe0S02HjIrsudBbv37hF74gkCuhTiTX66hvw+xOumZRkQAKjzTAgOY4JHBEYdSz5NBn4Zlc7dKiSU2KJSLtWsMEMgmzSotZx95ZzZl4+TabA0Y3vY5HgQd2WJCjV2lDt3qW5nLmEuJfgxV1CeU0IS6nAdqzm+zbrj1qI6Jv2lF77UBxEWp26r2oj4lT31V/CTmZ4tA6V4vvclW+kelje0VW6qbYK5lT63TTwiGqC9RqS00pR83X1j9r4/G2eCk1KPVP3k2PbVazXnVysd7KZ7hBSSOGMCgeoRoRJazDdwprgitU0dyLVEJ1/Fm5C6GUYnTFKmKgtMtd5nz5NTOCkJksp5raQ5xgrleEvbliEeJ9W1/O0EokkY1P8gp4ZqpsXzTe1Stm/9SktrEBDsPPI5wqkzO0A8Ut1ec+8OedKw4Dt4ISgQEU28Fkprdy1QkeRjd0XGhBZVKzY6krFbbxlhQsr9mazaKNvc9rPAs+mphSHgaCEWg6JjRdlmFbYKfuisy6OriCtCSA99928dxy+Lz/N7NamF9/rqP3MEj2bI+qRcHoJLUuYfJ+fS78UhIPcKbc0p/NQG57fcMmyjw+QLU+Ip8FjwFF63WtomHprOWo1U8gVEFV78ulduxSNy2llMJReR8S4t7UFAeJsjIZAIiIp+r7YjnsYz/kCq9B9C5qITbUiutdebNp+iDU36xUop4qEESTqnSS5ympblQECu5570BxGwNjtjb7h/O8OMBEFItM+vZcK0beLhDjvw2BHxBf4Pdvbe2/pQniJEkyOgEZCQQluxp2XZEPBsXIymsol5bAs1xKtC/L3sClt+gLfwXuc4mkgaUxFVwAn/tFzZim70/jq/FVej2JZASlMRjhXVvIkfVp5a4SX4WcTD+GXga4NzofRsogRaoHRPi6Vt4qH6xXhIPoqzi7GHLft6vOLV+HywLWWAG3HDM3K32JL0NgZPy73GURI/sSJ9V4iv6wAYY32vXhGncfXH3yW64e9dzXdf3auF+pnvFwekyS1AiIisXXuubl13/hI+ZvDraLDZ1ytf128j/VqckA9QrDnTIXAuA6QrIh7XgrCBX8A7vmW7lavs5yHPorQsDwJNeTNhyXN5rbTLq6Jn7wYO+WKcR1dKW8HFOaSe7fBqdEwRyexBPFO0d37T/hUv7p0lHlCtAwMlGyiwQiC+ZNIcH8ufAQmxQBws9sUyvleyjBVh+S/dwE80+y2ZvFBUNLD0HbEOZjmr5Abu4Zo1LYPZXda7gcFJNu7Sniwrm1QdJR5qSgFDy/d9zxgh2gx0Js2ovryZkVCOOACsULraurC8unrrbulABA+VVFxpb2wVfl9HbPne7x21PG46sruspHSUeEhWr2XL9vY3bWfVRJiCmigy1NsoVnMZZqCVdGrjPivyqqnPt8YNyq+veAg5q8u+suoajliJazo/N30BLnmJcb5XhKwD6D1iIF6BoQAIMGPiEsN6U8NNsHIRTxAB/wgwLMHNvv11+/ALxBVghcBZ6fNXv97DpuE42BX57peg1sLaopgIwiRiM6MUgpu0JGZPTXp3xFHUrIeWy9nJqYb7USgJkKJW60S39vcPXoFWTGGu/N4sR97vuPN9BFDVwyrwwbwI/+1+RvwV/NzvCHjKpCv4xikMRJ8375yLPQ6BD4RCeCh8vPtO5l1NxASYkvh4JaWjxEOR0tlKxqp4Iv7A2/dY1rNVYUlmUHMFZNUVNnYlHV3vZxMTaGLNCMn5GSCDEm2GiIdyWVwZ5shqOGtBsW4Hbz2MCBgPz6ZGAB+4mAAUB7J26LYbgE/ocHK/F+Dm8AOOgqfgmsA4gfl6j/16vV9+HTlwUfgXsXALH3/g2/c4fgpPPbPBChoXC5ErqODqRyEQeagaq+aesTwep1vsiSfJi4g5t1yesDyRe/EacvVTm+eXHIHj1dBXRhL5euZ5TGiDW4dtePuQf7I43bGAuv8MwNs84FmkpzHx1CIU2eieYds+NkIi5DppCSft8nl9LkA0sMbIA1XZzJhvrlj1+jq6Pi7Swo15WtxYpTKDG/qwKIjdemvR9uzME6+EyTYPBxLPxrYb31HiocbWUJLmYT0qIMA3fvOYff3JL1g22uVJXeQau2JBq+2urveDkA26LxdvWQ76+gdsy7Z+Pvusb0vJsqTx0w2STT1LWzPNXko7roxbhFgsv4QGiYGKAwXb0b/VRveNWFjdZ7MTZZsgx+nEhazNzsSJbeKNrpxcX6lkEx0paVIuh9MmhCO0U/ZN33K/VYg5K5KzpVZgs6eGTN/tL04dJh5yF6OxsEpFMORVyFeH9t9oR09dhiuX63P7Dd1QYy7vOFEAp9wCv2TKmCjI81anlfFLK6DykOo7X8xZaUsezmIYgjGEQhndEFGyc8UPgY//j+voFXDN9XGFB0rjKjne9R2CcVOHloXbHdze75+93FSZrUJE4EjOXbbyZI19cIjpgGsJFKHMdxPIfMOu+C+NZzI3NQB8/D6/3L1/6EcDvGsQAHd47012/x0EGDJvMyxUjqdJl9vsYUeJx7VtCNh39Z3f2W+/8qsXQZ4ynWBbynn4cu39G/63JqwTDPQVTczWLmwRFD5QQmEnIso9oVD2ivWxOm7dMWw79oxa/6CydDFdkcml6JPZLEPC2bS0D4FEnJlfA3HBzLWMjbKVwNi+UeKDzGYm6nb21Dm7ePayzU6VEZ+LnljZWHnF60VRFYU+ikXJihodLQwQE/3T/24tEUTDiHCvVcDD72JjevBR/etUWVXiofx1L795mM1kJuzCpBRZel33ep5KQad/gfz/GQNZRLT6ieuoN6bxQ8ja1tFR27V3j+W3xHJ3rPXPWkW7S/OQMmL53NTPtHQcAhkynUm0EW1X5vUQxWC2mLWxg4zLoZ2cRyk9GdnpEycgJuetClciTkbEIkLpmsPaJS1JFMRciXQn3VroDXMta7tGh+y+m9B7gI/m7v2d6VEG4KwadETBMwzK3z0xYe/69Sd9RRbD1LWF/jiw+COCQYIt27J9xEa2bbH+oT42e44nrpsQITQe4IYY4/kRmMx61hkWCIeg3mReuhYcG7Hhc3BtSpbOOABrmW8lpiitgd/DIqDdJqqEUsxMzKJ0lb7kMvoTxsV9kvhWB7t4kKQbEqf7kz98q73yti3M2cQtoDMjt6qch5zGwqBi992Mcmvrdrs4fZ6kumAcgxMpIzYRfpkIl1Q3SHemQ8uvRVNEaJ2U5Nh5DD+peRdKi4+9vH+w34a2DdoWrCMDQ7CCyNt6Xvdonulpl8UxS0v/Ec+9JtHhqjazdv5FAjyENS2dhYDED62HSda1GNrSk4ho8GGcfFN2BkYMRzFbtBKu2tt2bbWIbS6mJ2fY1vKSTV6YZs+cGc9/oX1NfBx9fKnAi0Z6/vjpOJk78R1r+5e+BezoFZUwWUM5WdyULn/H8Ha7F/yLwMOsiy2da9Wqch6i9O6IAsX7u2dq9u53f40OshIL2dhERNtU5khM4taFzvVp6ZrmliYhOVNLk4iPJ7qRkhNtr0QNUW3NDSnZSuguto+N2jD6iwKes3Xyesben1fqWPql6dWNDoFkLmjMQzLH5zBlVmdDu4Se5ML4OSuzEbSU36IPgRMTFkDfJVHzR4QpJlqxHobezptna9F3LVR1m4VAlJBMaKsWLsTqH/3Ru+z+m7Rg0woXxaTX6UxZVc5De3jIQzZkt7L7b8DGvC9nJ07lSXWHArU+xADh90FGbu9YZ/qzZC1zE6R5V0I0QsynubyUl5CxEAqNZCXz6Y69O237zq2wuvSBe9Bs0PYacjGKJ/rlmnstSeu96CzZ6/TidSGg8aO4foqlTaJNtV62LDqsHftHbNfBbXCMZhfOXLQzJ85YGbNwrcqeMtLGMvj1WpVnQFZxk0nRgtRcnJJTq/ktbirXAJ/QylfZGiOX32p792fAuwKLNHOa9KCOjx1sxKpyHiJ22hNVHQvqkT1+Imf/189/BW+eIYYIrzcoeSNHlyRjrkHRYLrMi+igf0lavxobS0skGdu3H8sI3AWh3ywueODFhC2DVl7JaOq1eqzwTBIRN4nGWk6SNQDTpnvF3PjNH0/GW56rSosgUVPu3VokAuaCxJtapWZnT1628ePHXLTJy5+C69JzJdxscrwWAJUOLlOXHwy6HOkVa5P27372pXb7HvCMTGHxBtZSJHSurCrnoW6IfcoSyVcmge3te9gj4lVb7YtfIrovmLJCftgtFr6Md65Pi9aUsJRSnulYosfIziHbvmu7lQaVEBiLEHKhJpM4C4kwiWk5wtFGJlgtQbHzkQhjU38h7iMtXQuBZF7Mjac4CMZZ461x9+uRosQ1LZgYpPEr5uGkbx2xvTeSv4Z9Kc6fPm+XxiedeIho6Nmk3rUAjDKAidBVG/hURcP2yldvtdt3B1aBOyqBf9ohA0GLpnRuoV5VzmM+0BwhOXH0TMV+6ueeRvxCqwCBDGq4yUq5s8IifGe0QHZhvX7ExSdEIpMyqEWUYwNb+2wr4sgWrCRcckKh+/RxbiR5OP1OIbAEBBLOwomECAvTePICbgmIN9MXZ0m6o9AMdHxu4WnO8WSdgRJ5Pg3mXCfWHnHvUT60PAwStML+08/eYgd3yq9DaJG8dInOtHFpVTmPhdpzYGfJvu1b++0DH6paoTaLPAbCL3TjMs+Jy3GNOoRDgyryEcA5KOFrhEPW0Oiw7Tmw04lHjmRFIliR784cOwUIwKsF5GV2Jb29SyCQLDTOjUi0QSE5NDpgw6NbiL0JIR4VO8k+FpMXJ5ib6NSwHxDS5/Ndz2rdik3IK+cGlEs4i1g9m+m373pb3oRnviquIizXjPNQH5z7IL5lCo++f/6vnrYy5qM82kkxCyst2n8k2VVMZlVZT4qDge05dMC2o8fQAFfKVVdyZfPSjjfb4/qLlQ/eStufPt/dEHBlK5a5hJMNa6jXUa4X2exGy+P5k5fs5JFjVpmOxV6Zf1U8CrgDBhAxF3V8OoqIV7/1GzfboDye0eOt5oK4psQjmR41KOSzpyP7uV991Opl0hV2gvUQMYDHyMC6bRvbYbsP7EUGBHgokGTzFrHw5LkiVJySH4D+uQNX0rD0O4XACiDgujTnK5IJzWSTP5PmnjQOzLmwmrFTL5ywC6fPomhFLyL+I7l9Be/W/M4Vq/bvfuJuu2EMV0w8mTtR71JNWnOxBZ83V+zctD+0G/YO2lPPER5MJG4U9aNanbY61DIIZTadXyRSxJpsbYLkrJ44Blg/F1EA3MD2vI3u2o17+DZMrVhGoPoZ7fNKNVImSQ0iYqGiY9WnFUHn9J2WFAIrgUC8ECXzKJ5pPq8UykDx6yxkDZQSB2/dZ/tu2GsXz12wc6fP2PR5EmahpBWXoFipDHNci1qINTLWl8Q1eEXNPxG+HAHm4igzCMc9S/0Fu3Ffv920j2fRf9RlugWjVrOsOefhUaYAB1uXnakV7d/81FM2G07AGRBTkCFwDkVqJLPY/OLILlEjzsLlu1opGI3owOEdW2znvp3WN4hnHYMTYhJ2/YU05jGtmF9TepxCYH0hoGkprhdWIYsJVdac2amKjR87ZZfPTrrZN+aUmd8QkNgBDe4loUvN1gfgC6E4THG2jkTXMpAbtl/8xZttZw63gwI+HSI8wrNVLGtOPBxwdDao52y2Pmkf/dSs/eEHLtDZClriWcuHQygvmprppOPYmSSSZLXTFfcpBf/2PTsRTcZc8al9TBXUpH+KjIQhgYisrryXNC39TiGwHAjERAMOgykuLkO/M8x3+RIptdeJI6ddpJEfSR7XeZ/HEm2uwYkGPh317ASnCZHgvu//zm32TW/ox91+0F0OZHJxkX05jVvmvWtOPCS2qCglodQRjcys/cy7ztjTz00a3rUWDuD63dyywRWs3Osh7lhmCmxSswtdxq4D26G6cCfc1/B7RTRE0fkwGD5AUF3JgWlJIbCRICBxWeKIc8f8kIJVhEQK/oB9jzLoSJRO8dSx8zaObqQ6AxHJ9/FME29UASWEmOSmEctLDbv5xiH7+R8nYrjBfZrzLM6yN7JtmN+7Wn/WnHgIoeXWEQbTAJANd/l94Vzd/o+f+Rq5FbGQzPbjERcDKiEeRYjG7kP7cOgadE/QMEKfoT0ogKPDkkq132YdkSUxnznAUuKxWvMmrbddCMS4709LX5drii4+Vf0PXAk6wCwpKpV579KZSTv1/AnMvrEon1hPxLnXBlhQSTnw6z93p20bldgPfx6SdtDg3iWxzHtXu81d6rk1Jx7XNkZkIiAO+uMPRfYbv/24iyTOURBxm8/1E19CMp0DoxAJQeNKufb3lSvpUQqB7oZAsmgmvZCu7+wLZ+3sictWq8+wcOLDAYci0eZf/7M77E33QXDID7G66tGkNVe+V5evufKeRY+0nW0FmeMN9xTsc/cO2sOPzFqxENr2fdts9+GDnjMjJJEOgsmidaQXUgj0EgQS7iImIrAjcBC7b9llOw/twlfkqF04fpnkUhm7D3x5/T1FqyKmkFAe+X5tobDunIcApEjAAP+M2UrJfvrdR2zXjYeIasTVtoi2GW7N0140Zb21BU/6thQCaw8BcRqSx/XPi+iH8ETxbhWMsog6488etV/40UPWR3rPiBCPDH4dCdFZqxavO/GQYieAOlTryG+5PhufMvuff4E7b24IjzntEobPhjgPmVDSkkJgU0BAyo8rCgtZKHO4JdSI5s1hZYiwUv6Tt22xMfYES/AmQt/R2ZjZ6wN63TESS7csVCSl7SNIvw5AqmRdH8JEhRkLhzGlinOV9PX7kt6RQqBHIHCFcHiH4EKEB8IH4cWr7xpyPBG+CG+EP8KjtS7rTjwkqKkRysuK8dYNTK+/K7Ib9nC+7Ol3oB2uhl5r2KTvSyGwISCg+U+KH8eHG8GL190ZG2KFL8KbGInXWOEBZDYA8Xjx+GSxaX/L/ZEN9GWsn/3yPBX+i29Lz6QQ2BQQ0PwXHggfhBfCj41QNhTxuOI4U0ARVLPv/9acnbsw1eRNNgK40jakEFh7CIg3Fx78APhQYh/jDBGzCa6sfWuuvHHdFaZXmnLlSMJKEJL+jVyML8z02R9+WKbaa+TAK7enRykEehoC2FnsH3xzYAf62QRdjpVZ8GOVvUdbAeiG4jySBisqsCEA5Uq2b8Ds/ruIRtQGS7jkNvAi7eaNo5I+pt8pBBaHAHlHmec+35n3mv/CA+GDto4UfmyEsjFa8SJIyOhE/khUzDn8/d98a8buuIGw/VkiEQuEKhNRmJYUAr0KAc3vHPNc8/2OG6s+/4UHnnDId3zbGGi7MVpx7SxAQtHGSUreE5EiLCCL+dteUbT9e9mbgr0yCkrIkZYUAj0KAc3vOnvM7t+Xtbe9vOjzX1Hlsm/49qYbpN8bknjIECWHUimFlNOgjoMYtNi+57VlG2C3+ToBQ2lJIdCrEND8HiDthOZ7Di5E89/9TYUUlE4kDO8E7DYk8bjaU06EQxQ3sr5C3v7RW3OYrM6x4xyUWGkg2ZxHkbkpL9KJ6ZDWsdYQ0LzV/NU8bpA2M8IJbLDvvM/zvjyRtXAc8dbbMaqKflyNH2vd4ivv25DWlivNS47ExrHnt7KdA7rxmaz98SeqNjkl9iRnRRIp19kdnR/JA+l3CoEugQAu5+yoWGFHNyiHDQ027PveVLCxfvlyYHckUXLOxfSNN7c3JOfxolFXvo7/v71z+7GrquP4b+99rjPTG20Z0BbatJiGFtCCBTQQhRqDhkRD9AkfNP5Zvvqgib4QRUMTAiagQGss5SK0UmwVWorTy8y57Zuf79pzOtPpmc5A57bPWaudc/bZ9/1ba3337/5jJWTmM7XJ8cR+9GiEzRthJuqQQ4hCTTcd5Fd4Cmx8CmjctgGOCnWbm4znHz9WceNb41zj3U1Qxv9GbKUAjxyri0t0As+W4iCTwm3csyO1nz0Oqxc2rBKT48BzHRtxfPl7WoICGrdRPINZtmHPM553byfXHuNb4zxzOj+sLC7Aa4kTrcPmUoBHQm0XmW0pmkeKQsy1uSrYR7btrob9/InAOmtXK3sdushfcpgpIJ6iS/7dXzwZuPGsca3x7cY5413jXuN/I7aS6DxuJl0GgQMQOkBx+uHl0H77MpXASUWfUnA4IAtZljRI5XbzcX6Np8B6UkB6/rDSQZ1Btn8KrGeE2v/ku3Xbv4UN5OlQYfjQ+XKs510u79qlBY8UDiRQrQvygASwfB9fzu33L5u1yJqek229VqeUZdJcHhX8Xp4Ca0SBqNK2XpcSI3hLj1EN4LmnzO7Zggd1ighOPhvl7ohUNqQErbTgIRd1lbURmcFrgCKwi9d69puXQ5tBjMlUNbwcfVCCYeJvcaUowLsNzgJzLLr/nz6V2Z0T5B5V3hpGskSYSBbF2VKUK3XN1TpPecHDpWoDNFxFLqpsKX89eQ+udWv2qz9Ow/7VqfHi3dhXa+D48345ClQVs4VrwS+fmbAJykMqk0+OI6TsiRVARTqPsrgclBc8XN8Jq8Ve6BvCKxKXZLBT1AB94dhF+3R6p5G5DWSnilaKOZdlz4w4wvmPNaCAG50MuDyioFlSNzJq2l2bLtqzT0/aNsqLhNQuMsBEabDmxnF5RmjJwWNuBKSAh+sMxBmlpW+1a/aHE7mdPo9OBDCJxjDxCkk8fMwRzS+tMgXQX4AYaYugTsDia7ua9sPDgTWbPThlcRvFy04ZwcrYhgY8yCuNnkPuvJIpKQqF0jROevbSOw07fhpFdtaDPUSMwXbufULKOFTLdc/KwSFWN8AqmOCz8ch+s6MHVYuo5kLtNVbFY2isFnEW5Xo+3e3QgEeeAhgRQURFNtiiJ+i/CC32G/+K7NhJgENl/vTQCwpIFTv7T0+BlaOAYrH0IpO/wNGHEjuyN6NEJC7ofanEWWZlGcTlYIP6cSxFjaEBD/oCfWkRD+BkSML4MaJbCxGmSc7Hc1eq9utjJFkhRkaRuoWepN+T6ub+8lIk89s9BRZSYP74KZYzwENe0c9/r2K7NsfWpgD7mOoqE8eCTZYTaKySswMFaVndkYYGPBZ25/zf/fJ9l+PAfncst/9QU7tGvdsETqWqzOzY1kkrixacfhUK+eYpsAwK6B0kI588n3N8M2K43gqcRI86s7soF/vc0cC2ECmrttYFmZZx+7e9y0iBhxKp9PKeHTse2D/OUmGcHKkRsTEGqMhClroUb3or+OYpsDQFMkyrERYT98KpIJZkWPXIMfr1vYk9fZjKboESFXvwWJqSZdgD5VWH10UDTuPtM7m9+A5g0kXrzRukah0UQA04EN88BZZHAYkbOdGwsTVQ0MPNNjJ75mBuD+wj3gpOpCFUkZJ+SNtIcB79vnMWdZTbvWqMkaxq05S2fOFv1+zs500cdMiNikI1pOi2b54Cy6GAC9ZEIZoAEnu2t+3ZRzfZBCUgE+CkFlctJZ5teKEDXEQfUPBVy6HWsO2jJydq8dg7XXv1VNPqhMJEbTqfV0qN5V6PYDv0IihHhu3J/fN8UQrgp5GieK/VatZjjCClWMoY6bL85KGWHT1EMiq5lY+Q3n2kwUO2eBzbrQJLcvZ/sf3prdA+nQmtCSuap9jj4UZIWk1+hS860vz+w0aB/jgI4DKCqGdtRNy7KIfwzMOZ3budxNygCcUf3b9he/bFnmekwcOZa9GQ9wAH3id2pZvb6ydrduIMQXdwHAEKsKiKbV5WNd9GmwJSqMdd9GN1fIcSO7yvYo8/mNgWhkcPEbgmLlZKkBFqIw4eSC10vcoIR8mYqzYuCeX8xZ79+Xhsn0+PkeWJUeHDc0doSizyqITDpriab59o2fcfwRS7s4ZZVr5FgEpFmeyUMlB5dEenjTR46GUhLblaDGhUMOMirwAiCLNsfPX9nr1yCpMbbxZJLm5/943b8exrRqKPd3cXBcvd5vdjESBfhMj3+72HEvQ7VG574oB0GwINlB3Y9xPMsVWNIe3oOY9yD4LbvfsCIDKcfxBdiEm4jEPZi6+17fRUxZqhasYY3ySt5W1TxVMwIGt7Fzm4Ko8h30pJgZj+q9N/eQBE4JnchAttoxCtoCtvMw72bY3tB98es604fkXESIWMA4XQCy9GuY005zGo450KFWcyvUZSJZ6FNQnIGfLhxcheerNlV6ZJc4h5Tt6oMWZfhSUE1oUtQfj1rZwUCNBlkIGf8CijVIrzGs1xHd063rWjR8bsvp1wo061TvyrM+UTt4Lzl0qijnLz4LGg990gASwCeYtJxY4+RP4hIXEJCZG6fz2d2Zvv5tbqkQKAIlQBClfCZxhMC07kf5aGAnICVdhJjgIj68U2VovsyMHQHsPZKyJdYEYHO38NxaTQ3xJP5F2KLa40z7gaN+rBYwFVHbMhLViBHrgeM3h4I1XqyhhSZcBkNoNrzF8w677/UYrJju14EcpM51s5KaAKKSHex01ElwN7I3vikczGSd2AyyD9SgxUl96FIwnFbsr0xsuFbrdR9yf04PElxrsUahaHyMO5vXLS7K23GUibVRJCA0u1RQU+iDs4iLhM2Ly5lNhW4o9va0sBaq4xydFPEIOgSNdU/QIfUREHgX4jRemZXQ3smw/g7PWg9Fmsryp1g4DCt1tRwIPHraizyLbEWgy+MRCDCEpiYq506vbGKbPjH8CBgA9Vwq4zMpmljZiXFPmiEgKkZlnjRU7pV68SBfoiZVIlexcBkFEX7pFMXjHpGlQG4eH7yLVxyGxLo4tVjSDJTOBP/xr969stKeDB45bkGbxRtTWkLHM5UQEFuF6XomFqxuzE6TYRuw0SMado8Au1SU88Lk5nkd52vq0pBVLniJFgDSMdIL0GhNimemgP7enY4f1N24aXqFK/sNrprdiN7mRPhVn7dksKePC4JXkW2Si7Poq0lKGoUVd4eiiwDtkZ80tnpmt//6hqJ8/ENtWqOQa44vb3rPAiFF211UoQlRI2D3zbHeMxEa9V+8aenjXG64Q1xXCK6r9+4QNETzl6oRhnwbclKODBYwkCDdqcu/eXBlnxtlJIv15wSipkZG9XzG4kRSrL733StddPRXbpcsPpPYp6PnMOSO78OlZMib5nW2EK1A/PrfRpIgI5Us03bfXpNkumPim1r7pDhcF2bG3bo/cndvCrTTABsYTjq7KhKXs52536A3RxqTdYdb1/5y7slwZQwIPHAKKsxCrJ0xE6EU1+ImQw7SLSvJ3Ya++FpARo2zgydY+U/BqxFUSakLwiMf/Ii8sRZDVjREcpopHHjuvdocmdRvhcgNROtECHUQUMsjpqUeJNRKwaJTZm0EnV4qZ96/7MDh9CewHO48XBeTgKnQb6U99WgAIePFaAiANPobHKIIX/YIHcqfwLqU+aUE/37BWzN/9JJO85NuE6EDAhpECJMPlqDiAAyRqI38Gsv8nAC4zeSnF4AbZ0DCZQE4ctaJdiYkVBQVQBBGNxz26zIwfM7t0MaakDm1G3GJc+R2j3re5gV99unwIePG6fhgPPoGA7uRZJV6o3JqI1C5J00JBIKweXcXkmtjMXKvbuxxX75AI5MDlCupQIc6/EG1l+3bgfeIURXClaMvEljqTScqKbkOfN3ZO53X8vbuSTCV6hsG6sVZoa53ujfflzwANNcfWjG5zL1wgScGUf2YPHytLz+tmc+gOgYNgy4uVaBufhfsJyCzsY2gx/zLiUjIDD+Ayx5YNzqf37k8DOX8qsQ+3dEDsjRQi1s29QQD4bGa6gDWq77t4R2j1353bf7sh2IrbkcCRJRUKMGtyJaA1IS5/hOA6hOLDhPDgc/bWfb7dDAQ8et0O9FTr2ejI3BrUMiillM8/8N7dTp7t2ZqpOnlUmAwDjHJzwG5GrPPw4O+MiXYmR44m3YZaIoZFjbC69AKDl5gvyTwgb48zKbkYxfTSPBrlHasLNNt2TY5DELl1vnFNYWGwo1s7f3N+Piaw3vaatkk5r98xpL/UcWss66XNY1vnkFh5RvzVL4BokrwGacgnXM0b8Kd1fFZfx/du7dmhf3fZ9BX0QZRrFWzh85ko33FP/Pvz3qlLAg8eqknf5J9dkzZllbv5myuquWUkiXRXsxj3+/KXcTrzfdvlWY8SZGtGeIWGfsipWcaEPKzDkRHymknWyIqWA5n2IxScALQQuqSxAju2B2ee4QfN++Xc8eE/dv8oRSCxT3ZJI0apScIIUmawb2kEXDnlGdDwVyhRkSYbDroCCYwlb7hG1WoWF2HNH2w4faNquHShGwZUGAWw6QerYuqY7DQPYAwdUWY/mwWM9qL7YNecBiPOMBAcC0ttpwqf8KU5PKQGmO7ldamX20WehnbtgdgHntLgjgCDHJiCit7sz9TJJBUqptLARgMLkZBMsvTQvajfCx/xKeuIWOPSmtnC9KqPd2OT1ousXvhXugilAgXZT3IHOGfAsOqwHaEgpXG2ENomz1u5Js707M9sxFtpEowAMiXYRICQgykku63Qes8An4OCkN17e/1ozCnjwWDNSL+dC0pAySZh+0pFo2cilGiGGyPdAphmJAXqLCwacEhYxp9PNbGo6sEvTkV2YMrt4LbdrM6lNt5igccXEqUSYhXPYlAhuJQCFMpeYdeHE0zVZ5/7rOjejhwMA3ZfbpA/dy/wmRzmegfOnIF0g5zjMp1WYjlo1sQm8vjeNR3bnpsAmt5ntmEht20RuDbw+pQeSclMoJ27JKY3hYKQAzRJYkUrhlCcdBnfHet0/J/ZtXSjgwWNdyD74ov356HQSzAs3lSV2iN3nhyLCNWfc259Jpamj/P6p2BSajteECzXpAZguQHMNLuXqTMcuXGnYVUpNXAVQZsjV2uIvJbVeovR6KGclCbC74wwcZohLkLZR6zmvuxYfgbS+7KB7cH/81DUjlJgV0jVG/I3hlz/O32a4Cf1Nbunw3bBNcBN16V14wIyDnRpEN06TboOcj7PXkrWElbqGWA825fjM5PhoOKjSLWhB2/nybX0o4MFjfei+olcdxCEsvIBSCyiJEZ/u7V6TYsLNPK2jsZzAoZCmBJ1CAVwtxAopOiWaSKSR4nUMsUjzVo5W6DBxcOOHAETngAsSAvWkv+B8aDvgQDjWhbK7HRb98ArPRUmzYTd48NiwXbPyNyaByMECIoXKSggwtEZWG/gPjBzymnCI4i7u3u5uae7DcUWzP2XRyUJxQCAIVhJ3JCdUeQKnoHFnmzvf3Fn80jBQwIPHMPTiMp6hzz0UuyqoT7Ch1M2zcMFPiS1q/ekuCWNh6+/T3+T24QD9VoCZPgsYKXiRG6+78Gz+d5kpUPjUlPkJ/L0viwLST6i5SQ5LIQvG9Ta7KDVtv6H2RC/R/62Di50KsJHw02+ABJuK82utdBmzPif6Nbdj/wD/PSQU8JzHkHSkfwxPgbWmQMFbrvVV/fU8BTwFSk8BDx6l70L/AJ4C60OB/wPhS/byj7Tg7AAAAABJRU5ErkJggg==;" parent="1" vertex="1">
                    <mxGeometry x="1380" y="-437" width="51.72" height="50" as="geometry"/>
                </mxCell>
                <mxCell id="NkAxZAtzzJqoS2XVmBnt-116" value="" style="shape=image;verticalLabelPosition=bottom;labelBackgroundColor=default;verticalAlign=top;aspect=fixed;imageAspect=0;image=data:image/png,iVBORw0KGgoAAAANSUhEUgAAAQ8AAAEGCAYAAAB7IBD2AAABX2lDQ1BJQ0MgUHJvZmlsZQAAKJF1kEFLAlEQx/9bhmAGIRIRHbZDh8DCdI91MI0IPCxuYoWXdd000vW1uxUdAg8d6i59hKhPIFSHPkIQFQRBty7dAi8lr3laqUUzDP8ff2beGwbo8+uMlTwAypZrp5YW5NW1ddn7Aj8CCGIWPt1wWExVk9SCb+2Nxj0kobfT4q35u6P07tZFtqIdbmePDyb+9veEL286BukHlWIw2wWkMLG65zLBVeKgTUsR1wQX2nwmONfmq1bPSipOfEM8bBT1PPEzcSjX5Re6uFzaMb52ENv7TSutkY5SjSOBRSQpZWiIQkGEMoHMPzNKayaOChj2YWMTBRTh0nSMHIYSTOJlWDAwgxBxBGGqqLj17xt2vOoTMBegr5SOpw4B5xYwYna8yVdgjO50WWO6rf9cVmp4nI1opM2DdWDghPO3DOCdApoPnL/XOW+eAv2PwHXjE8TVYsADy/L6AAAAVmVYSWZNTQAqAAAACAABh2kABAAAAAEAAAAaAAAAAAADkoYABwAAABIAAABEoAIABAAAAAEAAAEPoAMABAAAAAEAAAEGAAAAAEFTQ0lJAAAAU2NyZWVuc2hvdEkSnZAAAAHWaVRYdFhNTDpjb20uYWRvYmUueG1wAAAAAAA8eDp4bXBtZXRhIHhtbG5zOng9ImFkb2JlOm5zOm1ldGEvIiB4OnhtcHRrPSJYTVAgQ29yZSA2LjAuMCI+CiAgIDxyZGY6UkRGIHhtbG5zOnJkZj0iaHR0cDovL3d3dy53My5vcmcvMTk5OS8wMi8yMi1yZGYtc3ludGF4LW5zIyI+CiAgICAgIDxyZGY6RGVzY3JpcHRpb24gcmRmOmFib3V0PSIiCiAgICAgICAgICAgIHhtbG5zOmV4aWY9Imh0dHA6Ly9ucy5hZG9iZS5jb20vZXhpZi8xLjAvIj4KICAgICAgICAgPGV4aWY6UGl4ZWxZRGltZW5zaW9uPjI2MjwvZXhpZjpQaXhlbFlEaW1lbnNpb24+CiAgICAgICAgIDxleGlmOlBpeGVsWERpbWVuc2lvbj4yNzE8L2V4aWY6UGl4ZWxYRGltZW5zaW9uPgogICAgICAgICA8ZXhpZjpVc2VyQ29tbWVudD5TY3JlZW5zaG90PC9leGlmOlVzZXJDb21tZW50PgogICAgICA8L3JkZjpEZXNjcmlwdGlvbj4KICAgPC9yZGY6UkRGPgo8L3g6eG1wbWV0YT4KeUOESgAAQABJREFUeAHsvQmYZNlV33nixZpbZVZVVmXtS++buqVuSa19scQqhAR8LDbY+PMYf/bYnmE3fJ/BHrDBIBDYxgwG4wFZLDMSCNQCJCHQ1lqQ1C11S63eu7q61qy9co3tvZjf/7x4WVnVmVmRkZFLRL5bFRkv3nLfvefec+7Zb6ZBsbSkEEghkEJgmRAIlnl/ensKgRQCKQQcAinxSCdCCoEUAm1BINfWU+lDXQeBBaVTBNYG/5KSyWSSw5a/59ebMZ5foIp26m25AemN6waBlHisG+gXfrGQcT6yCbX9HN+OnDoBgvoX35HfHzVPCnP5JNcTusDlKNA9ZgEEIgoja9SzVqlFfBo2y3ctbFhYb/AdWhgFVtc9nLu2ZLIZy2UDy1KfvnO5wPKc68sHVsxn+ASWyYUWcE1tUwnCLH/imhpx85od0HW1K6SPeW+bHlEv4g7qKyZvgomf16VmvbptPqz0Oy1rB4EMA/HiGbJ270/fdD0INEIwJAuK1fnUwLM+y4KLDZviDAga9luRW4RZkRATJM04IYgs5Lkyj5y9cMkePx7ayWOzfCI7c7pu56cvWrVet0aUd8Rt8HC2UeXhjAW5AtVlLaPf15RGpsC7Q4vqXGPqhPzOBCJ4Nb5rVsjlbPvAVtu5O2d79gW2Z3+f3b4vazu2jVgpb7wjtGwuaw31AbrBo+qMVURfsjOWo5cZGzRoGDfP0kOICmehZLSNm9KyYSCQEo8NMxQLNyS0MggHwtahClqki/qKTIxEphFwHnqSm7EXzkT2+HN1++rjl+3IyapNTlSsNlW1bFSwXJC3WqYKjmb46EGzHNxAIwJrRWwgGOIIQogTX5zzk1zn+5qS0Yu13kRwJnxnRTz46WuQqg4yVs+C6JyDDPkb87S/HtUsDKqWHyzY0JaiHdqdt5fcvtXuuDFrB8agE7VBOBYey9A7XhuoYRW1hXpyIoT0xUrXtCb9uZ4QSInHekJ/kXfPZwajUOw6PEauYVUwKeT3sWNT9tUnZ+yJ56ft+Pglmzw/YJWKiAMFDIQsiIGIERGS4McRdYgtCUFoUQrEChV/xu8X9Yh/+QWREdUx75Tq8dI8KYEiQz1xe6+IFcg9vJsHsxAC2ItMkPN6EHZiggeRiSBQDQiKyFmxBEHZNmP7xkbstkMD9pJb+23//kE4rIYVRCrruisHZ3KlMam40hyLdfxKiccaAT+W3bX2CyeFDPqwsIJIxmqrs/otBI3qcBaw6GLrZ8KqHXlhxp56PrJHvnbZjh6fsakpxA2IQDabc51DyBKteht6wPErxnKt/GIpHK2pGJTmBbEOwQ/9nfE56ULi1qker4SratfVpSECpEd0P/fBaMS6jeZ7vHbOeQs4J95DlCM+r7/NOvUKySzqMEVcRZ1+h4hSmXxkgwM5O7iv3+65a9huORTY4QP91p+Fy0FyiaJYp6Iq4qc5gl2JuKbf6knzjRw3+6+XpKWjEEiJR0fBuURlwhl94tnuiBPCS2QaRXQPkWULUjBCFKoZm5is2RPj0/bJL5y1Jx+q2OwsjwWIH3lxEaDfi3F6iRd35yVJTg2IT70mIlq1vj6zW+8r2htfucNuGxuwLUN5yxREvHIWViN0LXAymQpEqACcm0B2AkX/YyarOwGxgVudEo81Gpx6o8Kc1trf53MZMd4qyPElKSxh86fRQXz0E+fsbz42acdOz1p+uGr9jSGrROMuYmTgMqzOyiuORBxGj5cMHE5DStIc4lgoxU5kxWDMZjKTVrtcsP27+uwtbx2yb3zTqA2gY5H4NIvCtiT9CsQiptMoXNEL5TIoitLScQikxKPjIL26wkQEkDXDLQsoDZ16MKnPno/sw5+9aJ/+0jm7fAELBux4FCHba6XMTqIy6LewVgIxZGngA4GR1BCjxtXv6b1f0onQK1e+QjDpezZfRmUzAxyGnPsKAvQ4QdaGt2Xt9S8ftW9+7VasOgBIYqCeRVkcW6DEgnC6KSL5j/TPiiGQEo8Vg3DpChLiIZ5DSsTpabNPfvGCPfjFi/YCptM6Ignzn4/8L6R1QEvg+gdZLHL8lg8EcnsszLssDxos/dKeuCpY0E/wXioYiWvYdjhAJ8K34Cr9SQI36K7lEG0OYBp+3Su22htfsc0GBrg90bsAk5R4dHZipMSjDXgmBCGZjFrXZPYMmKiO14gjdTiFbFTifMbKrILPHp20T33+rH0GojE7W7CCnDNYTdPSYQjAqVRxGunrq9lrXzlib7x/h91wcMhKYkhg/cKgbDl3MkE3wsBFECWZlxNyfO3Ydrh1PVVdSjw6MZyahA05SeHMhTgi94kczlkTtZo99Ny4vf//nbCzp5C7sSIEBZSkLJNZBPO6yzGdaEBaRwKBHMQ6RKHU0FhUIRC1wHbsrth3f98Wu+/wmA3l81bHWU1WokA6KFlu8INJy/IhkBKP5cPsxU+I9WAyVmuXcNneYuVK3X7/Q2fsbz98xuqlMh6gWyAYEI0sBIRVr4bfRoi8ntcKmJaOQqDmHF8Ov1QUzBw3wgqEpIAH64TlyyV787fstB98204rFXO44E9YIT/iHMgc69HR1vR2ZSnxaHN8E/ZWj0smNxShR0/W7U8+MGEPP3naYDoQW6AoxGw08rIATOApKqUpqyGOXjhzQEdc+9lmC9LHFoJABqsMHnUAH40I4mOIWJKLIN41ud7Ly7VhMB9232277DvfucUO7uFeFKvzdamJOLpQ/em5KxBIiccVWCx8JMLAfGwwGfXPnZ5EFCha5RpwD0ePT9ufffSsPfTwJZw0cdyCSERcI4TMfQ+0tAX1flZAJrSsLZKzuS+mOl5V+qdTEJCyGaUqf3DAgygwVhHu+2IN5VODvZvvLDopudbX7b57R+w7vnGHHdg3AAEJr3CDGivGTdqQjIi96Hw87J1qadfXkxKPFoZQ8SUNZGfFcUjBFhHAZbWcnT4V2p/89Tn71OfOWU4OS40+TIiyAEBmRHTSsiEhIC5Dbv8BNvEog8ULx7w3vGbUvuuto7ZrN6JkHhMwAYdSgIcEB8rjNY2refFQpsTjxTC5+oyIgHyU8sgheIRmEUMmLhbsd/78Ofv0g5es0I/hMBxkjUK2hkPxianVTWbFtGxICCgqWJG6bgKWFYZowzA7ZdWZhr3+dSP2Q++4wbZslcijMS8QtIecA6OYch5XD2dKPK6Gx1W/pNdQBKtlyhbMDlgdP4L3/Nk5e+AvT1lfMIt1ZSvKz0nPV9GAajjB8DiVq6pJf2xUCCgqWYGDGmeC+PKkAmg0MKWT9uDbv3W3/cN3jloOP5yoD+ecRgmCE/vgbNTurHW7UuKxCMQThahoAZoN+0t8ND745xfs0kSVGJMGrC4OXJgElTsjyOQhMXLqcs0pNWo543daNiYE3MrFwPrCILc8mdhr6LXQl2BCzxXqxNRkbGRLwb79Hdvsba/aIbKBziruTqpQbcIBJNm00rk6DhlAmYmI4YZ/TSfUZGSiUVRryGx5+uhl+4M/PWlPPFG3LJ5GSoKjYKy09DYEFKSYzRWtXm7Y7bfn7O9/xy679dAwRETLRIgUAyWRa7DTIDgXsqdJQb6ZdKqbm/MQ9WDwG3glimgoriRHhGallLWZyVl74K9P2wMfmXAtfQOvryAzhfa+n4eaS1Bv48/m7h1raoNMZo0GVrK69CNle/u3bbO3v2WnDQ+QzY3UjfWclK4sPvzLyFtY02ITUY/NTTycZNQgGkV8MmTeC/E+LNqzJybt5372OQsHUZTNYtYLLlkpO8Ik4rp0GzIFpqXHIUD6Q0XzkvNReq1sg/HHOzg/Hdq//bkb7Za9gxbUSHUmDhW/kiCoQDvkqbp5FpZNTjykz4BmMEdy2PXHyxn777/9nD32xCUUaJoKBasRuZZBWaagNkRitPJMEvwH0tLbEIhQiOeivji5Ghyq/HMKSliUZbLg0v7SG0fsf/sXN9hYCcEXXxJJspvNvrapiIeS72TJiUESLhYI9BpkDleejIhgqc89VLf/531H7NIlFKAKlPL8nZJjieB0BzGOFRKv3ynn0duUg97JiU/6sIZ0GYpuxi9E2o4MVKLBahPBgY4Mm/3j7z5sr7kPziNUECTnySCvlGYYb4ixUd7V3l1oNhXxwHIP+4mFRElm4CaU0m6yNmW///6yfeoTx0gaI8/QzbZ+9DwdWLUOBswjca6vf9M++8HvKhF0h6lXJzDtNyTOkHwFL5FVe/96V7ypiId2EqixEEhjnkOSfW48snf96lE7fx6FaZEs5drTQJaXtKQQaAECntUdvUimUrLR0az9+I8dtBt2Ei2NwIufseUVidC7jAeL8CYy1ZZRfJWQYxthzT76GbPffe/TCKpY+fvxBJrdhvhyEY4kTVnXAt6ktwCBhm+LsQ0m9ryFM3gQkovhh/7hzfYNr5EeNW9lxOESjme9WjYV8SCNKMaTmr37d47bVx6dRrehDxsMEXFJ+hjYTDxJe5jN7NVJvF790h4zAeJv2JghRWIRq90knwF72T0D9iP/dJ/1hSRp7uG1qKeJhxK9SAeuYLUMQVBHT9bs1//n19k1DdMsfhshhCRggDdNke8CViP3hHV3erlbS3uMkxOh7Erpp8jhhBnVplJX+S3oUT3PPbGXJfcDYj2noufi5Mzco/oJLNP3ZikR8ynLfArJNrT3QMV++J/cYQfY3KqhYElPTIvCVY5lPVJ6mniIdsh/Nosjz4Nfm7Tf/G9HSCxVZAAZRN8bZQQF6WSPDGUL3RDeg8y++ROHQnRlKBchEHGNmqkGhO66FUqhv04//LeOIR4iEnpGhEY2CN+T1s/hLiWFM9e02dNcpKDX0vt/ArLdR41LWGiImcEyRwoi+xf/8rC97s4hkr9jsQGcPUQ7elPnkayc2FvZq7VuH/v0lP3ue47a4HC/VWZrvkFzpMQwTP6s8mpsmgKRcHoA2mOKjglATED8AiboLHvN5vwDy00Mjzas5iknFL5BNjEf9TqwY3OmEDd+35ISyiIOxreFgGaIOPPXCXeTDG0KCIeCH/0OiLzWRuHFvrxNXZ6xf/qDB+0trxtkr17mWjNAJubcuhssvcd5MJG1IqqUSUH3W793gcTDKEKjaSsOIJdWhSBsaeA2NfKObhLiIQIQKnsZViaJGfm+ImHnIzbMp9RfIiEzvgoJR91kPZqMx1Uz3KUWnYmZEvlLWY20i+WZil1iQ+3Jy5etOj3LeXElebg++UskfMtVVfXcj9j/hz7LTFufIV9tzirTKNqCAXvDq7baP//H2/BUjpUgGo8Eht0KiJ4hHh48D7XPYoSVtTULsfi37z5jTz13CXkz3iPV9331jZo1XD58vTGxk9UML1kRB2Qx5wLUxzhmx6y0JWNbd2xnj5MtEIsihAKYOBvCM5LtmgTjqokcsylXnYq5OhGGJvVIntO9UBsXhZDxRUwuX5i0i+fOW/mSkgyrTfEzzsfQ1thbLz6v8ev2IpjEZFLw5Jhx8MRQcMDak+eWG0bsP/zYThTzA2w0Lu9m4mKcs+tOl/aeIR4hrDSx8gwek/ZMYD/9fx+xiycvMjj9DBzEP9YLdvv8XLD9sR4iRt6ECihPRYkd6bftGmYT6WHrGyAzFkQ1wpwoRbJ0HIlOY8FKOZkg+/zrcyLh/JPzj6UTkYIaMUaIIc6kOlO2C+dIZ3BmgpUYL0zOiYzEog5ik9IX9GoyaDqazL8onLFte7baL/zvh214BzAiCRGx/3DC3am07xni4a7DsMpHxqv287920iqTZc9TGdWV8BYZtIYZFlm+F0uDfktYC/LoHVjhB7b2256De21wpGDlatkKfbjgs5fJHLPgXMLqQsKtLlp94WqCHOISOhaJMJMXyjZ+fNym4Eok2oRVkEdbaTp1X902rUftEbqhXL5EQmzERaJwld+2OFSyn/mRPXZ4rADNhDvpUveAriceyUqouIIj43X72Z97gcxxZZueYN/SwX5XYNWqREMWyGCuKMkeKknffdUmYG/ngVHbfXCPkYYCpaZWeBLb4KwkjqNOCLkIjK/2yl0S89erBo3YkhNXn2MT75reD8sR5OI2SLY8feyUnT46Tn5Y3DCVdYmyELcT19Kdf3MQxmT+SUFfnpqxgS1wGtUSkdsHICBYYZTtndJtfe8Z4vHUM1X79//1y6xweJCSDUq2lL4iuSkhHCxrQhu+VxljNAPWsCTEY/cNo7Zz/y66KXEEBSV4GIsFcWN0rI2oVGK3DulGdI+udLaoZq+1qd9ovgjEAPpqFy/Wu5VJ3jdcgryPHzttJ5855w3pNgS6PvQSTQj6ODjgWS1kWtKUhY7I3X//r19mt9wU+7B3W9+7mHigbkJOzpBT4dGjDfuV//I0q9s1E/f6I9sld8Dawi2IzZeaTTuchQjSI7uGbN+Nuyxf7LYAioR4CfwxAatVKnb82dN2aZzcGVC4SPlVhGRSzUhpkBAjPdILBXFOo5knCvcn/s9b7O4DjC/7++Q8fSWsYheUriUeeBmwz1LDHn6mbL/0n59nbqF001raa5PMV3I4J9lNpYxk0hX6c3bw1v22ZTtJmdmJTrGb3VochYRI+EjkIIoT56ft6JPHULLCRfGPS64OkQJYHGQvlZhz1Jhm7ad++JC97EZc3Qtu4O6KbnYd8UhY9Wi2YY8cP2+/+J9OWXYL2x5UZD+PV7GugHyLjdTK6xwH3xnSJY7u3W77b9iHGELCXlZm9+hssa6NcltCMKR/mV+UN1RZ2gKsEMeeO25nGV/fDByZS8pGmT57r8AtFysWTpbsp39ql93D+AZ9cT83+kJ49eh10cg8Nzlj7/ov5/G/mbXKORRQ10zELurKkk2NSH2oVAEySNxw52Hbe3iPW1gz7L+qnc9CF2WWrGLDXRRHcS3hUD9kd8hk4qxtew/vtRvvOuwK1iBHfBLhBD1ZmLeavwGR3b/86+fs2Qm2eeiS0h2cB5o2LTqNCrJwcdIuHB+yn/iVrxliMqsvfC0iixCp20vCotdDonyxkjhxQPU7vH0IwnEDKgD1VYCIexqvT/oRH3Vj/338vAfqhxTbcVE3FdBIngR79mvPIM5MoQ9gxz7goXicLJ6aIigyTXd9QdHdIPuYiCo6fvuVn7zLRvZMW642gFIErkt0cwP2syuIhxj0HGngMkQtnoFK/8gvf9bqk0NdP2eu7YAQJsRLNp8jV2aobFR1G9u3G6XobnwR47iTxJJy7bO99tuJiHQ82gYDr+Hjz5y0M8dPg0NyeSe3LH47WTgSEdxeK8WRWfvVH3ul7Rhl5hOlK4/pjehG1hXEI7QZ3/Lg3MUJ+9lfPm58UaRA67Wi0G0sKfIwz5bt4C37bMfeHZBOnLc9FkdsPZ9e6/ZC/aGTsX5Lnpjqc8bOnjhrR5867vlCYcywOLGPLHqfniuM8chQZD//k4dtxzZSG7KfbkC+mY1WNrTOQ5NHHynQJKK863fO2sUpqHFFvhu9V5TrQSuq5Sp201032859OwjgUzCb+FbQBC/MTUE4NLQad1h15yzotGJ0du7fYYdvR3wjv1+9Thb7Hs032yiHdnkqa+/6HyetzLyXG3uCCxtp1m9o4jEHKEz+v/iex+34UbTxhIQ3hnsThbTCytPyjvvuxAyL6CJfB0cQrCqw6KE8ZHuz63NDPf8gQmTJoCyWKlUfeQhvx7fljnvvgBOTZaYHuQ4AEA3RbzYfO3akbr/03idxD54PlY1zvCGJh1h04UlohHajCPjN952wpx6e8hwJQX/W8mWZZbu/aHtCRVsqy5TY8gZJi258yS1EwMKTS0FGmv/4Cn1FSgvkxtyDMv7CIwlEIA7yWpdXqvNcwIMwOofPTXff6vAS3AQ/wVHw7IWSLyOisDGh3Nmf/NKk/db7TzoeRKTJFF54oqUN0NENSTwCQsy1vaNSuv3tZy7apz59AVANw7YTElCZwbMUpUAPFDa2JPZELCm5NpgYh24/aFvHhpgyTBux7ZuIy2hlOAUPZ9+Bj+AkeAlugp/gKHj2QomwvtSrs3jasqBEQ/aJT51zPAhqcGHa9lQOgxugbEjiERL3kKln7MkTDfut//GCU+AomGH5AdnwptTGO71QZGas4V4v8+Oh2wjTHiUZcyRTpOR9hmbTcBktjqY4EOAi+AhOgpfgJvgJjj1hthUoWDzhr1GUltlAe5b5b/bff/eYPXkSLgy8EH5shLIhiUcW2/6Z6cD+w69+1TLDs5ALVmflodDOXdj683ha9kQhz2W+lLOdB7ezkrL1AyuKcjuI/dbmyXS6J7rZsU4AD99UGvgIToKX4Cb4CY7ujdqxl61fRcq5S2g4n1hMLQV9lhmasf8IPggvhB8boax/KyTDAYl4760ZU+S2bCm//rtPQixGLDOT85SBMmFqKZairIYvRLcVWQ3c3TgR4vXN/+JAFl+OMRSiXKdTSpSjEvoD6z88cWs2yF9MmA4XmiM4KQlSBg+qXUQUFweYH3PsfMzWe07VjbFILwuAchr2WB76o4WkhtOgzaLvaWy1/wxeCD88wwIuDMIbxwbRmzUu6z4765LhUGGImlajfoKjLtofoCB67usVNpnGqzBAc+RoNX8WbAyZbzljJQcwl9dxlRVDoTiNbB+p6e6+zQqsmnFCn7inqlfTJi0vhkACF0EnOc4Xs3YziuagiFkbohvnEtE3StSuB6PmPSQEPKjVJ+1Z8EL4ITwRvghvhD/Co7Uu60485D3oOYhFZaOKPfS1rH3swXFs+fyuY66UrqMHhH8nHrhby6nJuSjmxM4D2zGokHWUVHQur8+tnGs9DbrzfRJlZd72LF0wHmMHd9AROdphpQHgsTl3/qLTnf3U/BceCB+EF8KPh8ET4Yu4LeGP8Gity/oTD9zO0QGhNSfbORmlfuN3XyB1HtJexBbkAxcJWwFgTJGeKB5Sr2S4VbKc5Wxs/278GCCSKICV6UsZv9LSOgSUI1V5TQLFAQG7nXvHrDRA/IsijuHuEs6k9Ro36p30RHgAPuSiEavAZAhPKuCL8Eb4E+hgjcu6E48oWzVSXNL7hv3Cux9i13rW5hoK0vxZCye2Q1hxBlpjoKzG6xTkJT8NrZaGQmz3wV0QEdI1MxO0FYJbEXQtLS1DwGGKHkSMabXiShDbfWAPzyOyAEvBW7F13V40/4UHjg/5M+SxKdoEePIff+0hxxvhj/Borcs6EI/Yh8GzeEvVwwY5Rsc/9pkZO3KGRCgVLCoF7oHSZtm5Xi7ITIW1hkvH36dVsIGyNwuhyOUGbGjngLPXBWXOjuc9S2UvkMmOg27RCpOwfkEtjweuRJXBnSVPOJzTrm0AdqPnxFi0c/MuaP4LD4QPwgvhR76ac3z5m88i1otwgEcKY3C8krJdk2qVy5oTjwY2bA2o7+NB52S3fvZU2X7/vUfMpkoWldixvgeL3Kw1sBkm9e4DY56YuAe7ue5dyucKtusA+Vwh0nJvd3+ZdW9V5xsQFcETEgj93v86Ys+eLjseiYgm++MIz1a7rP4brunB/JWAsUUR1LDf++NzxHEoVwfEpAvNsNd0ccGfsgCIja7VZmxkbIvL6gveuKFPakW79rOxGqx9c7cCX8FZyaDjaOSN1cZOtEZ4InwR3vzeH4E/4JHwKSnz8Sw51+nvNSce0obHNmwptAL704+fsye/OgkrpvBqVmY2BO7FIhOiJvbg1mH2MPU1ogu7SbsVaDL/s8F6IY69QGjI4MgwYiKkTrSuB4vwxPEFvBH+fOAT5xyfRNsdv6QSWOWy9sRDQW+YKxvRlNXIAPbAhy6Qw5FJqYwnGmm5ZfdgyZApKiBmYfehHYRZR9jpRUA6U5qJxnGwnMWzWeFUkniZQuzlorewpzeBVRBmQKyPrntmNr5lldA8030V/lS4WGFzcKUGmJ5hnxG44yoWQWUKqJZR8M7ij0NGtwqfWY7LKOsqeDWJMAa8I4tijx1aWQRQdFN5A5emrE2xtQxO5LxbDlAZ/VmloszrtWpA+P6o65cE954sHr4AHMEb4c8HwaM6jofCK226uhY6jzVPBqQVuMbMJbua/fgvPWcvvIA5luxQa8FmreskkgxKJrR733QPIotaImVeZyZ2IyfMRsHMK2R8qDekeUdFq9VJ4hJEusGFiDa4dy46p4F81obwvxvdSlLlbXWOG7at2LAimzPnqUh1aW8VzdEshE5qa3EcCkKTt0qI/kY7wWereZthc6kLEJpTF0I7PxHayQt5m5wooxjGrVqesxAYJAiPCNV+JYoKXS2/BBFDwUAE8ZEHH2VDKV7sefwE894ssWNczQ4e2Gq/8m9u8EWgwNitNk6tg4zA9o/Yzx584rwdOzXFxNbs6twqvHGnB6kU8YSUl32dFdz3iu1UY2sl4Ei9IIxolDuige4K39Yi1L+lYLtxm9m93WzXUGA7BiMbHsBEzENyf4699MA3IR1FfIGQkITl8dD4ifi8j1RzuGRZlvsBVdrOrRm7fS8vowEijhdn+yEiDTt6aharQBEupkI8CvIEhEbcwWr5w2VAmkiLE/qAAIeqbkwQ7YOwjD8iEtqw4QXw6cEnz9prb93G0xqk5kAto67l3LrmnEfEjL442bAf+ZmvWq0yAGuNpph1qNeLNi7awXaQe27a6RxAzpf2zvRaokGUY/+W2iBpDCLrB0dHt5rdsLtut+zJ2XAp3o1dvjTxBkqY9ZQwujm3fKNpmpIV5RFF0AUmZNRcsTU1Y9KhK/FDWu28kGvVt0vEww2S6B/91T8FrimQTRkUHztRta8dC1gwZE5UxGjz+biWuXqbP9v/ogvaalPc0rEnT9j5E5dXfQVuv7Gde1J6jmzYB9Gctl/7+ZeQxpAlRCn3V7Gsbu1zDddU0rTjm7n3F+TnmJ6Fbc+TxFYK0h5nKwUGSf9bR1n6KfJBiEDywPlrP7WsP4520jGAILH5lwjMesGUQ+g19wd2+6FYLHR2FtjWWZUKIgzi5R33QWgIiYqS7ATSC+gnXzJxquhZ5VXx4qfi805cfKWLf4fZfq9Sd7pAI0qhWrmsulWthviu3WZ3w5lcqufsC49P2qNH+t1T0mvhpoZYJ2T2TJP9UfsybbAnareQRvu/bB0dtXMnEIu9Y96Tnv2TgSDX0XFVwau/fPCi/YO3ifu4gnfNge9o/5uzo6N1zlWmiaNckypSukVk9j16vGp/9eHjYJAyosPzokjr5ZKs0ErY2zcIL83k9j1aV6AYVsCXEw4RIGSL2nRkL70ltB96Z8buPpSxElyO+IAcOpU8gQ95IaFjqZA6RmzUbNzT5CM0C0Q45hWXl/WMPzfvgiN58zzXRGt0Ki5U5GJos0IRGd1DnzPs0ypmZxi9ylvuGbJ/9Y6G3XsAxSv7CmeKaECk0IXcVAmXZddF8tTG8yapueVv+iqmRnAfGumfc/lPxsGpWcuVddGN4FE2BHDg1V/+1THHs7BedbxTL4SHwsdOltUlHhieszlC6vG7LxbQvkcF++MPnYaN7beCViwcwnpzF7B4iDRhE6VVsVQEFpwHm7QecKmtomdjr1tMKIg+FZLgvObeyN52pxIlQaDJQAUO+ntdFnYEnsPutt650ofmt0PHuMtZEQ3qW15dtX/5bRUbGzSbxtQjIpNDk14mf2c+r5imdkoMWL1FBLsA3FX0Xicg6wuKdjrU0jPCowweqMIr4dcfP8A2FY2iFfNs2gH+CQ+1aHWyrCrxUHSjhlLifbVx0b789JR95ZFJ2Niy1ZnjYZm1r1cS+yw1KgCh2I/3rIgJmC0lsYhAOyWjjZ9g1iLtzYtC9OBY3V53K8rRPBsEyf1dTg7tUqZ2GtTGMxFcl+K4cvzbNlyy739Txt5wX41VErElJBES5maZddsqYjuoW4RCcS2lPsGjrZq66iHhUVjJOl4Jv4RnX35mCm0YwXTgn0DQ6Wzzq0o81GJiZk2Ww0ywzd77/hcgFsij5CYtsmdTtqEJ36Nii/rOaueFr1KfVtLYB0Nnm1fi68v4K8WYrBnOxgDXN90zaCXJDhJlgG0AJ+LOHMuoc61vlbqFOGLEWKXbm3HR4i23mb3j78EtZPAMRUeTQenZXhFnxpMOezicPjiPJrB9PIRFvVjAI+GT8Er4JTz7gz85Bt4RXAqTKjzsNBFdXeLBKhCKmUYU+8qTk3YcVUdMLPD1YIf7KMe+nJ7MowdHM1FQIoOHsIulQXwehNwyU84nLMvsekAAVBBU3X+h2HfWRrcAQpBD+g3HGWyUTVxZZs1reLs3EL4DopchTXieWShO5K6x0L77zSS4YZ6HffSR70xOTk9z+H/dRrpQxAMZ4C/fltIQO8/LZu16H9TWiRL4ujV12Q3gkfBJeEVn+c/WDS80wDt2SEN8czwUV9bBsqrEQxaGHHk6o2rdfuO/nWIi9CiXsdCACLIgRKygxPkK2XtOabfQ/S2ec0sqS6uq371r1Pql6OiBImVfGaXf4dGMve3NWEwmUXYOVi2cRSFCIpx2pHXBW3BPxkFgUurCzVKEb7/xm6cc/xwPO8x6rCrxkKmvRsbzh56ZcTdm8SGbpWhx1eRVQJxMkIWSTAgr772qC6T8w/17yxa+ld+yB0oE4ehrFOCoynbLrqq95ZWsljCm5LtGtCEMvZ2ZCryLfWTbR06Kx4ITiSjZAzC7XheEb2VElofBP+HhnOn9eg+2eL2dIWmxauFK3SokLvmd9xxBDiPVnq+XLT/e1TdKIapd7jVps2iscuLN51OPNgmJHpPYE6A9l/lbW1T2RiGRbw19RYF8HJjw77lx1m4ewx/GcL3H9yPjLFcLPb0KrngzF2R1AfYATePh2uYWqumFW4RvwrvfBv+Eh8LHTpaOEo943Jp/+ZJ4+cjDk3ZhSquvBrCjr+skHFahrhgOkurzRfQUzFsh/UrLFZ8Ks0sT6AXmVlJg3IH6V9q+dp/P1HByIsBLq6XycBQxOb75NSj+iNlBQwbiu6JkWdU7kQXu+QJCv+Dk7OCyqujum4Vv4J3w71HwUI54V+Zgu/a+KyDpKDbHcxf6htJGYyXbwp995BgefzgIkeTXNWBX3t3TR6L6vi0gcMgVErlbs3dlBTUg/xTwZnb2EpsCAVdZX7C1uGkyrr37qAixkb5TiftnwC2IjGzDQPXae7HKqFNtgM59O3g0Jwc15D1xgW1VpPd3Y0HjLLwT/n0APNQmDQKj8FMrzUpnSUeJR8AAaaBzeD1WKxP22Yen7egxztVwFkN2lX1/sxQXW5wrgPMgUrVTJV6bY9+Z2Wq/nb5UxGoB1PnfwEyhVdotC5164brVQ0/DGXvjbRXyc8hC1Z6+TPQimwf+cxzaSlFm3QCy7BcL3xzvwD/h4ee+jN9H9ZI74imueaVRIZ3FZh8XLMpySS9usY989LwF/VqD8TKFLW1j8Vg2wDbOA2CzYjWAcL6AIrBDc1b1CA+ETEKKT34FhzssWkGIQgwKgnN324trolRMvheCZbx6L3Sls+ek4qBXgHDQ7j2oFI7t118oaotSwCIHk81kbQFkwjvhn7Y/+shHzuOFOsI5FhgvK5uUHSUesqtrxVV05pPHKnb0KN6kOPtoVy/53AdJzHez6b3+5U5JTFqxzWITO1KArea/R6XyfeR8zj7zJFCHkGRkrZBLQ5NFT4hAq9/Xtm+h53TPWhAQfFAJ9Cphvg3t/psbViC8vr2CkKctPNt9vL2XboinHN/AO+FfVA/t+aPT9sQxbZQtPFWOl5UBpXP8tIOLVILEryjJ7wMPoOFlFVQcg8syXG+wEm+eooFB/wOVl9jiJlvWgJUW6cBUS4Qbt/JtaH3+zGPsUwLn8brbhgB1GYerWGfg9/ndsdVH45CDlW3UyQjGUq4MYLPUM0n6sMnpil2cKNrMDOY9CFCF+JIs95YKgW0pNWzXtozt2MpxkVFFh+MsL5SqTshsNk86AIXO8i5lMpPeYqUlog85EpQ0yIo+UJyxfTtKdmScKR+ye3wDRzJeF2aYbxDM6xUprEOUsOI83OKySbiPOXxj3MX/izd94IHj9pJ/dghVgsQ5mfmvD7/F4NtZ4oGjjxxGmX722COXcDVun4VerMHddt7Z5RVS+Ov1OSAc+1NPNOyLj5XtrS8v2h178SvxrQhIH8i+MFOzs/bMTMZOnanb+LmSTbD/b5UNk0NpWlnZs0S1Bjk8U6usRnAzAc/KxT3jegZ5yMaaFq1gVeKRDu2o22vvq9rBreSPYEqGTMAIL1oRJtRzK5iOV/dUE14EUJnmDu8jy/5Jmks7GxCCCLNrwNtb4efmwgS8+pioX/2mzfFLYVGPPXqZrSll/lZiJgjHCuh8Z4mH2CPG4YGPzFgVs5Aa28rg9ubQNXvOV0ezhi0CrBIcXzUzZX/+pcA+/BXpl2RdYH7IbVncAccKUJSp13OJDGjVpm1c8xwaLEIh9mShlvQN2jRJbK0zN/zx5EGcLxGleWIqZ//fx/O2rX/G3vDSkt25l8BHRFatY/mIfUR8f+FFGtriaZErNVbEQwlBDu+UIph+0UZnuX019dZdt0Ztv9DandetqqtvEEyrAOLPPzxtb/9GLeyiHO1DxsemYxChHXVWrz/9IK7o7IrWhmm+Y03ZSBWt9t4hoTgCLC6ZYND6Pc8hiMbqHCBW4D1B7AjHIH3IjsgVPuxS6DlPA9IXKhmTFK1KnqMExoGLlhI9+O1Ip4AruAqieLPUE7L/jLxbRXQuT/fZ+z9r9tEvsjkXT+SoIyRWpRNFZEsLEQIU8ztjowOBDQ9hI5DRhYnl6QahL62UgDanxcHmePmBD54mRSWxZSsU3zpKPEIE8mMnpq0spd4CqeY23wBCTbV6g4SrWbIk1MkRoSpWg10ILURBWCdfRkw6QHZWmAa6DUVb5up5y3O/xJUGnzqEp04bI5QITjfkzYlIIFFBxonYpVmaK8K9yTjGXYgnMKxUoVcq0e7njpTsgw/TVYhV++vYwhASCRG9UN7T0ZHkHpEqwTYmL8nZhb6l3E38Pfz6ChFmoXd0yzl3H4BDVcLq4yeJF5ICbQVlZU/Pe7Fr4BnPBz56VoYhEAaZtFWX4nn19NIhOOkTN568LS6TbQBAXtceNApCCeHl9iExRYPraMaxtyU+Ed8rAiG9ARPI7xEe+k36jhshsUf1xnVTJ6djkSa+JeCCOJE+EPyJ5xr2taPNcPj48RX/Fc3NULvELUiA7RzmfYKp+iuKos5ep7C++hjotlj3cX2Cc50qu/ZyoAFlsSjirv/AR874cK/Ecqbp1LEycblmX/g8HoGsQPJsayglXVp6GgJkB4DhEZZn7NOPK1uVfl8fqdsByvYR+BDEYhE3ETGF3S+nOLeynAd67N4G3GWE9U86o89/vmJTU4i3KyjLg/51XvTFxyatxpbdLitr9XIB9ToPpZe7GgIB0ZpRXmyA2flpLCLnV687/bxHyl6RJjFJrRApTcO5wo+rLS9zVzbFgTLn54kZCtGahljUvvAIYcsrKB0lHg9+4aIVCG6KaKRyCTQkW6elpyEQhcTtSG5S8Br+IQ8/t3piQYnXECML14EQo1e2xOHAbzjR6OlhaKlzsqpF7CoYKPl4sWaf/tK5lp5b7Kb2sRuOh1QtjN+MRSjExy9X7KmnOMaxR0quCBuye5Yu9uZeP++KiHh11ORtbaJ3H1Dkfi+zrqM1u9CdGldnZ3w3OfU5dOVEh/rFpNdOlTJE+4bosjtfp8TOeRgp1UQ+LdGb69TZtZeRBBpO7LWwmz315KyNE5kt/DWbdXxeTtR+28QDkzuaewYDvUaGzVA/+Xl26m76zIudjFnK6w9u1w7EMhrusHAKsoyHuvRWbUHJPgt4mmpqocDtYL8brJxSnHq0stfewvzi/XPiTQu3dynYW2x2DIsEHsLXT33urOOvrGk5tNHLyQraNvGIld1Z9tlAa8+K8NAjGAYJAJNMGes8NFIi95u10HcHgQjp6rHy6w7dOYSMV3dxIXWtLM3zQvZOFe21m8EnP5lVrdbt8J9jOZKnO9WqbqoHiM3DT+HrQ49iXseuUYNqKBYm1l611qe2iYfjBYxOFuFzYjZvp06WncKLqiWUrbUm9P5dgsem0vQjqsRWVBHNzhEPIsu9yFrQPIi/l/gruKfz8WoAJTiq75Pg7URZzhVwdYoVuvrWJX+1TTz0oCI7pbf6/CNnrFxmRyoaM8d1cLzZyxwIepnxEIOl1Ux6LpA6796cciVTWdlCwtP8A3i8Q+R3piLHNrQrcLtupW1xiiXEIx6P5aBHD85ggJBwH4JLebZin//KGcdjQXs5BGE5974IktonRNtrfO7vSO9OTWqUGuSDxXFa4tndy5NWDpvucyF5mSHvk2sP30olyIRwxG9rHgA0ESOp31W0GfeFy/AR0rVBOXwv2/jSdapXY5JbRIVaeih5oPe+5+Go8FV4+/kvTDgeKy9ui/TY4dI+8dBbGOAwX7GnH2endAY1LfMh0JykfMXWiPnXeudYZnnTPjKKg4EjOHhAcTBwB4n3ZxMMy+4xrufaEiorZPdtEht2fDyObXFaoPe2WFznMdeOuYMWn+7t26TvePrxitXBY18FltHd9okHS05Uz9oZ0uDVFCxVTwdlYbiLG0vWz4Xv6OazSuwcsHIoyCoPQr/0RrEeyp0BdwDiZ9vlQEU0mlyC6i7Xc3YGzkMTts5vKfeal5cEn2al/EKcHVryzk16EbxVRPS5y0XHZ2Zry4Bom3gQUoWzScYe/MQxsl5fIM4KZ6G0zIPAlUHoZTEuw65vEdF4jaBso9sD2zXICuY+LppaoK77gMwDS8uHPO84jxgMFzN+JrIZ3gPJIBcuxElKj1bWqyabfuW1V8blyrnNexSAt/XSBcdj4bPwutXSFvEQMrgWm7iGB/+OxCLk0GwlwrHVRnXdfc1J3Awxc04jYoPQjPZiFQ5ovrJMuozZdZ27ToMVxsvO9g2iqF/JfrMqzmxw2r9bcOSKn3rx33owi7cy3At1P3G23tywmahe0gFE2qqyBcnFd4+nao0DLAtjQdyVc4IiRM3p3woRenHzeuMMgXLC30+Dx76nNJjti10LvROP2V5hAC/MVGz8xIzlB4fBjRZGsr03bfynmmxxnQ12AiZ1nj0g9x3eQ9atup0/dwaWHndcTdAeXPTKoh0sVgfGynbbPnZZBtkTnFzJwKmafNhHHlP5MQf27HOaqssHoDxg62BFcUvetu8Ywy07sBNHTrCbPLlJcFf1XB+bWKwR3ubCYRs/PmMXsLyM+DYhrcG5beKhBeXU9DQOJqwCJFcN8iAIK8RmLeIqCsUSE3XG7rjvbpY6bOboAnbdOMrqCXEHRlkpCHqoaAUv5kKbLeftW+4dcCLZYH9IpkYHCmZZdGoZ9g54hETaE9VBrYnLrle5S3fuG7Pdh8Y8b2dIrtfhbXfao5/7MqkaCRJjE+xWV9plv7wbHlBgo3Y2AI9Pg8/bRlpXPzT5tuX3Ep2VPUIUbY7FxmjAZiYcMX9OzqvKrO06sM+CIsBpOiLIW1vxPnKm66Uyh3DVsv39tzRsC/MgrwRQ6nAHiiwtNSwAWGjt4cfItyn2uo3izk+0SZbjWFzBgsP47Dqwl/FC5FZx+So+3HR/teCDv8LjRx6bQpfUOgRaJh7SWKteN83piLc8+lVWV2fVYWCW4xTfevu65s44VDyykVFEOBwLAmXbUhGoemRyavzlGBiA0bIfZUHoV75kyG7diXmW31JmZly54D1f1h/3GfU/IhLIQRznUIwew4Xo/DQciNKWLZengQUS7AOxyTRe0ol8k+TONkxaMnmqatw2dZFbOjARHj/6KEyAUw9mMOyyxju2VC0MoZaJhz8O9OVBKuXf1GzNTp+uY2VRDK1S3bWupV24KV18VpMSkUQbKucVN960BGQQuDUWTjw6w8uvK5AkNgQoI2pYUzKNit2yP2dvuB3kI2+qJppMp+12U7NIuhIlFhIpqpMOrV7J2/s+xh6rXMqwG95yibCU+nGDOPIxak533lEoxuOlcfPGrytk1+/lwlvhr/D4FPg8VUb9wEDGeK5RXby0TDzmR0dW4QFPsIfGxMVpKLeAr4S5m5uCi9solopsDQAh7eHZ6AwmQ33LwaK9/WUV9kG9Io4tF7nnT8sAzqKeQeMvfIfr0CYOn31eVpVBR+5Gm2LL/HckxxK5sqQP0Hhp3DZzcbwFfyPgL3w+eZoM65LxmmU+3ifnku+WiYdgnIF8i5nJszvZsVO8AJZQtEkN0Cq7WYuQRvuWDGwZYOVUEuB219+NDUEZ6ENM0Dfvrdk77qXPbOOY6D4SwpH8XnZPmD4ZY++Y5raZR8fz9uAj6JHKF2Lv5bpSvnemqK0aJ42Xxi1pe2dq765anDt2rBbVztix08Qngd/Cc+E7B4uWZWO8zJHy+zl67LzlYNHlSeh7gEqg3KQlQZhBaQ2dbvQm8RALcMeevL3jlZBHlPIFXz+EiFfGvm1EzLDfC8CTHuJkhQS9n8OSJ4422EaELvVrInesCFHMBrfA1VDmt79jr+iWioCt76TH4i98fgG8Fn4Lz69XWiYeeAOjxOJPUPA9PJ4/jocp6fwjeExtsxBv93S91/XqdXQBbLEZFERMmZVLUOtugoCrbuA09F2Lqnb7/ox948vhD9i+MQ9iIxh7d5ZLMEQGYnrT1JNxolbvt6BWIZ9Vv33oEzM2URtEMYssziu0Y11HuTmwQ4tekC8wbm17K3TTUC7aVuGt4y/KaeHzc8fjPXqE58J3x/tFno5Hf5GL80874Y8JticAOnsONbgLLboL7kOkfBMX6TmyaK3nQNLlsFB/wsoMOgiUoSxCr74hb2971Yz1Madk8tRuctJPtFMyWu2YUEokJfKBro7NqKdJnl20P/zLGTs71UeWulVWwNMG6Ws2NdcB7GO8TchAw86evcxCwSKogeXPUgxfy2Q3qUwL66VJPpcZXByCVOIBSBrgpzbdH8Egn4+tDuBV9xf6M9DXbxen6/Zdr83a3TdoM+sBn1As26xXsAv8b7evIZRHXEWAU5345HJmwP7Xn9XsFI5hBeAXkp0uCcztNDBd50GlOTgPjdvmXvgUwChekCLcBq8npsxGtsydig8W+Ns6xvOCmBtvsCvcJavVEHrnuaTLyr/Zi1ydld6+XYTaKPAT16HpNFm+bD/01rzdeQOkolFCfFHC6+ZVvuOtKdtotbgWXiASJL74Yjhg7/vrWTvLfCqxINUj9B3aNnOVinT7GidxHr1A51cCpqvwFvgLr4XfWhkc3zVQi5SWMV4rTaA9SpF1nz8uzzyB/crj8XRb5C09f3reFERBsAS8NzQkNF1C+NQMckRfoWY/9M1bbM9uOCrM8eI4Y6ua+sqUcwyc1+8lehYvOpgD2QjMqRLvIdMpa09gZ3AAe/8na3b0UglHR7bJREbKB1it2Et1tYr8RjR3pZyNUaS1fqxWe9az3qvxVvicsaMnyM8DngvfncNcpIEtiy1aThuqkH+nzuI2LHhfNb5X/Vjkdb17WvCIP7GfRzeywlIi5ur4bgwU7XtenbfdW+kUw+qKUx+6mBuYQzWfBNcf04Bct1GVmBec6CI5E6KYy/PskcuhPfDJLI5JKOl83modRPTjnUv5F1z/jUvfIYRBaGK8mlzipp668zrPoYZU+C3S6oR1ibCKlolHrFFnhEk9dOrsNPKqRjteU5Yeqs1wNUGn+NthNW9MNjoEfPUBY+Wo1UBp+b2vqdre7Z1x/lLfGw2sGrLrCmEVTs+7vjoe2gc/remZQ1nKNFzDqaRRUp8DKV30Q7bJZAj5uZmL8PrUWfRQSjEm7nCJBaJl4qHRlUMJf+38BBwIla/heHfXeHYR4XDANuWsKpPlH70ma2Mj8SLRKXyqZyqYdouIRLM2E/XZ5x4J7bGjEBKJMSU+ir+HiKxtgZMW0UjLVRCQeHoepanwXKJpLNaJUXhxWcaIUSuVyXOVROmucIK3SYsgAPK5ItG/Y5AsRbE3ItDU/u98bc7276l58h2lEZBaoxMlHynMu8qi02d/jvPX6Yl+K2jfWWZfoZ5H88C7OkWpWmhwTCtBC7xL1e94rFJC4qBj4Enr4XjucT+Qj8VKy8Qjg2lNEyqfJVnqBbgOMsAoBiEtQEB0Fdt4VGMiDgBsX0nXEBvaGASx7UIaKQ8bsO9vfInZnfuoSBs2sfy0SzeEmOp5hH4sdpjTCyL74tEc7uY1m57ts3wRwlHDAQx5mqt+fxtdaPsR7zt2YG25qHFb0pmh7bd054NhHqX5RXRSwnPyfOSkjFpkKrdMPARwhTbP1nJWm3NdXaTW7oRb+60WwgCKek0JgBRstfFLSINLYdWqRMjevCe0V98iZejKx1POXyHp/gK0rHXyREyWS/bXXw3tmaeYQTjR5QtMzgrWm5ZnXudhqV6KcNZ8vPihAVt51zvf0PWoEVGuCn7PVLNWYlFxQrsIcFpeYATsEK+/cxdwaJVgFPN+69G9DfpOCOvsTBPMG38mKhi2jqJyeChr3/GaImY5WdCwEfFpt0gE0D6yDbKoNdiN/cy5kv3eX03ZU0ew4vTPwtEQF4UsFGiT43UtsS1sdiaOp1nXpmy0l2sMwe+LZKqPo+UXnw8tE4+YAkV2cnwqVk4vXudGA8fatAd4lCEeQqB4KVub17b7lrBSs3o1tDffR2LhCKQm3d9KStxvaoCTaSCOfP6JPvv9j81YpTGA8RWX5/qAFfHAtSpmW1GudS3MZsapUpZVYV0bsuFerrVDM/jUGbKKwUUuFbPWMvMonJC15dxlyal45yliJgW8D74AHsHuVWZYcdF3xIR2Y80LIct8riKXy9vBnQS7jZE5gwTBQaO/rfFsVOtWK+RMpCdkr9NqvWh/+vHQXjgLyxv0oVNAKZkdZr5AN8jaFeTw98DA0rZSpQNg1fhILxWPF+I4AyiESQsQgPiHOIedvZTEqy3OX7RMPJzRA0EmpthvQaB29jYFeTLhhJzTExMuzbmiMLmwQb7nEw4NXYX23nuY2A5Y1Lwwud2hJPdDQQSCfk7NFO2PP03G+PNYbEp4i1ZrKNyIuNZF3ikHQ79x8fm4JtASLNDnMl5kKXMPuHQVTAAfC3QNuzzJQhiWcM1ZnEtseRjFwmj4L1+ejmdC27MtaWbvfDunwYSsVerohZD5xaZtuCLOI25UCAfQh+Ly1p1lj2rVuGZYbdopESKPnL8uwYG89+MNfATwASr2I6bg/lXAtC9zygYrGh+NUw3RzQlJOpfnRsi5MiSMS5eIjtO8WAI2LRMPST8ZUuxNTM4CcD22ERFkDgZrfpBFZ5DP97OaEdS15m+//gs1WvGH6YFS8+4DtJLwVa0rCpEnf+L1K1noDvapqUMh/ujBjF0g5MnjbalOXMZGTS6s8ZmanPLx0rilZR4EFIKCl+nkFHhOqsal8Lxl4uGVMClmZ5ghyRI2752b+VCsnqI0taJdvHA+3khogwEkbiMD6HQiZ7fvCq0SlFCWxn4YEkbbKQFeg3/xaNWmSBuY1W5sWaJvSRykiaU4Fc8y107Fq/iMop8vnb/g4+VR0BuS3K8iAJaqWiId8HA8Z66gHFr07taJB7JhlK1htyfVnrLD+PRYtN5NdcFhTMCXVrSJ8RnYYQTqeekKtLCv9/xUboxGFuUgjangQTiIiRaJlmFkCpBBvNX11/vKYyKUUpxfLBfssadzFhaRkdmMOqMcroTVzyUKmjvQy9ahMCjz26xIWo3PxHiTQ2Tckuvr0LoN+ErmA/gtPI8wrbtOaJFWtk48mhXUa8jG6z0hFunMep9WLEAd2f/i2YtMSIkH8bR0Rm2dZ6gPmfRWIAvSZzOwsU2INfvSoNIHv47JV5GXiC6KpWqseYzKdfpAW+WWNFc41vjUa4rPWvb0n6umpw8YV8fz63RyWdATOxMpZ9x6L6PX6dR6XBYiKVYiT1TqmWPjrMB4UWoHefl/a/Vbb+LhzZACLGlLew3S887KQnm3sSwAADvbSURBVBG1CfUzx8WBgKBEzuJp5iEMfssG+SO4q6caB1nBNC4an3y2yFxWbEvcow3S3A3SjBjPhe9LlWURD2YHI6FHqFRIkZYYAiCS9jx1vQKMWQVz9qljp5v5gUEoJqlnMFhHePk0AFHEhsp02jYxc5qjPwgATAE8vLHmcYDfjxLHrFbqwHZBpz2dBH8RPFkdNS6VKdhxnQIoPm4pB3IFvI7Xwm8tNEuTh6WvXqnSEUOqFMmMcWn50Xm19OghuOQRiFI2ES0YkELv9LNnrTwRxwMJowgFc2nPcQ8wKHBsLYt2QxfFQGixQqBMcCC7lKUUiVeJiOUnlvgjS40rzOmIiz8FrEyqi+mQJcjM15Ylnl/tSwlcnbyJOKi9wF9xWRoPjYu2V9Q4yWqocWu176vd9o1Rf4zXMZ6L9/BlZ8GmtU4BvI55k2zxOhd8UW+fBMgiHPy7AuuMPf21J6xeltESb0uFcDqDHyNrHO68dlBxx7WEckFC5g5pgtquTytF2cbmdTI+FF3S46q0tWpaeVVb91xNDGQBY4sQ/mkcNB6ODM12arzifs+HRluv7Z2HkvFz1hS4JL8X6GHrxGOBh9NTS0AA/Ud5qm7PPPqsVWfQhSihL6ugUt9JF3IV9i5RTacuxejBX0Y8gj3Q3PD9SJf5gg2/SqtfwFdwFrwFd8H/mUef8fFoMC5p6QwEUuLRGTguUIsyMRE/MV2xJ7/8uF06jWcupswsrLJCwaM2PToXeFGLp0SwtNKKbrFfStP1MyEGyff1Kmv1vuvVs1rXBVfBV3AWvAV3wb8yje9Ji9zVarWt1+pt062w18DQ+f7EaRrl/gzLPJuxZ792xPIkCtpzeLdtG9sOHse8QOffvHCNMdHgGq91RWeNSFp2+kvEleR74aevnI25lVh8lTphoxWJZzlsxmdOn7VTR05ZfRouC6tQQJIb6WsCbWLVFB83Wtu7rT0tEw9N9YAt0vuHYb3H1c21nfzdBlh352eFF4LJDULEok5Ki6NfPWUvfH3c9t+8x7bv3ebnhbgyJa6m34G3g4aIiOQIjf/604Ft31GxPoKfIvJvGBtJt5Kgp8Hu9UbqwAYORJfDAmHt6HKo1ImKpoRMOXrJGpUEboKv4HiePUeOPX0q9jsR3PmXQYzx/ms8UsJxnZEBXtzRNyzLmRTL8e+FHlqG2CK7PuEQysmQEo6FYLnkOSnqsllWerIzKXx/epLEQUA/4UDa0T8s+cLFLgq3ufaVE2YzM/GYysjaqm9XCALq+QAv0hfOyNO4qWxN1pK1oxvewwRuTjyA5wyxVyJggnPg1HCNG+St6vY/DfCcVKPOWS4Ov5aJh6powO8O9CvNntfa7RBa8/bHTkmYCHlzmRghSS5is91Kw3FCSFarYf4eKpcoVYHZeOhpuI08uSpFEFoJbqGNWXQKYa5qEzMV+/SXQVJWe/1Lyvzj5NxqfTu8BDf+ORw5FlzF+WiPoTQ7enuQF1wdz5t6scVqWZbYIt6vv48ELwzSvPmyWN3p+asgIDqNaOKmzrzNThMOj95BIoSCszThW9U7XFXtcn44tYoRPUdgy0OPRzbUX7D7b+ZcU7S6XnWKW5kAP//iCw2bgfGg2etW5uAlkQW4Cp6Ca8xxiKrAekMo08Vu+UMkPHdZT+a5RcriV655IAPhqGbrtmsrPgKwg8kqds1t6c/FIIDpULjrmcYwF4akACxjAYhINitOwJFQgvlqlnmY7iwpJtuPf8nsQ19CkwHxqHM9CkFE2pGBFakraIw9VzJ8a7Wo4czx7AWzP/qbhj2P2NNMBrKaLV66brgLdUlEJASOZTx7wypwliWraY5OCcfSILz2quM1urFdI3XHd82FxUrLnIcmT5aEuSNb9AgTLGU9FoNpC+dj+E1cnLSB4TEn8NJ/OCa08HS7t8wfM7lBBPlZCETOvvJUYMefj+yWm7J2x81ZGx1giw12q9e2Xg30NJfhMJ49BcE4OWPPPV+waUStUj8u3tzDTrbtNmflzwlozmDIg5RcMxcn5mblaouAK2/8xqxBc4RRt5Fh3Aq0k98SsT8tEw9tEShPvdFRAqC0bClQQOJLWtqDAKvl5PlJ23fjLnehFnR95q8VTHldVEcEJUw/Q1KgyygYP/9UaF94TKIpG7kN4pmJg1W5XOYDZ4KFJSLPKVKL5WhjVJOupskxtQeBlT8F1yFuTiVL+ycvTK46AY7f1sN/xcmB36Pb0YfBvTnei71boLRMPBrIlBkUKDt3kMDWK9LftZrpC7S8605dDS+x2krAWysjIvjiLXFh7TrVyGLtYY+ZAO5BwWyKkM1wrLD6GXaon2HXeqdnDSgJa4VIhVJfZ+rMA35royhtr5AJub5ehXaLw2gAyxoErjKtXCILT/T1amL3vTfmT3fsBM+b47xYH8Qst1zktbdtax8rEgOUkPyWn05vFAQ02ZMJHlYbWAcwLUofssaEOFfux3oGOcjhLIbFhfQWbBaH7kBEhCg3/GAtV0HBq/MMd4ivRJ2cpNrFNMpjKeJctrqOhMOnEyStSSukKNVeZAls09nWJgSYn1nGettIX+ylu0Q1LROPQIoTBiqvZDJFVh/yIqRlORCI2QpN7kQe17w/ffysmxmVrm8tc0ton1gt0hl5mbKXbIHhRIJxaVQch3QZYT6OllU7JaqwvSzem+I8Ss4lrfcU0PoVkENEn3FC7V1aTxe15UzKF90rvM6C38Jz4bvj/Yvuik+0TDxkEagRocjulVYowr62/OQib05P++BMnLvEsq5ANTBBWJqWliEg4qckyw22t5xC+ZzCr2XQLXqj8LpY0NLBtrKeUnJxRF/8ykLVQ+FFkAYHmpN9oXvScy1DQKJKBhfgmYuznpwmFddbBp3fCLmFXgQ2O1FB+bu8Z9O7F4aAFrHBQem/uA6+L1VaJx4aKUnmVLp1O/LyGiezWaoT3XrNdUfoGE6+cBwUSJPStDWOWAROHDnmYnRKfNuC4FUPCa8dv50Yg/SO91fdMvejZeIhGpRnK0HJw2Oj8gBIJ/scFNs8cEkFRcOFUxO+s/yVLG1UKBFmFcUYZbUIMO9or7d6ftryZMz2jb0aFYZYafoisqyLN0IsaKAgNVKuo9jV9i51MqVLZ26tuLRzW8fKNTBRXjSyP9qFcfw7UMosMc871oReqyjRv6lfyiyn4ImxUSnA2LRL5vkl5mDLplqn6qRuk21/bLQPx6aJ2OqitzoWLPEW3ZOWF0MAkCnepVAo2uXzl2z7nmHg2rTGiOi7p2fL9P3F9S9xRmlHa3nyXlQx14YDRMiabRk2u2Fv0Q5uD23HYIUM65hta3k7hdn2eQJVj58imSLesQW2W6ihPc0UtD/L2llcfI+VprJNk16OYRfQGQl+gmNGCUtTCrLEqL/40nzrlFz5Fc4ytn2AuafAQi0xi5fWiQcrkKhRAzv/YSaYHMW0g1ySBzMlHYsDedErDJAyXolgnDlx2rbvGuFWVlAnGsidq6iVDrWyhEU2p67Zjq05+/a7MnbTDjJv4fzna0HQ71yJHIZu3hbZG2/MmmLOHny6YY8+F1q9gk9IPvYBWbR/Hb4Qw0PwEYUQ5c3Y2ZPj8eLl7gMitOKR09IOBDxVZT20Q3vZuEsglgPhEhW1vqwx0WXjD3IZO7yPTYKKsdgiyuXUy9+2xJvSSwtAIOYyMsB25vKsh5PHK4HMuQvc3sFTOcSUCAXWS27K2/d/U91u38M0wdM0wmScUSg7P2WM1+5qDRaJqn4M5OwbXpqx73lLzrYNMRdcLu5go1qoKoZLPOemCb8X3AS/OEvYKgOthfZ18y0iysLrw/uAp8RT/i3FybVOPCDoYmIkvowMZm1gAO5DNeOl4xN+KRLVzRBd5bbL/TdfLIKrGTYjOk+AVzPYy5UKnXu5NAIxaukv+URqRXv1PaF9271MmFoBDlLmOQiC3FzRsisoLgxQavAtW3+BTz8ii3Qg+/vNfuAtZjvHCOybqzWuN35H59p9bU1aHTUHBSfBS3DLS2xZbWp7bUN66He8+GvBIuXGYB78BqpQBo12c3gX7G3LxAPizkpE+Dja2Dpy7tguXIE5J5Zbzk0p7VgQvtc5KbYQ9WRdkatZuzh+GZ0k4gAihYvvHeTAiW9DL0Bz8B7Mwe6/4raqvermEm9ndeFakNVFSbGaEgFHBEaZFghxIZzTh0aFuLDr/sFC3d7+qqKV+mg77VTGKYQwiMnqFek8lNFA8BGcLp1GUQrcaiFt8HavNulavb6tV82QDMdf4bESR4+NsXAYqwOTReOfePAu1D7NlNaK9iPx6UG0JWN06OAgtnXWqhyCsAiUNu5Iy4ogUJ2t2oUzF9hICa03sid40bESVeAgqE/+EKHN2lvuLFipMRMTBb2lRXfRLCKMr0j8HS3U7J2vII2hlKeE8otwyNtztYqyg4W8p8aWnufHz1u1vNbmntXq2frV63gL/obgsfD58KEhx2+xCsJ3BnbRxi0D46H6Iuz6w/9D+yEcBHVZgcqJkdCKlpb2ISDWUVGs506e8VSPYsuXYhmX+6YMdYtrlFRy/0v7rL/EipPrR+eYi8e1Jb8dcRdSdMBhZHmWOm8czdj2fjgBGgtjEE+45Tau5fvj3fdkXTl36gwiFsFbkmHS0j4EhLfgbwZOUvgsvPZ5B547vi/BS7ZMPJAsvYERMjAcju3f049orLBtXkJsREPycVpWBAEp/sps1TCNEjCvDGPIoJ0qqikgabHMr6+/DeSHLRXaaYJI2Kh7vs/rvU1ysQSamAhp8vC43XcbvAjnM1huEuvb9Wpq57r0MjlyTExdniGCtgwhTAlHO3Cc/4zwNogIv3c8roPXfY7fwnOVBO/nP5Mct0w8/AHGipAZf9GB0bzlh/NWmNpjYfGcZWqEcKdlRRBoMGCZRtFOPD3u8mfEqtoxAoIBPyIEfws6CqQiEJ2AOLVWf9BnSNvRSokXelhantOxiNLdh4i0lkikOqUcW4UiOEjlK0e2Fx4/yTfiUrpgrRjSQa2PaOlzVpzeZ4WRgu3bFuO38DyeIIu/ou2RLpVKduiGftLX4SxGzocMq1paVgYBOT3V61Wbmpxge0QIdQdZct8mEgQcGiKCVjFKK2vq3NPiZHJoTNmy1i01q6kylZ+HdDaVWTKg1fGIFcVKy4ogoDSTucygVTKX7MDhkvX1tc4EtE08xLC+7K4ByxSllS2glV1csbKi3m2ih2O2nJBo6T5OkCy0w+ZHeWGWMKBAoqi7cyKRdCk5zSS+PZnzKo2Z9DWnXzirqccm2/ifSH5Oy4ogoExyKLAs29ew+14ytCxOt23iIRbyrkMjVp7FlYRVIDbzragf6cPwA4JrjX0RTjx3HHNkZ5FDDl91F2VdVukMvCW+iI+hqc7ddNJEdE0LJbqMvzAO9yG5ixemOo9rILT8n7G1JbIZknHfeXDYRdFWa2mbeGj67UQ+inBTNrJRIYC2+s70vkUhEOs48sgAymI+cWnC7xRB0b+4JN+LVrLgBT0lX4hp9kuQzUR4Nz8oasGHWjipZaNOZTUi1ETrYoNtCw9e95b5feZm2qsEx3UUNuLMPM6FfqRlpRBA/Z0hmx2OgmPbgevcPLt+vW1BX+YxZRwa3F62Q3u28XL2yljFFef63eiNO6QMlFxfx2lM9vXzx9EnyZQmzBdiuhgjst1GYaQzuKNPE+iGtwQVoPeYV5Ve0U5R8y5N474uhSzty3XMZB/3W23UhFb6ggvAQzCKvUlZtOSdlpYVQUBcoxTPB3eP2MA2WbBkNZs3MZaovS3iofo02ZRd+VVvwmxXHyADOBM+LSuGgAiENi3S59L5iygHWdsZSzl4euBSm2+QikOrtXZjPDOFjgr9hHMKTb1Ka9Pl6pc7Maucty89SWg/DkY5FpQqWdE6UZIVUJyMdBtl4HD5wmXggh8rr5AI0+ok70R7erUOhGSiqofs1X9PflzLG7vl3T0PgiJOOZx0XvfyEdhInHU6HIsx71Wb5lDIGCME4gvIrhR7M1MEfumf4Mv1Jq4vGyYZmTUx1UZRzf72i9TDmIkozSGp+64vu1rM9NvtiRfKliOorqGcIG3PqKvfrT6rdXGsT8amJ6bRx+odXGHyyS1dMErLCiEAmLOY2F8PHgufW2Q6/KVtD7UnrmHw9m7hpXgr+livsB+b/nERDwVvUEQkpKMIazF6Jyvtcgb3KnjCEYSY7hWt8uR41cbPVUBNZo4q9FX8qruv+yMhYp/8SsNm63AyrvaSA1m7AtDVr1QtgoVzN/yQYo9tx/y3ooFTruNqeLX7S7NL+LtniHQQ7tTcutW0beIhg59T/tyMHd49yDHNSGZUuz3Z7M+ByBIt5KWZlSkSeGTcJwPWXasuvxWA1k5RmH0OS4t2iMvzed9nQPpp6oIhqbocIJ8JtpfEkaJJrvzbh9RfrJfjicrcUsIYa0zYE+cz9ndPxN6m0l3i5CxNSjvNe/Ez9FNzKpcVV6sXautLeTRDUDy9FefahMWLX7Y5zwhfBePDe9giMDvdBELrvjNtEw+357OSyUr7DW/dDouN1+HcqpkSkk5Nx2yHHaEkDmjVrpAN7D2fYvwK05a9zHgFl9CB5FDWQimgEA0F5pGVXO47ylsb0w88UbNsVNWYtVPnt9iH/haRqm1WqHUIiYB1Gg6tv7237nSC0Vzkha/C27eCv+wRTqwTHwUotVjaJh56saIri2Scevk9Zn1E8c4vazGp5r+vV48VxdqUYTrYRTgEkP7yRM1+64MDdowVoN4YgRCgrMVaEjG2NTiVCg5EoW/YgnmXuJWQlb/aKNijT+fsPQ/WrdxoeiOuJgERI8Nk931TOwiBzVrVtXjZP5Cxl9+NONvMHJcwAK3Ap9WQhhfVJeLlDWHilFgdDx7I2tNPyTIQr2wveiA90RYEsmQc1mrhsHaYt1XNlTqaj5MSg2A49jsp1+29n6zZPaOh3XljzvbuIl6JRUGB95JAQraSayA6TDG0x0/N2hcer9ipCaUoLFtBaSg7ZF1ZqFfebxoBX4QY1/ZUXajqTX0uISDiMg4fIjUDIjKsp0N6OYBpe0S02HjIrsudBbv37hF74gkCuhTiTX66hvw+xOumZRkQAKjzTAgOY4JHBEYdSz5NBn4Zlc7dKiSU2KJSLtWsMEMgmzSotZx95ZzZl4+TabA0Y3vY5HgQd2WJCjV2lDt3qW5nLmEuJfgxV1CeU0IS6nAdqzm+zbrj1qI6Jv2lF77UBxEWp26r2oj4lT31V/CTmZ4tA6V4vvclW+kelje0VW6qbYK5lT63TTwiGqC9RqS00pR83X1j9r4/G2eCk1KPVP3k2PbVazXnVysd7KZ7hBSSOGMCgeoRoRJazDdwprgitU0dyLVEJ1/Fm5C6GUYnTFKmKgtMtd5nz5NTOCkJksp5raQ5xgrleEvbliEeJ9W1/O0EokkY1P8gp4ZqpsXzTe1Stm/9SktrEBDsPPI5wqkzO0A8Ut1ec+8OedKw4Dt4ISgQEU28Fkprdy1QkeRjd0XGhBZVKzY6krFbbxlhQsr9mazaKNvc9rPAs+mphSHgaCEWg6JjRdlmFbYKfuisy6OriCtCSA99928dxy+Lz/N7NamF9/rqP3MEj2bI+qRcHoJLUuYfJ+fS78UhIPcKbc0p/NQG57fcMmyjw+QLU+Ip8FjwFF63WtomHprOWo1U8gVEFV78ulduxSNy2llMJReR8S4t7UFAeJsjIZAIiIp+r7YjnsYz/kCq9B9C5qITbUiutdebNp+iDU36xUop4qEESTqnSS5ympblQECu5570BxGwNjtjb7h/O8OMBEFItM+vZcK0beLhDjvw2BHxBf4Pdvbe2/pQniJEkyOgEZCQQluxp2XZEPBsXIymsol5bAs1xKtC/L3sClt+gLfwXuc4mkgaUxFVwAn/tFzZim70/jq/FVej2JZASlMRjhXVvIkfVp5a4SX4WcTD+GXga4NzofRsogRaoHRPi6Vt4qH6xXhIPoqzi7GHLft6vOLV+HywLWWAG3HDM3K32JL0NgZPy73GURI/sSJ9V4iv6wAYY32vXhGncfXH3yW64e9dzXdf3auF+pnvFwekyS1AiIisXXuubl13/hI+ZvDraLDZ1ytf128j/VqckA9QrDnTIXAuA6QrIh7XgrCBX8A7vmW7lavs5yHPorQsDwJNeTNhyXN5rbTLq6Jn7wYO+WKcR1dKW8HFOaSe7fBqdEwRyexBPFO0d37T/hUv7p0lHlCtAwMlGyiwQiC+ZNIcH8ufAQmxQBws9sUyvleyjBVh+S/dwE80+y2ZvFBUNLD0HbEOZjmr5Abu4Zo1LYPZXda7gcFJNu7Sniwrm1QdJR5qSgFDy/d9zxgh2gx0Js2ovryZkVCOOACsULraurC8unrrbulABA+VVFxpb2wVfl9HbPne7x21PG46sruspHSUeEhWr2XL9vY3bWfVRJiCmigy1NsoVnMZZqCVdGrjPivyqqnPt8YNyq+veAg5q8u+suoajliJazo/N30BLnmJcb5XhKwD6D1iIF6BoQAIMGPiEsN6U8NNsHIRTxAB/wgwLMHNvv11+/ALxBVghcBZ6fNXv97DpuE42BX57peg1sLaopgIwiRiM6MUgpu0JGZPTXp3xFHUrIeWy9nJqYb7USgJkKJW60S39vcPXoFWTGGu/N4sR97vuPN9BFDVwyrwwbwI/+1+RvwV/NzvCHjKpCv4xikMRJ8375yLPQ6BD4RCeCh8vPtO5l1NxASYkvh4JaWjxEOR0tlKxqp4Iv7A2/dY1rNVYUlmUHMFZNUVNnYlHV3vZxMTaGLNCMn5GSCDEm2GiIdyWVwZ5shqOGtBsW4Hbz2MCBgPz6ZGAB+4mAAUB7J26LYbgE/ocHK/F+Dm8AOOgqfgmsA4gfl6j/16vV9+HTlwUfgXsXALH3/g2/c4fgpPPbPBChoXC5ErqODqRyEQeagaq+aesTwep1vsiSfJi4g5t1yesDyRe/EacvVTm+eXHIHj1dBXRhL5euZ5TGiDW4dtePuQf7I43bGAuv8MwNs84FmkpzHx1CIU2eieYds+NkIi5DppCSft8nl9LkA0sMbIA1XZzJhvrlj1+jq6Pi7Swo15WtxYpTKDG/qwKIjdemvR9uzME6+EyTYPBxLPxrYb31HiocbWUJLmYT0qIMA3fvOYff3JL1g22uVJXeQau2JBq+2urveDkA26LxdvWQ76+gdsy7Z+Pvusb0vJsqTx0w2STT1LWzPNXko7roxbhFgsv4QGiYGKAwXb0b/VRveNWFjdZ7MTZZsgx+nEhazNzsSJbeKNrpxcX6lkEx0paVIuh9MmhCO0U/ZN33K/VYg5K5KzpVZgs6eGTN/tL04dJh5yF6OxsEpFMORVyFeH9t9oR09dhiuX63P7Dd1QYy7vOFEAp9wCv2TKmCjI81anlfFLK6DykOo7X8xZaUsezmIYgjGEQhndEFGyc8UPgY//j+voFXDN9XGFB0rjKjne9R2CcVOHloXbHdze75+93FSZrUJE4EjOXbbyZI19cIjpgGsJFKHMdxPIfMOu+C+NZzI3NQB8/D6/3L1/6EcDvGsQAHd47012/x0EGDJvMyxUjqdJl9vsYUeJx7VtCNh39Z3f2W+/8qsXQZ4ynWBbynn4cu39G/63JqwTDPQVTczWLmwRFD5QQmEnIso9oVD2ivWxOm7dMWw79oxa/6CydDFdkcml6JPZLEPC2bS0D4FEnJlfA3HBzLWMjbKVwNi+UeKDzGYm6nb21Dm7ePayzU6VEZ+LnljZWHnF60VRFYU+ikXJihodLQwQE/3T/24tEUTDiHCvVcDD72JjevBR/etUWVXiofx1L795mM1kJuzCpBRZel33ep5KQad/gfz/GQNZRLT6ieuoN6bxQ8ja1tFR27V3j+W3xHJ3rPXPWkW7S/OQMmL53NTPtHQcAhkynUm0EW1X5vUQxWC2mLWxg4zLoZ2cRyk9GdnpEycgJuetClciTkbEIkLpmsPaJS1JFMRciXQn3VroDXMta7tGh+y+m9B7gI/m7v2d6VEG4KwadETBMwzK3z0xYe/69Sd9RRbD1LWF/jiw+COCQYIt27J9xEa2bbH+oT42e44nrpsQITQe4IYY4/kRmMx61hkWCIeg3mReuhYcG7Hhc3BtSpbOOABrmW8lpiitgd/DIqDdJqqEUsxMzKJ0lb7kMvoTxsV9kvhWB7t4kKQbEqf7kz98q73yti3M2cQtoDMjt6qch5zGwqBi992Mcmvrdrs4fZ6kumAcgxMpIzYRfpkIl1Q3SHemQ8uvRVNEaJ2U5Nh5DD+peRdKi4+9vH+w34a2DdoWrCMDQ7CCyNt6Xvdonulpl8UxS0v/Ec+9JtHhqjazdv5FAjyENS2dhYDED62HSda1GNrSk4ho8GGcfFN2BkYMRzFbtBKu2tt2bbWIbS6mJ2fY1vKSTV6YZs+cGc9/oX1NfBx9fKnAi0Z6/vjpOJk78R1r+5e+BezoFZUwWUM5WdyULn/H8Ha7F/yLwMOsiy2da9Wqch6i9O6IAsX7u2dq9u53f40OshIL2dhERNtU5khM4taFzvVp6ZrmliYhOVNLk4iPJ7qRkhNtr0QNUW3NDSnZSuguto+N2jD6iwKes3Xyesben1fqWPql6dWNDoFkLmjMQzLH5zBlVmdDu4Se5ML4OSuzEbSU36IPgRMTFkDfJVHzR4QpJlqxHobezptna9F3LVR1m4VAlJBMaKsWLsTqH/3Ru+z+m7Rg0woXxaTX6UxZVc5De3jIQzZkt7L7b8DGvC9nJ07lSXWHArU+xADh90FGbu9YZ/qzZC1zE6R5V0I0QsynubyUl5CxEAqNZCXz6Y69O237zq2wuvSBe9Bs0PYacjGKJ/rlmnstSeu96CzZ6/TidSGg8aO4foqlTaJNtV62LDqsHftHbNfBbXCMZhfOXLQzJ85YGbNwrcqeMtLGMvj1WpVnQFZxk0nRgtRcnJJTq/ktbirXAJ/QylfZGiOX32p792fAuwKLNHOa9KCOjx1sxKpyHiJ22hNVHQvqkT1+Imf/189/BW+eIYYIrzcoeSNHlyRjrkHRYLrMi+igf0lavxobS0skGdu3H8sI3AWh3ywueODFhC2DVl7JaOq1eqzwTBIRN4nGWk6SNQDTpnvF3PjNH0/GW56rSosgUVPu3VokAuaCxJtapWZnT1628ePHXLTJy5+C69JzJdxscrwWAJUOLlOXHwy6HOkVa5P27372pXb7HvCMTGHxBtZSJHSurCrnoW6IfcoSyVcmge3te9gj4lVb7YtfIrovmLJCftgtFr6Md65Pi9aUsJRSnulYosfIziHbvmu7lQaVEBiLEHKhJpM4C4kwiWk5wtFGJlgtQbHzkQhjU38h7iMtXQuBZF7Mjac4CMZZ461x9+uRosQ1LZgYpPEr5uGkbx2xvTeSv4Z9Kc6fPm+XxiedeIho6Nmk3rUAjDKAidBVG/hURcP2yldvtdt3B1aBOyqBf9ohA0GLpnRuoV5VzmM+0BwhOXH0TMV+6ueeRvxCqwCBDGq4yUq5s8IifGe0QHZhvX7ExSdEIpMyqEWUYwNb+2wr4sgWrCRcckKh+/RxbiR5OP1OIbAEBBLOwomECAvTePICbgmIN9MXZ0m6o9AMdHxu4WnO8WSdgRJ5Pg3mXCfWHnHvUT60PAwStML+08/eYgd3yq9DaJG8dInOtHFpVTmPhdpzYGfJvu1b++0DH6paoTaLPAbCL3TjMs+Jy3GNOoRDgyryEcA5KOFrhEPW0Oiw7Tmw04lHjmRFIliR784cOwUIwKsF5GV2Jb29SyCQLDTOjUi0QSE5NDpgw6NbiL0JIR4VO8k+FpMXJ5ib6NSwHxDS5/Ndz2rdik3IK+cGlEs4i1g9m+m373pb3oRnviquIizXjPNQH5z7IL5lCo++f/6vnrYy5qM82kkxCyst2n8k2VVMZlVZT4qDge05dMC2o8fQAFfKVVdyZfPSjjfb4/qLlQ/eStufPt/dEHBlK5a5hJMNa6jXUa4X2exGy+P5k5fs5JFjVpmOxV6Zf1U8CrgDBhAxF3V8OoqIV7/1GzfboDye0eOt5oK4psQjmR41KOSzpyP7uV991Opl0hV2gvUQMYDHyMC6bRvbYbsP7EUGBHgokGTzFrHw5LkiVJySH4D+uQNX0rD0O4XACiDgujTnK5IJzWSTP5PmnjQOzLmwmrFTL5ywC6fPomhFLyL+I7l9Be/W/M4Vq/bvfuJuu2EMV0w8mTtR71JNWnOxBZ83V+zctD+0G/YO2lPPER5MJG4U9aNanbY61DIIZTadXyRSxJpsbYLkrJ44Blg/F1EA3MD2vI3u2o17+DZMrVhGoPoZ7fNKNVImSQ0iYqGiY9WnFUHn9J2WFAIrgUC8ECXzKJ5pPq8UykDx6yxkDZQSB2/dZ/tu2GsXz12wc6fP2PR5EmahpBWXoFipDHNci1qINTLWl8Q1eEXNPxG+HAHm4igzCMc9S/0Fu3Ffv920j2fRf9RlugWjVrOsOefhUaYAB1uXnakV7d/81FM2G07AGRBTkCFwDkVqJLPY/OLILlEjzsLlu1opGI3owOEdW2znvp3WN4hnHYMTYhJ2/YU05jGtmF9TepxCYH0hoGkprhdWIYsJVdac2amKjR87ZZfPTrrZN+aUmd8QkNgBDe4loUvN1gfgC6E4THG2jkTXMpAbtl/8xZttZw63gwI+HSI8wrNVLGtOPBxwdDao52y2Pmkf/dSs/eEHLtDZClriWcuHQygvmprppOPYmSSSZLXTFfcpBf/2PTsRTcZc8al9TBXUpH+KjIQhgYisrryXNC39TiGwHAjERAMOgykuLkO/M8x3+RIptdeJI6ddpJEfSR7XeZ/HEm2uwYkGPh317ASnCZHgvu//zm32TW/ox91+0F0OZHJxkX05jVvmvWtOPCS2qCglodQRjcys/cy7ztjTz00a3rUWDuD63dyywRWs3Osh7lhmCmxSswtdxq4D26G6cCfc1/B7RTRE0fkwGD5AUF3JgWlJIbCRICBxWeKIc8f8kIJVhEQK/oB9jzLoSJRO8dSx8zaObqQ6AxHJ9/FME29UASWEmOSmEctLDbv5xiH7+R8nYrjBfZrzLM6yN7JtmN+7Wn/WnHgIoeXWEQbTAJANd/l94Vzd/o+f+Rq5FbGQzPbjERcDKiEeRYjG7kP7cOgadE/QMEKfoT0ogKPDkkq132YdkSUxnznAUuKxWvMmrbddCMS4709LX5drii4+Vf0PXAk6wCwpKpV579KZSTv1/AnMvrEon1hPxLnXBlhQSTnw6z93p20bldgPfx6SdtDg3iWxzHtXu81d6rk1Jx7XNkZkIiAO+uMPRfYbv/24iyTOURBxm8/1E19CMp0DoxAJQeNKufb3lSvpUQqB7oZAsmgmvZCu7+wLZ+3sictWq8+wcOLDAYci0eZf/7M77E33QXDID7G66tGkNVe+V5evufKeRY+0nW0FmeMN9xTsc/cO2sOPzFqxENr2fdts9+GDnjMjJJEOgsmidaQXUgj0EgQS7iImIrAjcBC7b9llOw/twlfkqF04fpnkUhm7D3x5/T1FqyKmkFAe+X5tobDunIcApEjAAP+M2UrJfvrdR2zXjYeIasTVtoi2GW7N0140Zb21BU/6thQCaw8BcRqSx/XPi+iH8ETxbhWMsog6488etV/40UPWR3rPiBCPDH4dCdFZqxavO/GQYieAOlTryG+5PhufMvuff4E7b24IjzntEobPhjgPmVDSkkJgU0BAyo8rCgtZKHO4JdSI5s1hZYiwUv6Tt22xMfYES/AmQt/R2ZjZ6wN63TESS7csVCSl7SNIvw5AqmRdH8JEhRkLhzGlinOV9PX7kt6RQqBHIHCFcHiH4EKEB8IH4cWr7xpyPBG+CG+EP8KjtS7rTjwkqKkRysuK8dYNTK+/K7Ib9nC+7Ol3oB2uhl5r2KTvSyGwISCg+U+KH8eHG8GL190ZG2KFL8KbGInXWOEBZDYA8Xjx+GSxaX/L/ZEN9GWsn/3yPBX+i29Lz6QQ2BQQ0PwXHggfhBfCj41QNhTxuOI4U0ARVLPv/9acnbsw1eRNNgK40jakEFh7CIg3Fx78APhQYh/jDBGzCa6sfWuuvHHdFaZXmnLlSMJKEJL+jVyML8z02R9+WKbaa+TAK7enRykEehoC2FnsH3xzYAf62QRdjpVZ8GOVvUdbAeiG4jySBisqsCEA5Uq2b8Ds/ruIRtQGS7jkNvAi7eaNo5I+pt8pBBaHAHlHmec+35n3mv/CA+GDto4UfmyEsjFa8SJIyOhE/khUzDn8/d98a8buuIGw/VkiEQuEKhNRmJYUAr0KAc3vHPNc8/2OG6s+/4UHnnDId3zbGGi7MVpx7SxAQtHGSUreE5EiLCCL+dteUbT9e9mbgr0yCkrIkZYUAj0KAc3vOnvM7t+Xtbe9vOjzX1Hlsm/49qYbpN8bknjIECWHUimFlNOgjoMYtNi+57VlG2C3+ToBQ2lJIdCrEND8HiDthOZ7Di5E89/9TYUUlE4kDO8E7DYk8bjaU06EQxQ3sr5C3v7RW3OYrM6x4xyUWGkg2ZxHkbkpL9KJ6ZDWsdYQ0LzV/NU8bpA2M8IJbLDvvM/zvjyRtXAc8dbbMaqKflyNH2vd4ivv25DWlivNS47ExrHnt7KdA7rxmaz98SeqNjkl9iRnRRIp19kdnR/JA+l3CoEugQAu5+yoWGFHNyiHDQ027PveVLCxfvlyYHckUXLOxfSNN7c3JOfxolFXvo7/v71z+7GrquP4b+99rjPTG20Z0BbatJiGFtCCBTQQhRqDhkRD9AkfNP5Zvvqgib4QRUMTAiagQGss5SK0UmwVWorTy8y57Zuf79pzOtPpmc5A57bPWaudc/bZ9/1ba3337/5jJWTmM7XJ8cR+9GiEzRthJuqQQ4hCTTcd5Fd4Cmx8CmjctgGOCnWbm4znHz9WceNb41zj3U1Qxv9GbKUAjxyri0t0As+W4iCTwm3csyO1nz0Oqxc2rBKT48BzHRtxfPl7WoICGrdRPINZtmHPM553byfXHuNb4zxzOj+sLC7Aa4kTrcPmUoBHQm0XmW0pmkeKQsy1uSrYR7btrob9/InAOmtXK3sdushfcpgpIJ6iS/7dXzwZuPGsca3x7cY5413jXuN/I7aS6DxuJl0GgQMQOkBx+uHl0H77MpXASUWfUnA4IAtZljRI5XbzcX6Np8B6UkB6/rDSQZ1Btn8KrGeE2v/ku3Xbv4UN5OlQYfjQ+XKs510u79qlBY8UDiRQrQvygASwfB9fzu33L5u1yJqek229VqeUZdJcHhX8Xp4Ca0SBqNK2XpcSI3hLj1EN4LmnzO7Zggd1ighOPhvl7ohUNqQErbTgIRd1lbURmcFrgCKwi9d69puXQ5tBjMlUNbwcfVCCYeJvcaUowLsNzgJzLLr/nz6V2Z0T5B5V3hpGskSYSBbF2VKUK3XN1TpPecHDpWoDNFxFLqpsKX89eQ+udWv2qz9Ow/7VqfHi3dhXa+D48345ClQVs4VrwS+fmbAJykMqk0+OI6TsiRVARTqPsrgclBc8XN8Jq8Ve6BvCKxKXZLBT1AB94dhF+3R6p5G5DWSnilaKOZdlz4w4wvmPNaCAG50MuDyioFlSNzJq2l2bLtqzT0/aNsqLhNQuMsBEabDmxnF5RmjJwWNuBKSAh+sMxBmlpW+1a/aHE7mdPo9OBDCJxjDxCkk8fMwRzS+tMgXQX4AYaYugTsDia7ua9sPDgTWbPThlcRvFy04ZwcrYhgY8yCuNnkPuvJIpKQqF0jROevbSOw07fhpFdtaDPUSMwXbufULKOFTLdc/KwSFWN8AqmOCz8ch+s6MHVYuo5kLtNVbFY2isFnEW5Xo+3e3QgEeeAhgRQURFNtiiJ+i/CC32G/+K7NhJgENl/vTQCwpIFTv7T0+BlaOAYrH0IpO/wNGHEjuyN6NEJC7ofanEWWZlGcTlYIP6cSxFjaEBD/oCfWkRD+BkSML4MaJbCxGmSc7Hc1eq9utjJFkhRkaRuoWepN+T6ub+8lIk89s9BRZSYP74KZYzwENe0c9/r2K7NsfWpgD7mOoqE8eCTZYTaKySswMFaVndkYYGPBZ25/zf/fJ9l+PAfncst/9QU7tGvdsETqWqzOzY1kkrixacfhUK+eYpsAwK6B0kI588n3N8M2K43gqcRI86s7soF/vc0cC2ECmrttYFmZZx+7e9y0iBhxKp9PKeHTse2D/OUmGcHKkRsTEGqMhClroUb3or+OYpsDQFMkyrERYT98KpIJZkWPXIMfr1vYk9fZjKboESFXvwWJqSZdgD5VWH10UDTuPtM7m9+A5g0kXrzRukah0UQA04EN88BZZHAYkbOdGwsTVQ0MPNNjJ75mBuD+wj3gpOpCFUkZJ+SNtIcB79vnMWdZTbvWqMkaxq05S2fOFv1+zs500cdMiNikI1pOi2b54Cy6GAC9ZEIZoAEnu2t+3ZRzfZBCUgE+CkFlctJZ5teKEDXEQfUPBVy6HWsO2jJydq8dg7XXv1VNPqhMJEbTqfV0qN5V6PYDv0IihHhu3J/fN8UQrgp5GieK/VatZjjCClWMoY6bL85KGWHT1EMiq5lY+Q3n2kwUO2eBzbrQJLcvZ/sf3prdA+nQmtCSuap9jj4UZIWk1+hS860vz+w0aB/jgI4DKCqGdtRNy7KIfwzMOZ3budxNygCcUf3b9he/bFnmekwcOZa9GQ9wAH3id2pZvb6ydrduIMQXdwHAEKsKiKbV5WNd9GmwJSqMdd9GN1fIcSO7yvYo8/mNgWhkcPEbgmLlZKkBFqIw4eSC10vcoIR8mYqzYuCeX8xZ79+Xhsn0+PkeWJUeHDc0doSizyqITDpriab59o2fcfwRS7s4ZZVr5FgEpFmeyUMlB5dEenjTR46GUhLblaDGhUMOMirwAiCLNsfPX9nr1yCpMbbxZJLm5/943b8exrRqKPd3cXBcvd5vdjESBfhMj3+72HEvQ7VG574oB0GwINlB3Y9xPMsVWNIe3oOY9yD4LbvfsCIDKcfxBdiEm4jEPZi6+17fRUxZqhasYY3ySt5W1TxVMwIGt7Fzm4Ko8h30pJgZj+q9N/eQBE4JnchAttoxCtoCtvMw72bY3tB98es604fkXESIWMA4XQCy9GuY005zGo450KFWcyvUZSJZ6FNQnIGfLhxcheerNlV6ZJc4h5Tt6oMWZfhSUE1oUtQfj1rZwUCNBlkIGf8CijVIrzGs1xHd063rWjR8bsvp1wo061TvyrM+UTt4Lzl0qijnLz4LGg990gASwCeYtJxY4+RP4hIXEJCZG6fz2d2Zvv5tbqkQKAIlQBClfCZxhMC07kf5aGAnICVdhJjgIj68U2VovsyMHQHsPZKyJdYEYHO38NxaTQ3xJP5F2KLa40z7gaN+rBYwFVHbMhLViBHrgeM3h4I1XqyhhSZcBkNoNrzF8w677/UYrJju14EcpM51s5KaAKKSHex01ElwN7I3vikczGSd2AyyD9SgxUl96FIwnFbsr0xsuFbrdR9yf04PElxrsUahaHyMO5vXLS7K23GUibVRJCA0u1RQU+iDs4iLhM2Ly5lNhW4o9va0sBaq4xydFPEIOgSNdU/QIfUREHgX4jRemZXQ3smw/g7PWg9Fmsryp1g4DCt1tRwIPHraizyLbEWgy+MRCDCEpiYq506vbGKbPjH8CBgA9Vwq4zMpmljZiXFPmiEgKkZlnjRU7pV68SBfoiZVIlexcBkFEX7pFMXjHpGlQG4eH7yLVxyGxLo4tVjSDJTOBP/xr969stKeDB45bkGbxRtTWkLHM5UQEFuF6XomFqxuzE6TYRuw0SMado8Au1SU88Lk5nkd52vq0pBVLniJFgDSMdIL0GhNimemgP7enY4f1N24aXqFK/sNrprdiN7mRPhVn7dksKePC4JXkW2Si7Poq0lKGoUVd4eiiwDtkZ80tnpmt//6hqJ8/ENtWqOQa44vb3rPAiFF211UoQlRI2D3zbHeMxEa9V+8aenjXG64Q1xXCK6r9+4QNETzl6oRhnwbclKODBYwkCDdqcu/eXBlnxtlJIv15wSipkZG9XzG4kRSrL733StddPRXbpcsPpPYp6PnMOSO78OlZMib5nW2EK1A/PrfRpIgI5Us03bfXpNkumPim1r7pDhcF2bG3bo/cndvCrTTABsYTjq7KhKXs52536A3RxqTdYdb1/5y7slwZQwIPHAKKsxCrJ0xE6EU1+ImQw7SLSvJ3Ya++FpARo2zgydY+U/BqxFUSakLwiMf/Ii8sRZDVjREcpopHHjuvdocmdRvhcgNROtECHUQUMsjpqUeJNRKwaJTZm0EnV4qZ96/7MDh9CewHO48XBeTgKnQb6U99WgAIePFaAiANPobHKIIX/YIHcqfwLqU+aUE/37BWzN/9JJO85NuE6EDAhpECJMPlqDiAAyRqI38Gsv8nAC4zeSnF4AbZ0DCZQE4ctaJdiYkVBQVQBBGNxz26zIwfM7t0MaakDm1G3GJc+R2j3re5gV99unwIePG6fhgPPoGA7uRZJV6o3JqI1C5J00JBIKweXcXkmtjMXKvbuxxX75AI5MDlCupQIc6/EG1l+3bgfeIURXClaMvEljqTScqKbkOfN3ZO53X8vbuSTCV6hsG6sVZoa53ujfflzwANNcfWjG5zL1wgScGUf2YPHytLz+tmc+gOgYNgy4uVaBufhfsJyCzsY2gx/zLiUjIDD+Ayx5YNzqf37k8DOX8qsQ+3dEDsjRQi1s29QQD4bGa6gDWq77t4R2j1353bf7sh2IrbkcCRJRUKMGtyJaA1IS5/hOA6hOLDhPDgc/bWfb7dDAQ8et0O9FTr2ejI3BrUMiillM8/8N7dTp7t2ZqpOnlUmAwDjHJzwG5GrPPw4O+MiXYmR44m3YZaIoZFjbC69AKDl5gvyTwgb48zKbkYxfTSPBrlHasLNNt2TY5DELl1vnFNYWGwo1s7f3N+Piaw3vaatkk5r98xpL/UcWss66XNY1vnkFh5RvzVL4BokrwGacgnXM0b8Kd1fFZfx/du7dmhf3fZ9BX0QZRrFWzh85ko33FP/Pvz3qlLAg8eqknf5J9dkzZllbv5myuquWUkiXRXsxj3+/KXcTrzfdvlWY8SZGtGeIWGfsipWcaEPKzDkRHymknWyIqWA5n2IxScALQQuqSxAju2B2ee4QfN++Xc8eE/dv8oRSCxT3ZJI0apScIIUmawb2kEXDnlGdDwVyhRkSYbDroCCYwlb7hG1WoWF2HNH2w4faNquHShGwZUGAWw6QerYuqY7DQPYAwdUWY/mwWM9qL7YNecBiPOMBAcC0ttpwqf8KU5PKQGmO7ldamX20WehnbtgdgHntLgjgCDHJiCit7sz9TJJBUqptLARgMLkZBMsvTQvajfCx/xKeuIWOPSmtnC9KqPd2OT1ousXvhXugilAgXZT3IHOGfAsOqwHaEgpXG2ENomz1u5Js707M9sxFtpEowAMiXYRICQgykku63Qes8An4OCkN17e/1ozCnjwWDNSL+dC0pAySZh+0pFo2cilGiGGyPdAphmJAXqLCwacEhYxp9PNbGo6sEvTkV2YMrt4LbdrM6lNt5igccXEqUSYhXPYlAhuJQCFMpeYdeHE0zVZ5/7rOjejhwMA3ZfbpA/dy/wmRzmegfOnIF0g5zjMp1WYjlo1sQm8vjeNR3bnpsAmt5ntmEht20RuDbw+pQeSclMoJ27JKY3hYKQAzRJYkUrhlCcdBnfHet0/J/ZtXSjgwWNdyD74ov356HQSzAs3lSV2iN3nhyLCNWfc259Jpamj/P6p2BSajteECzXpAZguQHMNLuXqTMcuXGnYVUpNXAVQZsjV2uIvJbVeovR6KGclCbC74wwcZohLkLZR6zmvuxYfgbS+7KB7cH/81DUjlJgV0jVG/I3hlz/O32a4Cf1Nbunw3bBNcBN16V14wIyDnRpEN06TboOcj7PXkrWElbqGWA825fjM5PhoOKjSLWhB2/nybX0o4MFjfei+olcdxCEsvIBSCyiJEZ/u7V6TYsLNPK2jsZzAoZCmBJ1CAVwtxAopOiWaSKSR4nUMsUjzVo5W6DBxcOOHAETngAsSAvWkv+B8aDvgQDjWhbK7HRb98ArPRUmzYTd48NiwXbPyNyaByMECIoXKSggwtEZWG/gPjBzymnCI4i7u3u5uae7DcUWzP2XRyUJxQCAIVhJ3JCdUeQKnoHFnmzvf3Fn80jBQwIPHMPTiMp6hzz0UuyqoT7Ch1M2zcMFPiS1q/ekuCWNh6+/T3+T24QD9VoCZPgsYKXiRG6+78Gz+d5kpUPjUlPkJ/L0viwLST6i5SQ5LIQvG9Ta7KDVtv6H2RC/R/62Di50KsJHw02+ABJuK82utdBmzPif6Nbdj/wD/PSQU8JzHkHSkfwxPgbWmQMFbrvVV/fU8BTwFSk8BDx6l70L/AJ4C60OB/wPhS/byj7Tg7AAAAABJRU5ErkJggg==;" parent="1" vertex="1">
                    <mxGeometry x="1051.28" y="-477" width="51.72" height="50" as="geometry"/>
                </mxCell>
                <mxCell id="NkAxZAtzzJqoS2XVmBnt-118" value="" style="image;aspect=fixed;html=1;points=[];align=center;fontSize=12;image=img/lib/azure2/management_governance/User_Privacy.svg;" parent="1" vertex="1">
                    <mxGeometry x="990" y="-584.75" width="44.93" height="47.75" as="geometry"/>
                </mxCell>
                <mxCell id="NkAxZAtzzJqoS2XVmBnt-119" value="&lt;b&gt;API&lt;/b&gt;" style="ellipse;whiteSpace=wrap;html=1;aspect=fixed;" parent="1" vertex="1">
                    <mxGeometry x="1070" y="-297" width="43" height="43" as="geometry"/>
                </mxCell>
                <mxCell id="NkAxZAtzzJqoS2XVmBnt-123" style="edgeStyle=orthogonalEdgeStyle;rounded=0;orthogonalLoop=1;jettySize=auto;html=1;entryX=0;entryY=0.5;entryDx=0;entryDy=0;" parent="1" source="NkAxZAtzzJqoS2XVmBnt-120" target="NkAxZAtzzJqoS2XVmBnt-121" edge="1">
                    <mxGeometry relative="1" as="geometry"/>
                </mxCell>
                <mxCell id="NkAxZAtzzJqoS2XVmBnt-120" value="" style="sketch=0;aspect=fixed;pointerEvents=1;shadow=0;dashed=0;html=1;strokeColor=none;labelPosition=center;verticalLabelPosition=bottom;verticalAlign=top;align=center;fillColor=#00188D;shape=mxgraph.azure.queue_generic" parent="1" vertex="1">
                    <mxGeometry x="1180" y="-289" width="90" height="27" as="geometry"/>
                </mxCell>
                <mxCell id="NkAxZAtzzJqoS2XVmBnt-121" value="WORKER" style="shape=hexagon;perimeter=hexagonPerimeter2;whiteSpace=wrap;html=1;fixedSize=1;" parent="1" vertex="1">
                    <mxGeometry x="1310" y="-295.5" width="80" height="40" as="geometry"/>
                </mxCell>
                <mxCell id="NkAxZAtzzJqoS2XVmBnt-122" style="edgeStyle=orthogonalEdgeStyle;rounded=0;orthogonalLoop=1;jettySize=auto;html=1;entryX=0;entryY=0.5;entryDx=0;entryDy=0;entryPerimeter=0;" parent="1" source="NkAxZAtzzJqoS2XVmBnt-119" target="NkAxZAtzzJqoS2XVmBnt-120" edge="1">
                    <mxGeometry relative="1" as="geometry"/>
                </mxCell>
                <mxCell id="NkAxZAtzzJqoS2XVmBnt-124" value="" style="endArrow=blockThin;html=1;rounded=0;dashed=1;endFill=1;" parent="1" edge="1">
                    <mxGeometry width="50" height="50" relative="1" as="geometry">
                        <mxPoint x="1090" y="-241" as="sourcePoint"/>
                        <mxPoint x="1350" y="-241" as="targetPoint"/>
                    </mxGeometry>
                </mxCell>
                <mxCell id="NkAxZAtzzJqoS2XVmBnt-134" value="time" style="edgeLabel;html=1;align=center;verticalAlign=middle;resizable=0;points=[];" parent="NkAxZAtzzJqoS2XVmBnt-124" connectable="0" vertex="1">
                    <mxGeometry x="-0.0714" y="-1" relative="1" as="geometry">
                        <mxPoint x="-2" y="-14" as="offset"/>
                    </mxGeometry>
                </mxCell>
                <mxCell id="NkAxZAtzzJqoS2XVmBnt-126" value="" style="sketch=0;pointerEvents=1;shadow=0;dashed=0;html=1;strokeColor=none;fillColor=#505050;labelPosition=center;verticalLabelPosition=bottom;verticalAlign=top;outlineConnect=0;align=center;shape=mxgraph.office.concepts.clock;" parent="1" vertex="1">
                    <mxGeometry x="1191.5" y="-231" width="35" height="35" as="geometry"/>
                </mxCell>
                <mxCell id="NkAxZAtzzJqoS2XVmBnt-129" value="POLICY V1&amp;nbsp; &amp;nbsp; &amp;nbsp; &amp;nbsp;" style="rounded=0;whiteSpace=wrap;html=1;rotation=0;fillColor=#647687;fontColor=#ffffff;strokeColor=none;" parent="1" vertex="1">
                    <mxGeometry x="1019" y="-231" width="117.14" height="34" as="geometry"/>
                </mxCell>
                <mxCell id="NkAxZAtzzJqoS2XVmBnt-130" value="" style="sketch=0;outlineConnect=0;fontColor=#232F3E;gradientColor=none;fillColor=#FFFFFF;strokeColor=none;dashed=0;verticalLabelPosition=bottom;verticalAlign=top;align=center;html=1;fontSize=12;fontStyle=0;aspect=fixed;pointerEvents=1;shape=mxgraph.aws4.policy;" parent="1" vertex="1">
                    <mxGeometry x="1104.63" y="-223.85000000000002" width="23.29" height="20" as="geometry"/>
                </mxCell>
                <mxCell id="NkAxZAtzzJqoS2XVmBnt-131" value="POLICY V2&amp;nbsp; &amp;nbsp; &amp;nbsp; &amp;nbsp;" style="rounded=0;whiteSpace=wrap;html=1;rotation=0;fillColor=#647687;fontColor=#ffffff;strokeColor=none;" parent="1" vertex="1">
                    <mxGeometry x="1300" y="-231" width="117.14" height="34" as="geometry"/>
                </mxCell>
                <mxCell id="NkAxZAtzzJqoS2XVmBnt-132" value="" style="sketch=0;outlineConnect=0;fontColor=#232F3E;gradientColor=none;fillColor=#FFFFFF;strokeColor=none;dashed=0;verticalLabelPosition=bottom;verticalAlign=top;align=center;html=1;fontSize=12;fontStyle=0;aspect=fixed;pointerEvents=1;shape=mxgraph.aws4.policy;" parent="1" vertex="1">
                    <mxGeometry x="1385.63" y="-223.85000000000002" width="23.29" height="20" as="geometry"/>
                </mxCell>
            </root>
        </mxGraphModel>
    </diagram>
</mxfile>
